<?xml version="1.0" standalone="no"?><!DOCTYPE svg PUBLIC "-//W3C//DTD SVG 1.1//EN" "http://www.w3.org/Graphics/SVG/1.1/DTD/svg11.dtd" ><svg xmlns="http://www.w3.org/2000/svg"><metadata></metadata><defs><font id="fonteditor" horiz-adv-x="1000"><font-face font-family="lINêe×Ñ-80S" font-weight="400" font-stretch="normal" units-per-em="1000" panose-1="0 2 6 0 4 1 1 1 1 1" ascent="916" descent="-301" x-height="1" bbox="12 -247 979 821" underline-thickness="0" underline-position="0" unicode-range="U+0028-9ad8" /><missing-glyph horiz-adv-x="1000"  /><glyph glyph-name="parenleft" unicode="(" d="M96 242 Q96 115 128 -7 Q160 -134 227 -247 L357 -247 Q293 -135 257 -12 Q224 112 225 242 Q224 369 259 493 Q295 613 357 723 L227 723 Q196 674 174 621 Q148 558 130 494 Q97 370 96 242 Z" /><glyph glyph-name="parenright" unicode=")" d="M28 -247 L159 -247 Q225 -134 257 -7 Q289 115 290 242 Q288 370 255 494 Q237 558 211 621 Q189 674 159 723 L29 723 Q90 613 126 493 Q161 369 161 242 Q161 112 128 -12 Q92 -136 28 -247 Z" /><glyph glyph-name="slash" unicode="/" d="M36 -45 L174 -45 L432 723 L296 723 L36 -45 Z" /><glyph glyph-name="Q" unicode="q" d="M48 339 Q48 258 71 181 Q94 107 144 47 Q197 -11 272 -39 Q337 -61 406 -62 Q497 -62 580 -23 L667 -112 L770 -13 L684 64 Q724 117 743 181 Q766 258 766 339 Q765 420 742 497 Q718 571 668 630 Q615 690 540 717 Q475 739 406 740 Q337 739 272 717 Q197 690 144 630 Q95 571 71 497 Q48 420 48 339 ZM424 137 L480 79 Q444 66 406 67 Q313 67 254 138 Q224 178 209 228 Q194 282 195 339 Q194 395 209 449 Q224 498 254 539 Q313 610 406 611 Q445 610 482 596 Q527 577 558 539 Q589 498 603 449 Q618 395 619 339 Q619 287 607 236 Q597 197 577 162 L513 220 L424 137 Z" /><glyph glyph-name="uni4E0E" unicode="&#x4e0e;" d="M183 329 L749 329 L731 110 Q729 84 723 60 Q719 48 710 38 Q697 27 680 24 Q655 20 630 21 L464 21 L487 -94 L667 -94 Q712 -94 757 -85 Q790 -77 814 -53 Q830 -34 838 -11 Q852 32 855 78 L878 448 L317 448 L325 557 L906 557 L906 673 L334 673 L342 777 L217 777 L183 329 ZM54 235 L54 120 L699 120 L699 235 L54 235 Z" /><glyph glyph-name="uni4E3A" unicode="&#x4e3a;" d="M52 -13 L144 -107 Q213 -55 276 2 Q331 53 377 112 Q451 209 488 327 Q565 245 638 161 L727 244 L569 411 L493 345 Q510 406 520 469 L772 469 Q766 289 752 110 Q750 88 743 69 Q738 58 729 50 Q715 41 698 38 Q671 35 645 36 L504 36 L531 -84 L685 -84 Q728 -84 770 -75 Q802 -68 828 -48 Q844 -33 854 -14 Q867 18 870 54 Q887 320 898 588 L534 588 Q543 686 548 785 L424 785 Q417 686 408 588 L308 588 L376 649 Q306 722 234 794 L148 721 Q210 655 270 588 L92 588 L92 469 L393 469 Q379 391 351 318 Q329 267 299 221 Q254 157 197 103 Q128 40 52 -13 Z" /><glyph glyph-name="uni4ED6" unicode="&#x4ed6;" d="M269 460 L295 350 L358 369 L358 59 Q357 22 367 -12 Q374 -31 388 -47 Q407 -67 434 -74 Q469 -82 506 -82 L799 -82 Q836 -82 872 -75 Q891 -71 909 -61 Q928 -47 938 -25 Q948 2 950 32 Q954 96 956 161 L841 182 L838 87 Q838 70 834 54 Q830 42 820 36 Q810 30 798 28 Q774 25 749 26 L546 26 Q524 25 502 29 Q492 31 483 36 Q474 44 471 57 Q468 74 469 92 L469 404 L564 433 L564 96 L675 96 L675 468 L780 501 Q776 413 772 326 Q771 313 770 300 Q769 292 762 286 Q756 283 749 282 Q733 280 717 281 L679 281 L703 170 L750 170 Q781 169 812 175 Q835 181 853 196 Q865 207 872 222 Q882 248 883 276 Q889 463 895 651 L675 584 L675 785 L564 785 L564 550 L469 521 L469 687 L358 687 L358 487 L269 460 L269 558 Q314 658 349 763 L238 788 Q197 659 136 539 Q91 447 29 368 L90 259 Q125 306 158 356 L158 -96 L269 -96 L269 460 Z" /><glyph glyph-name="uni4FE1" unicode="&#x4fe1;" d="M538 778 Q556 735 573 693 L314 693 L338 770 L221 796 Q191 687 143 585 Q94 475 24 378 L89 272 Q119 310 148 351 L148 -95 L262 -95 L262 557 Q288 618 310 681 L310 586 L948 586 L948 693 L701 693 L656 801 L538 778 ZM344 250 L344 -92 L461 -92 L461 -54 L773 -54 L773 -91 L890 -91 L890 250 L344 250 ZM364 394 L364 296 L869 296 L869 394 L364 394 ZM364 537 L364 443 L869 443 L869 537 L364 537 ZM461 147 L773 147 L773 49 L461 49 L461 147 Z" /><glyph glyph-name="uni503C" unicode="&#x503c;" d="M559 788 L559 722 L331 722 L331 622 L559 622 L559 570 L351 570 L351 33 L284 33 L284 -67 L949 -67 L949 33 L882 33 L882 570 L676 570 L676 622 L921 622 L921 722 L676 722 L676 788 L559 788 ZM24 383 L86 257 Q111 294 135 333 L135 -95 L249 -95 L249 567 Q288 669 318 776 L196 800 Q165 674 116 556 Q79 464 24 383 ZM468 209 L767 209 L767 165 L468 165 L468 209 ZM468 474 L767 474 L767 430 L468 430 L468 474 ZM468 77 L767 77 L767 33 L468 33 L468 77 ZM468 341 L767 341 L767 298 L468 298 L468 341 Z" /><glyph glyph-name="uni5176" unicode="&#x5176;" d="M50 221 L50 115 L348 115 Q213 37 67 -15 L113 -119 Q272 -50 425 31 L379 115 L609 115 L568 28 Q724 -36 875 -114 L928 -15 Q785 52 641 115 L949 115 L949 221 L793 221 L793 597 L918 597 L918 701 L793 701 L793 785 L676 785 L676 701 L323 701 L323 785 L206 785 L206 701 L80 701 L80 597 L206 597 L206 221 L50 221 ZM323 279 L676 279 L676 221 L323 221 L323 279 ZM323 597 L676 597 L676 540 L323 540 L323 597 ZM323 437 L676 437 L676 381 L323 381 L323 437 Z" /><glyph glyph-name="uni5199" unicode="&#x5199;" d="M201 249 L747 249 Q741 171 733 94 Q731 73 723 55 Q717 40 704 30 Q692 23 679 19 Q656 14 632 15 L492 15 L515 -93 L667 -93 Q712 -93 756 -83 Q781 -76 802 -62 Q828 -42 841 -12 Q855 25 858 66 Q866 211 873 358 L334 358 L342 438 L791 438 L791 544 L352 544 L360 616 L240 616 L201 249 ZM96 751 L96 523 L207 523 L207 641 L793 641 L793 527 L915 527 L915 751 L96 751 ZM75 177 L75 68 L690 68 L690 177 L75 177 Z" /><glyph glyph-name="uni522B" unicode="&#x522b;" d="M60 341 L60 233 L178 233 Q170 161 139 96 Q120 61 94 31 Q64 -3 29 -34 L124 -107 Q162 -66 197 -22 Q226 15 247 58 Q261 91 271 125 Q285 178 291 233 L418 233 L413 100 Q412 79 406 60 Q402 50 395 42 Q382 32 366 29 Q342 25 318 26 L240 26 L262 -79 L356 -79 Q395 -79 433 -70 Q462 -63 484 -44 Q499 -29 508 -10 Q520 21 522 56 Q528 198 533 341 L298 341 L301 424 L524 424 L524 757 L93 757 L93 424 L190 424 Q188 382 186 341 L60 341 ZM611 16 L634 -97 L752 -97 Q788 -97 824 -88 Q843 -82 860 -71 Q879 -54 887 -30 Q895 0 895 31 L895 775 L786 775 L786 71 Q786 56 782 42 Q779 34 773 28 Q765 21 753 18 Q738 15 722 16 L611 16 ZM595 695 L595 139 L704 139 L704 695 L595 695 ZM205 653 L410 653 L410 531 L205 531 L205 653 Z" /><glyph glyph-name="uni526A" unicode="&#x526a;" d="M108 198 L108 112 L359 112 Q333 62 282 39 Q241 20 198 9 Q137 -6 76 -17 L112 -120 Q193 -105 273 -80 Q318 -64 359 -42 Q451 10 480 112 L773 112 Q768 84 762 58 Q758 44 753 30 Q749 21 740 15 Q732 11 724 9 Q707 6 690 7 L530 7 L552 -90 L726 -90 Q763 -90 800 -83 Q819 -78 835 -67 Q854 -52 863 -29 Q873 1 879 34 Q892 115 902 198 L108 198 ZM120 591 L120 229 L230 229 L230 330 L404 330 L404 327 Q405 312 397 302 Q390 297 382 296 Q372 294 363 295 L286 295 L302 227 L386 227 Q418 226 451 232 Q473 236 490 250 Q501 261 507 275 Q514 300 514 326 L514 591 L120 591 ZM243 776 Q264 743 285 710 L66 710 L66 627 L934 627 L934 710 L719 710 L764 773 L658 813 Q625 759 588 710 L407 710 L347 810 L243 776 ZM613 313 L631 230 L739 230 Q773 229 808 234 Q832 238 851 253 Q863 264 869 279 Q878 308 878 338 L878 589 L774 589 L774 368 Q775 344 762 326 Q753 318 741 315 Q728 312 715 313 L613 313 ZM586 574 L586 344 L687 344 L687 574 L586 574 ZM230 427 L404 427 L404 393 L230 393 L230 427 ZM230 524 L404 524 L404 490 L230 490 L230 524 Z" /><glyph glyph-name="uni52A8" unicode="&#x52a8;" d="M311 270 Q339 202 366 135 L208 120 Q265 243 309 373 L498 373 L498 488 L65 488 L65 373 L184 373 Q163 308 138 245 Q119 193 94 144 Q82 114 54 102 L87 -14 Q106 -7 127 -6 Q266 13 407 27 L420 -8 L481 21 Q452 -16 423 -53 L525 -122 Q578 -55 617 19 Q641 69 656 123 Q675 203 681 286 Q688 396 692 507 L809 507 Q803 305 794 104 Q793 84 788 65 Q785 55 778 48 Q767 38 753 36 Q732 32 711 33 L626 33 L650 -83 L756 -83 Q791 -83 826 -75 Q852 -68 871 -49 Q884 -35 891 -17 Q901 14 902 48 Q913 335 922 623 L695 623 Q696 705 697 789 L589 789 L584 623 L475 623 L475 507 L581 507 Q579 429 575 352 Q572 292 563 232 Q551 149 513 74 Q466 191 416 308 L311 270 ZM103 733 L103 621 L464 621 L464 733 L103 733 Z" /><glyph glyph-name="uni53C2" unicode="&#x53c2;" d="M29 256 L88 159 Q162 194 233 239 L256 182 Q443 219 618 296 L580 380 Q445 321 302 288 Q366 338 417 402 L577 402 Q634 325 710 268 Q805 199 915 155 L966 264 Q895 286 829 321 Q767 354 715 402 L931 402 L931 501 L484 501 Q500 528 515 557 L764 561 L837 507 L900 590 Q770 683 639 774 L576 695 Q610 670 646 646 Q487 641 328 640 Q425 684 507 756 L412 815 Q309 727 194 658 Q166 644 136 640 L161 547 Q210 550 260 552 L379 555 Q364 527 347 501 L67 501 L67 402 L265 402 Q214 352 153 316 Q94 280 29 256 ZM104 -28 L137 -122 Q331 -93 522 -42 Q696 4 858 87 L805 175 Q659 94 498 49 Q397 21 294 2 Q199 -14 104 -28 ZM161 114 L194 35 Q337 59 477 100 Q608 140 731 201 L687 281 Q565 219 435 179 Q300 137 161 114 Z" /><glyph glyph-name="uni53F7" unicode="&#x53f7;" d="M170 152 L685 152 Q682 117 677 84 Q675 65 669 47 Q664 37 656 31 Q642 22 626 20 Q599 17 572 18 L372 18 L395 -95 L607 -95 Q656 -95 705 -87 Q739 -81 766 -60 Q782 -43 792 -22 Q806 16 810 58 Q819 155 827 253 L326 253 L339 314 L947 314 L947 417 L54 417 L54 314 L206 314 L170 152 ZM162 761 L162 468 L837 468 L837 761 L162 761 ZM288 660 L711 660 L711 569 L288 569 L288 660 Z" /><glyph glyph-name="uni540D" unicode="&#x540d;" d="M76 503 L151 407 Q213 446 271 491 L402 390 Q225 309 37 261 L82 155 Q155 176 227 201 L227 -87 L343 -87 L343 -50 L764 -50 L764 -87 L880 -87 L880 329 L529 329 Q731 432 888 598 L888 707 L492 707 Q518 739 542 774 L419 799 Q346 708 256 632 Q172 559 76 503 ZM343 220 L764 220 L764 56 L343 56 L343 220 ZM728 598 Q585 474 414 396 L488 474 Q424 521 361 568 L393 598 L728 598 Z" /><glyph glyph-name="uni552E" unicode="&#x552e;" d="M478 789 Q494 749 508 708 L308 708 Q328 742 346 779 L227 802 Q184 715 128 636 Q101 597 69 562 Q48 540 25 522 L86 417 Q119 448 150 483 L150 232 L265 232 L265 258 L927 258 L927 344 L615 344 L615 384 L883 384 L883 464 L615 464 L615 502 L883 502 L883 583 L615 583 L615 622 L905 622 L905 708 L627 708 Q608 760 587 812 L478 789 ZM141 201 L141 -94 L260 -94 L260 -58 L744 -58 L744 -94 L862 -94 L862 201 L141 201 ZM260 109 L744 109 L744 32 L260 32 L260 109 ZM265 384 L501 384 L501 344 L265 344 L265 384 ZM265 622 L501 622 L501 583 L265 583 L265 622 ZM265 502 L501 502 L501 464 L265 464 L265 502 Z" /><glyph glyph-name="uni5531" unicode="&#x5531;" d="M397 330 L397 -95 L504 -95 L504 -59 L805 -59 L805 -94 L917 -94 L917 330 L397 330 ZM84 709 L84 -10 L195 -10 L195 54 L353 54 L353 709 L84 709 ZM422 747 L422 378 L888 378 L888 747 L422 747 ZM195 592 L247 592 L247 171 L195 171 L195 592 ZM504 88 L805 88 L805 34 L504 34 L504 88 ZM504 234 L805 234 L805 183 L504 183 L504 234 ZM531 473 L531 519 L778 519 L778 473 L531 473 ZM531 652 L778 652 L778 607 L531 607 L531 652 Z" /><glyph glyph-name="uni5546" unicode="&#x5546;" d="M111 520 L111 -98 L220 -98 L220 254 L265 206 Q284 219 303 235 L303 0 L697 0 L697 236 L730 206 L782 255 L782 66 Q783 36 768 12 Q750 -7 723 -6 L616 -6 L638 -96 L754 -96 Q788 -96 822 -89 Q847 -82 865 -65 Q877 -50 883 -33 Q891 0 891 33 L891 520 L690 520 Q714 551 737 585 L696 609 L937 609 L937 711 L584 711 Q561 758 537 806 L413 783 L447 711 L63 711 L63 609 L292 609 L260 589 Q287 555 314 520 L111 520 ZM537 374 Q586 334 634 292 L373 292 Q421 332 467 376 L412 422 L594 422 L537 374 ZM405 191 L594 191 L594 100 L405 100 L405 191 ZM440 540 Q413 575 386 609 L614 609 Q580 563 545 520 L410 520 L440 540 ZM220 289 L220 422 L377 422 Q302 350 220 289 ZM631 422 L782 422 L782 293 Q707 358 631 422 Z" /><glyph glyph-name="uni586B" unicode="&#x586b;" d="M292 -30 L337 -118 Q467 -65 589 6 L546 74 L708 74 L673 1 Q791 -50 906 -111 L955 -20 Q851 27 747 74 L951 74 L951 154 L878 154 L878 596 L685 596 L685 638 L926 638 L926 722 L685 722 L685 788 L577 788 L577 722 L357 722 L357 638 L577 638 L577 596 L389 596 L389 154 L341 154 L341 74 L512 74 Q407 10 292 -30 ZM64 555 L64 443 L154 443 L154 147 Q95 123 35 103 L67 -3 Q203 52 341 107 L326 165 L314 213 Q288 201 263 191 L263 443 L346 443 L346 555 L263 555 L263 775 L154 775 L154 555 L64 555 ZM494 302 L774 302 L774 263 L494 263 L494 302 ZM494 192 L774 192 L774 154 L494 154 L494 192 ZM494 410 L774 410 L774 372 L494 372 L494 410 ZM494 519 L774 519 L774 481 L494 481 L494 519 Z" /><glyph glyph-name="uni5907" unicode="&#x5907;" d="M39 407 L72 299 Q108 305 145 313 L145 -102 L261 -102 L261 -67 L734 -67 L734 -102 L851 -102 L851 310 L925 298 L958 414 Q797 433 642 476 Q759 534 864 615 L864 729 L414 729 Q433 754 451 782 L322 809 Q211 648 51 540 L124 447 Q198 497 263 559 Q309 516 362 481 Q202 433 39 407 ZM494 410 Q612 360 738 334 L242 334 Q370 363 494 410 ZM689 625 Q598 569 501 530 Q423 568 359 625 L689 625 ZM261 92 L441 92 L441 30 L261 30 L261 92 ZM555 92 L734 92 L734 30 L555 30 L555 92 ZM261 242 L441 242 L441 182 L261 182 L261 242 ZM734 242 L734 182 L555 182 L555 242 L734 242 Z" /><glyph glyph-name="uni5927" unicode="&#x5927;" d="M46 2 L124 -115 Q251 -36 359 67 Q448 154 505 266 Q564 145 662 52 Q762 -42 883 -111 L959 2 Q874 45 797 101 Q731 150 678 212 Q591 319 559 454 L922 454 L922 573 L562 573 L562 787 L435 787 L435 573 L76 573 L76 454 L431 454 Q421 395 399 340 Q367 268 316 207 Q261 145 195 95 Q124 42 46 2 Z" /><glyph glyph-name="uni592B" unicode="&#x592b;" d="M41 -9 L115 -120 Q240 -65 347 18 Q439 92 500 194 Q555 95 642 24 Q695 -19 755 -54 Q821 -91 891 -121 L956 0 Q880 28 808 66 Q748 98 695 140 Q615 206 573 301 L924 301 L924 417 L560 417 L560 543 L869 543 L869 657 L561 657 Q562 721 562 787 L437 787 Q435 722 436 657 L127 657 L127 543 L436 543 Q436 479 435 417 L74 417 L74 301 L418 301 Q400 250 368 208 Q340 173 307 144 Q254 100 194 65 Q119 23 41 -9 Z" /><glyph glyph-name="uni59D3" unicode="&#x59d3;" d="M630 785 L630 615 L554 615 Q563 668 570 722 L461 735 Q438 568 382 411 Q388 462 392 514 L392 624 L242 624 Q253 706 261 789 L147 796 Q140 709 130 624 L54 624 L54 512 L115 512 Q92 368 58 228 Q119 180 178 130 Q151 94 120 61 Q77 15 32 -29 L116 -114 Q199 -37 265 54 L343 -17 L421 79 Q373 121 325 162 Q344 210 357 262 Q372 328 380 396 L488 362 Q511 428 528 496 L630 496 L630 344 L443 344 L443 229 L630 229 L630 52 L406 52 L406 -66 L948 -66 L948 52 L746 52 L746 229 L909 229 L909 344 L746 344 L746 496 L931 496 L931 615 L746 615 L746 785 L630 785 ZM291 512 Q283 425 267 341 Q257 285 237 233 L180 278 Q206 394 225 512 L291 512 Z" /><glyph glyph-name="uni5B50" unicode="&#x5b50;" d="M65 397 L65 281 L445 281 L445 83 Q445 67 442 51 Q440 43 434 37 Q426 29 414 28 Q395 25 377 26 L254 26 L278 -91 L417 -91 Q456 -91 495 -83 Q515 -78 533 -67 Q553 -50 561 -25 Q569 7 569 42 L569 281 L936 281 L936 397 L569 397 L569 426 L894 630 L894 747 L139 747 L139 631 L686 631 L445 477 L445 397 L65 397 Z" /><glyph glyph-name="uni5BA0" unicode="&#x5ba0;" d="M88 703 L88 497 L205 497 L205 590 L631 590 L558 527 L625 456 L438 456 L451 563 L330 570 Q323 512 316 456 L75 456 L75 346 L293 346 Q266 250 209 168 Q175 120 134 77 Q87 28 36 -17 L120 -109 Q189 -46 251 24 L290 -60 Q387 -23 482 19 Q483 -3 490 -25 Q498 -47 515 -63 Q534 -77 557 -82 Q585 -88 614 -88 L783 -88 Q818 -88 852 -81 Q877 -75 897 -58 Q910 -44 918 -27 Q928 3 930 36 Q934 96 938 157 L826 183 L822 82 Q821 66 818 50 Q816 42 811 35 Q804 28 793 25 Q778 22 763 23 L644 23 Q630 22 618 24 Q609 26 603 33 Q598 39 597 46 Q594 61 595 76 Q746 158 868 281 L802 346 L939 346 L939 456 L717 456 L748 481 Q694 537 638 590 L801 590 L801 498 L918 498 L918 703 L584 703 Q561 756 536 809 L413 785 L449 703 L88 703 ZM417 346 L481 346 L481 146 Q384 98 283 64 Q378 191 417 346 ZM595 208 L595 346 L776 346 Q692 267 595 208 Z" /><glyph glyph-name="uni5BB6" unicode="&#x5bb6;" d="M63 333 L99 237 Q262 282 414 360 L430 337 Q254 237 60 180 L98 87 Q207 121 312 168 Q395 206 473 255 Q478 241 482 227 Q384 153 273 101 Q159 47 39 11 L87 -83 Q204 -40 316 16 Q411 64 497 127 Q498 110 498 94 Q498 70 492 48 Q488 35 480 26 Q467 14 450 10 Q425 5 401 6 L303 6 L322 -95 L438 -95 Q484 -95 528 -84 Q553 -77 573 -61 Q597 -38 607 -7 Q617 35 617 79 Q617 153 603 227 Q610 231 619 234 Q663 140 734 65 Q803 -1 887 -50 L962 42 Q916 65 873 93 Q837 118 805 149 Q749 205 716 278 Q798 315 877 362 L819 456 Q697 382 569 322 Q543 370 507 412 Q536 429 564 450 L794 450 L794 546 L202 546 L202 450 L383 450 Q228 375 63 333 ZM81 706 L81 499 L195 499 L195 607 L804 607 L804 498 L918 498 L918 706 L581 706 Q558 757 536 810 L409 782 Q424 743 442 706 L81 706 Z" /><glyph glyph-name="uni5C14" unicode="&#x5c14;" d="M51 455 L143 371 Q228 461 298 565 L795 565 L694 435 L809 392 L931 570 L931 681 L367 681 Q387 722 406 765 L288 798 Q244 696 180 607 Q122 524 51 455 ZM285 23 L310 -98 L428 -98 Q464 -98 499 -90 Q525 -84 545 -67 Q558 -54 565 -36 Q575 -7 575 23 L575 529 L451 529 L451 76 Q451 62 448 48 Q446 38 438 32 Q431 27 423 25 Q406 22 389 23 L285 23 ZM626 342 Q744 160 856 -26 L964 40 Q844 223 723 405 L626 342 ZM29 43 L131 -26 Q267 152 365 356 L255 402 Q166 207 29 43 Z" /><glyph glyph-name="uni5E97" unicode="&#x5e97;" d="M22 -46 L140 -103 Q174 -47 200 11 Q217 53 229 97 Q245 163 251 231 Q257 319 257 407 L257 597 L501 597 L501 306 L300 306 L300 -92 L417 -92 L417 -55 L758 -55 L758 -92 L878 -92 L878 306 L621 306 L621 401 L924 401 L924 510 L621 510 L621 597 L942 597 L942 708 L617 708 L591 802 L463 788 L487 708 L138 708 L138 397 Q138 323 132 250 Q126 191 111 135 Q99 95 82 58 Q55 4 22 -46 ZM417 194 L758 194 L758 55 L417 55 L417 194 Z" /><glyph glyph-name="uni5F71" unicode="&#x5f71;" d="M26 -16 L97 -89 Q139 -54 180 -16 L199 -95 L279 -95 Q310 -95 341 -89 Q357 -85 371 -76 Q386 -63 392 -44 Q398 -20 398 5 L398 110 L474 110 L419 64 Q480 9 532 -53 L554 -34 L614 -120 Q715 -51 804 32 Q895 119 967 223 L880 283 Q763 122 601 10 Q550 60 499 110 L569 110 L569 281 L640 188 Q804 306 933 463 L847 530 Q793 463 729 406 Q653 338 569 283 L569 304 L106 304 L106 110 L166 110 Q103 38 26 -16 ZM95 761 L95 464 L353 464 L266 447 Q275 429 284 412 L51 412 L51 335 L623 335 L623 412 L395 412 L370 464 L581 464 L581 551 L641 464 Q711 513 774 571 Q849 641 918 718 L832 786 Q719 659 581 564 L581 761 L95 761 ZM210 230 L463 230 L463 189 L210 189 L210 230 ZM197 542 L197 576 L479 576 L479 542 L197 542 ZM197 682 L479 682 L479 649 L197 649 L197 682 ZM246 4 L200 4 Q228 33 254 65 L197 110 L296 110 L296 44 Q296 32 293 21 Q292 16 288 12 Q281 6 273 5 Q259 3 246 4 Z" /><glyph glyph-name="uni5F85" unicode="&#x5f85;" d="M576 785 L576 683 L379 683 L379 572 L576 572 L576 494 L349 494 L361 515 L266 563 Q220 489 164 422 Q105 347 34 284 L86 175 Q127 210 164 250 L164 -101 L275 -101 L275 384 Q306 427 336 472 L336 383 L708 383 L708 304 L357 304 L357 195 L432 195 L378 145 Q445 76 510 6 L593 89 Q540 142 488 195 L708 195 L708 68 Q708 53 705 39 Q702 28 694 21 Q687 16 679 14 Q662 11 645 12 L544 12 L565 -96 L671 -96 Q710 -96 750 -89 Q777 -83 798 -66 Q811 -52 817 -34 Q826 -3 826 30 L826 195 L934 195 L934 304 L826 304 L826 383 L947 383 L947 494 L692 494 L692 572 L901 572 L901 683 L692 683 L692 785 L576 785 ZM47 557 L113 461 Q182 519 244 585 Q311 653 369 730 L280 803 Q236 741 183 687 Q118 618 47 557 Z" /><glyph glyph-name="uni5FAE" unicode="&#x5fae;" d="M548 -36 L629 -114 Q706 -34 771 57 Q826 -31 898 -108 L979 -17 Q891 63 833 166 Q865 238 883 316 Q907 422 916 531 L950 531 L950 637 L768 637 Q787 703 800 772 L699 784 Q676 649 623 524 L623 712 L532 712 L532 571 L494 571 L494 787 L408 787 L408 571 L370 571 L370 712 L294 712 Q299 719 304 728 L210 785 Q178 726 138 671 Q91 605 37 545 L118 471 Q206 573 280 687 L280 511 L205 553 Q168 473 120 400 Q79 338 29 285 L77 174 Q103 203 128 235 L128 -89 L230 -89 L230 -47 L308 -95 Q352 -44 380 15 Q391 44 396 75 Q401 110 401 145 L401 180 L477 180 L477 92 Q477 65 459 47 L524 -20 Q539 -3 557 11 Q603 50 652 87 L625 175 L577 136 L577 279 L300 279 L300 167 Q300 134 296 102 Q293 76 284 52 Q265 9 230 -23 L230 384 Q256 428 280 475 L600 475 Q590 457 581 440 L590 426 L268 426 L268 327 L603 327 L603 405 L644 341 Q653 355 661 371 Q676 265 715 166 Q647 51 548 -36 ZM774 300 Q739 410 732 526 Q732 528 734 531 L820 531 Q808 413 774 300 Z" /><glyph glyph-name="uni6027" unicode="&#x6027;" d="M350 385 L460 351 Q486 422 508 496 L609 496 L609 344 L409 344 L409 229 L609 229 L609 50 L357 50 L357 -66 L943 -66 L943 50 L726 50 L726 229 L902 229 L902 344 L726 344 L726 496 L926 496 L926 615 L726 615 L726 789 L609 789 L609 615 L536 615 Q546 667 555 721 L444 735 Q431 649 409 565 Q369 612 330 659 L286 620 L286 792 L175 792 L175 -95 L286 -95 L286 561 Q319 521 350 480 L398 524 Q377 453 350 385 ZM23 286 L123 265 Q153 442 174 622 L74 635 Q64 537 50 440 Q39 362 23 286 Z" /><glyph glyph-name="uni620F" unicode="&#x620f;" d="M655 708 Q722 647 786 582 L637 564 Q636 575 636 588 Q630 686 628 786 L507 786 Q509 691 516 598 L519 550 L420 538 L433 423 L530 435 Q543 307 575 184 Q472 103 357 45 L416 -53 Q520 0 615 70 Q629 39 647 10 Q662 -14 679 -37 Q698 -60 721 -79 Q758 -108 806 -108 Q853 -106 886 -71 Q920 -32 933 19 Q951 85 964 153 L860 196 Q850 138 840 82 Q835 58 825 36 Q819 23 806 22 Q791 22 780 32 Q764 46 753 65 Q726 104 710 150 Q826 261 908 401 L816 462 Q756 358 674 273 Q655 360 647 449 L951 486 L939 600 L823 586 L879 645 Q803 716 723 783 L655 708 ZM62 487 Q134 379 203 270 Q133 131 28 17 L107 -81 Q203 27 275 153 Q305 102 334 52 L430 118 Q383 196 335 273 Q398 424 429 587 L429 706 L73 706 L73 587 L310 587 Q291 487 257 393 Q205 470 153 548 L62 487 Z" /><glyph glyph-name="uni6210" unicode="&#x6210;" d="M659 739 Q702 698 744 657 L629 657 Q623 723 620 791 L504 791 Q509 724 514 657 L121 657 L121 385 Q121 309 115 234 Q111 190 101 147 Q89 96 68 48 Q43 -2 12 -50 L127 -103 Q178 -17 205 79 Q220 136 227 194 Q234 263 236 332 L366 332 Q364 243 357 155 Q355 139 352 125 Q349 115 340 109 Q333 104 323 103 Q304 101 284 102 L220 102 L243 -11 L312 -11 Q343 -11 374 -5 Q394 -1 413 8 L490 -77 Q572 -18 644 52 L661 24 Q680 -7 703 -36 Q720 -58 741 -76 Q772 -101 813 -102 Q860 -103 894 -71 Q913 -50 925 -24 Q936 2 943 31 Q958 95 971 161 L871 193 Q862 139 850 86 Q845 61 835 37 Q831 25 819 23 Q804 25 794 35 Q781 47 772 62 Q745 101 726 145 Q776 210 814 284 Q860 372 893 467 L789 508 Q750 385 683 276 Q652 408 639 543 L928 543 L928 657 L818 657 L859 696 Q799 756 737 813 L659 739 ZM470 123 Q482 283 487 445 L237 445 L237 543 L524 543 Q535 430 557 320 Q572 241 597 165 Q524 90 440 30 Q453 46 459 65 Q467 93 470 123 Z" /><glyph glyph-name="uni624B" unicode="&#x624b;" d="M60 283 L60 167 L446 167 L446 70 Q446 55 443 40 Q441 33 437 27 Q429 20 418 18 Q402 16 385 17 L270 17 L295 -100 L426 -100 Q463 -100 499 -92 Q525 -86 545 -68 Q557 -54 563 -36 Q572 -3 572 30 L572 167 L942 167 L942 283 L572 283 L572 391 L872 391 L872 506 L572 506 L572 632 Q724 642 876 660 L859 777 Q486 733 111 722 L120 606 Q283 612 446 623 L446 506 L129 506 L129 391 L446 391 L446 283 L60 283 Z" /><glyph glyph-name="uni624D" unicode="&#x624d;" d="M34 103 L103 -7 Q242 71 366 173 Q491 277 585 411 L585 95 Q585 76 582 58 Q580 49 575 43 Q565 35 552 33 Q530 31 508 32 L365 32 L391 -92 L538 -92 Q583 -92 627 -83 Q650 -77 670 -64 Q693 -45 702 -17 Q712 20 712 60 L712 503 L935 503 L935 622 L712 622 L712 788 L585 788 L585 622 L79 622 L79 503 L505 503 Q415 374 294 275 Q172 176 34 103 Z" /><glyph glyph-name="uni6267" unicode="&#x6267;" d="M54 23 L77 -92 L162 -92 Q192 -92 223 -86 Q244 -81 260 -67 Q270 -56 275 -41 Q282 -15 282 12 L282 305 L366 338 L355 317 L454 265 Q438 187 400 119 Q377 79 349 43 Q316 2 280 -36 L391 -104 Q458 -29 508 57 Q547 127 565 205 L677 142 L728 243 Q729 185 733 128 Q735 85 742 43 Q748 6 760 -29 Q767 -48 778 -65 Q805 -101 851 -100 Q887 -99 913 -72 Q927 -56 936 -37 Q945 -14 952 9 Q967 71 979 135 L898 168 L883 73 Q880 53 872 36 Q868 26 858 25 Q854 25 851 28 Q848 33 846 38 Q841 53 840 69 Q835 196 836 324 L836 636 L595 636 Q595 713 598 791 L479 791 L479 636 L397 636 L397 525 L477 525 L477 508 Q474 445 470 384 L406 416 L368 343 L359 400 L351 453 L282 425 L282 524 L369 524 L369 635 L282 635 L282 787 L167 787 L167 635 L64 635 L64 524 L167 524 L167 380 Q104 356 42 335 L60 216 L167 260 L167 55 Q168 40 159 29 Q154 25 146 24 Q136 22 126 23 L54 23 ZM593 509 L593 525 L727 525 L727 252 Q656 289 585 326 Q592 417 593 509 Z" /><glyph glyph-name="uni6280" unicode="&#x6280;" d="M428 308 Q471 202 543 114 Q428 48 305 3 L369 -113 Q449 -77 527 -36 Q581 -7 633 26 Q684 -13 741 -44 Q819 -87 901 -124 L945 0 Q885 19 828 44 Q774 67 726 100 Q773 146 809 201 Q853 271 884 348 L884 463 L698 463 L698 561 L925 561 L925 675 L698 675 L698 791 L582 791 L582 675 L385 675 L385 561 L582 561 L582 463 L397 463 L397 351 L508 351 L428 308 ZM58 20 L81 -94 L157 -94 Q187 -94 218 -87 Q240 -81 256 -65 Q267 -52 272 -37 Q280 -8 280 21 L280 274 L385 309 L368 371 L351 432 Q315 418 280 406 L280 512 L361 512 L361 636 L280 636 L280 787 L163 787 L163 636 L64 636 L64 512 L163 512 L163 365 Q94 342 24 324 L60 197 L163 234 L163 63 Q163 51 160 40 Q159 33 153 27 Q138 18 121 20 L58 20 ZM536 351 L758 351 Q717 250 636 180 Q573 257 536 351 Z" /><glyph glyph-name="uni63A7" unicode="&#x63a7;" d="M658 456 Q770 379 878 296 L419 296 Q527 371 623 462 L551 540 Q454 446 340 375 L399 282 L403 284 L403 187 L583 187 L583 42 L335 42 L335 -69 L942 -69 L942 42 L701 42 L701 187 L881 187 L881 293 L901 277 L966 370 Q844 458 721 544 L658 456 ZM48 8 L70 -99 L135 -99 Q169 -99 202 -93 Q225 -88 243 -72 Q254 -60 259 -44 Q267 -15 267 15 L267 291 Q304 305 342 319 L332 357 L314 430 Q290 419 267 410 L267 515 L334 515 L334 629 L267 629 L267 786 L158 786 L158 629 L58 629 L58 515 L158 515 L158 367 Q96 343 35 321 L64 209 L158 248 L158 50 Q158 38 156 27 Q154 19 148 14 Q143 10 136 9 Q123 7 110 8 L48 8 ZM359 692 L359 484 L469 484 L469 583 L830 583 L830 484 L936 484 L936 692 L710 692 Q690 749 668 805 L557 777 L588 692 L359 692 Z" /><glyph glyph-name="uni6444" unicode="&#x6444;" d="M324 754 L324 672 L386 672 L386 395 L331 393 L335 315 L750 332 L750 291 L857 291 L857 337 L946 341 L947 418 L857 414 L857 672 L931 672 L931 754 L324 754 ZM48 1 L69 -104 L137 -104 Q162 -104 188 -100 Q206 -96 222 -86 Q232 -79 239 -69 Q247 -52 250 -33 L311 -117 Q396 -66 469 1 Q497 -21 525 -46 L587 24 L528 69 Q568 122 593 185 L593 268 L312 268 L312 188 L358 188 L308 127 L395 61 Q327 6 250 -33 Q251 -18 252 -3 L252 298 L332 332 L318 396 L307 441 L252 416 L252 516 L333 516 L333 628 L252 628 L252 777 L146 777 L146 628 L60 628 L60 516 L146 516 L146 369 L39 324 L57 209 L146 250 L146 34 Q147 18 136 7 Q122 0 107 1 L48 1 ZM536 -34 L587 -121 Q676 -81 756 -23 Q830 -80 919 -116 L962 -25 Q889 -1 825 38 Q886 102 920 185 L920 268 L615 268 L615 188 L679 188 L614 159 Q643 94 689 41 Q616 -3 536 -34 ZM492 447 L750 447 L750 410 L492 399 L492 447 ZM492 558 L750 558 L750 521 L492 521 L492 558 ZM492 672 L750 672 L750 636 L492 636 L492 672 ZM698 188 L820 188 Q796 136 758 96 Q721 138 698 188 ZM497 188 Q479 152 455 122 Q408 156 360 188 L497 188 Z" /><glyph glyph-name="uni6539" unicode="&#x6539;" d="M362 -12 L437 -117 Q512 -71 582 -19 Q634 20 681 68 Q777 -35 897 -113 L972 -8 Q912 26 857 67 Q803 109 757 160 Q806 233 835 316 Q871 425 886 539 L951 539 L951 657 L659 657 Q680 714 696 773 L576 799 Q555 697 512 601 Q474 515 422 438 L422 732 L90 732 L90 614 L305 614 L305 437 L91 437 L91 77 Q89 46 69 23 L130 -80 Q157 -62 186 -49 Q314 13 445 71 L425 187 Q318 139 213 91 L213 320 L422 320 L422 410 L487 338 L515 376 Q545 261 609 162 Q556 110 496 68 Q431 24 362 -12 ZM685 257 Q653 310 633 368 Q609 440 598 516 L609 539 L772 539 Q761 456 738 377 Q718 314 685 257 Z" /><glyph glyph-name="uni661F" unicode="&#x661f;" d="M46 181 L130 108 Q160 139 189 174 L189 88 L443 88 L443 24 L72 24 L72 -70 L915 -70 L915 24 L565 24 L565 88 L848 88 L848 179 L565 179 L565 233 L883 233 L883 327 L565 327 L565 382 L443 382 L443 327 L296 327 L320 370 L216 402 L842 402 L842 764 L147 764 L147 402 L209 402 Q144 278 46 181 ZM265 670 L725 670 L725 625 L265 625 L265 670 ZM265 492 L265 537 L725 537 L725 492 L265 492 ZM234 233 L443 233 L443 179 L193 179 Q214 205 234 233 Z" /><glyph glyph-name="uni6700" unicode="&#x6700;" d="M539 203 Q576 125 636 62 Q591 32 544 9 L540 89 Q516 85 492 83 L492 354 L948 354 L948 435 L53 435 L53 354 L129 354 L129 38 L58 30 L67 -60 Q226 -37 386 -19 L386 -99 L492 -99 L492 -6 L516 -3 L505 -8 L555 -104 Q639 -62 713 -5 Q807 -68 914 -107 L961 -2 Q873 25 793 70 Q857 140 901 226 L901 319 L527 319 L527 231 L598 231 L539 203 ZM164 772 L164 472 L837 472 L837 772 L164 772 ZM275 549 L275 585 L726 585 L726 549 L275 549 ZM275 689 L726 689 L726 654 L275 654 L275 689 ZM784 231 Q754 175 712 129 Q664 173 635 231 L784 231 ZM237 51 L237 111 L386 111 L386 70 L237 51 ZM237 354 L386 354 L386 311 L237 311 L237 354 ZM237 229 L386 229 L386 187 L237 187 L237 229 Z" /><glyph glyph-name="uni6709" unicode="&#x6709;" d="M33 324 L89 208 Q151 255 208 310 L208 -101 L324 -101 L324 78 L733 78 L733 60 Q733 46 730 33 Q728 23 721 17 Q715 12 707 10 Q692 7 676 8 L559 8 L580 -97 L717 -97 Q750 -97 782 -89 Q800 -84 815 -73 Q834 -58 842 -36 Q850 -7 850 22 L850 519 L381 519 Q403 553 423 589 L944 589 L944 698 L479 698 L515 782 L388 797 Q370 746 346 698 L75 698 L75 589 L283 589 Q179 436 33 324 ZM324 250 L733 250 L733 177 L324 177 L324 250 ZM324 416 L733 416 L733 348 L324 348 L324 416 Z" /><glyph glyph-name="uni671F" unicode="&#x671f;" d="M48 234 L48 136 L194 136 Q126 47 39 -21 L119 -102 Q213 -16 291 84 L225 136 L364 136 L308 81 Q368 26 424 -32 L496 46 Q447 92 397 136 L535 136 L535 234 L479 234 L479 603 L538 603 L538 700 L479 700 L479 781 L376 781 L376 700 L233 700 L233 781 L129 781 L129 700 L73 700 L73 603 L129 603 L129 234 L48 234 ZM453 -44 L554 -112 Q604 -42 635 36 Q659 106 666 181 L811 181 L811 62 Q811 49 808 38 Q806 29 799 23 Q781 14 760 16 L675 16 L697 -92 L782 -92 Q815 -92 847 -85 Q870 -78 887 -61 Q898 -46 903 -29 Q911 2 911 36 L911 750 L570 750 L570 420 Q570 331 566 244 Q563 183 548 125 Q537 88 519 54 Q490 2 453 -44 ZM673 365 L673 411 L811 411 L811 287 L672 287 Q672 325 673 365 ZM673 638 L811 638 L811 515 L673 515 L673 638 ZM233 448 L376 448 L376 388 L233 388 L233 448 ZM233 293 L376 293 L376 234 L233 234 L233 293 ZM233 603 L376 603 L376 544 L233 544 L233 603 Z" /><glyph glyph-name="uni672F" unicode="&#x672f;" d="M26 94 L105 -22 Q209 56 300 150 Q375 228 436 317 L436 -93 L559 -93 L559 316 Q620 226 696 150 Q790 58 897 -18 L968 103 Q853 177 755 271 Q656 368 587 489 L919 489 L919 612 L768 612 L824 671 Q751 733 680 796 L605 718 Q664 666 721 612 L559 612 L559 788 L436 788 L436 612 L81 612 L81 489 L406 489 Q334 367 235 266 Q139 170 26 94 Z" /><glyph glyph-name="uni673A" unicode="&#x673a;" d="M60 624 L60 512 L175 512 Q146 433 107 358 Q71 285 24 219 L83 113 Q137 187 181 269 L181 -96 L294 -96 L294 323 Q335 277 375 230 L440 290 Q438 234 430 180 Q424 147 414 116 Q399 76 374 41 Q344 0 309 -36 L413 -102 Q458 -53 494 3 Q516 43 530 85 Q548 150 553 217 Q559 306 559 397 L559 624 L692 624 L692 27 Q691 -1 698 -29 Q702 -44 711 -57 Q723 -72 742 -78 Q765 -85 790 -85 L845 -85 Q873 -85 901 -79 Q921 -74 936 -60 Q946 -48 951 -34 Q959 -7 960 21 Q962 115 964 210 L854 230 L850 69 Q849 52 846 36 Q841 28 832 30 L830 30 Q823 29 817 30 Q812 31 809 35 Q804 47 806 60 L806 742 L442 742 L442 398 Q442 356 441 316 Q381 383 320 449 L294 425 L294 512 L411 512 L411 624 L294 624 L294 787 L181 787 L181 624 L60 624 Z" /><glyph glyph-name="uni6765" unicode="&#x6765;" d="M38 55 L97 -61 Q200 -14 296 46 Q373 97 440 161 L440 -99 L557 -99 L557 168 Q623 104 699 53 Q796 -8 901 -55 L958 58 Q848 100 749 161 Q670 210 604 275 L933 275 L933 386 L719 386 Q783 459 844 537 L785 585 L894 585 L894 698 L557 698 L557 792 L440 792 L440 698 L103 698 L103 585 L217 585 L155 534 Q218 461 279 386 L65 386 L65 275 L394 275 Q327 210 248 160 Q147 98 38 55 ZM612 441 L672 386 L557 386 L557 585 L735 585 Q677 509 612 441 ZM384 445 Q325 515 265 585 L440 585 L440 386 L316 386 L384 445 Z" /><glyph glyph-name="uni677F" unicode="&#x677f;" d="M72 626 L72 517 L167 517 Q112 362 25 225 L101 135 Q143 202 175 277 L175 -99 L281 -99 L281 358 Q314 317 348 277 L412 340 Q406 237 378 139 Q346 42 286 -40 L389 -103 Q412 -64 434 -24 L488 -109 Q601 -46 698 39 Q737 0 781 -32 Q839 -75 902 -114 L963 -7 Q904 23 849 60 Q808 88 773 122 Q817 180 847 246 Q885 330 908 420 L908 529 L524 529 L524 613 Q721 629 916 667 L892 778 Q655 732 415 717 L415 461 Q415 404 412 348 Q363 407 313 466 L281 436 L281 517 L383 517 L383 626 L281 626 L281 788 L175 788 L175 626 L72 626 ZM524 420 L793 420 Q777 359 753 302 Q731 253 700 211 Q675 251 658 294 Q635 352 621 412 L523 382 Q523 400 524 420 ZM522 369 Q538 297 567 229 Q590 176 623 128 Q542 60 450 10 Q482 82 498 160 Q519 263 522 369 Z" /><glyph glyph-name="uni6781" unicode="&#x6781;" d="M23 225 L78 112 Q129 191 169 278 L169 -100 L278 -100 L278 -10 L364 -73 Q386 -41 407 -10 L470 -108 Q538 -67 603 -19 Q652 17 697 60 Q794 -32 909 -103 L971 0 Q861 56 770 139 Q811 191 843 250 Q882 323 911 401 L911 506 L785 506 L858 643 L858 750 L381 750 L381 642 L453 642 L448 500 Q444 420 433 342 Q423 275 401 211 Q384 164 360 119 Q323 53 278 -6 L278 336 L344 253 L420 322 Q360 390 303 459 L278 436 L278 515 L385 515 L385 615 L278 615 L278 788 L169 788 L169 615 L60 615 L60 515 L166 515 Q140 439 105 366 Q70 292 23 225 ZM557 642 L743 642 L666 496 L666 401 L799 401 Q761 301 696 218 Q642 286 607 365 Q573 443 553 527 L557 642 ZM532 299 Q568 213 625 141 Q583 102 536 70 Q474 28 409 -7 Q502 133 532 299 Z" /><glyph glyph-name="uni6B4C" unicode="&#x6b4c;" d="M272 -6 L292 -95 L379 -95 Q423 -96 465 -82 Q490 -71 502 -46 L554 -110 Q618 -50 667 22 Q706 82 731 150 Q784 7 892 -101 L971 -19 Q925 21 886 69 Q851 113 825 164 Q781 259 773 364 Q774 395 775 427 Q776 475 776 524 L682 524 Q682 471 681 419 Q680 353 669 289 Q658 231 636 176 Q591 77 512 1 Q512 13 513 26 L513 293 L582 293 L582 383 L42 383 L42 293 L407 293 L407 56 Q407 40 405 25 Q403 14 396 6 Q390 0 383 -2 Q369 -6 354 -6 L272 -6 ZM526 457 L605 385 Q657 471 693 566 L847 566 Q816 496 785 428 L879 393 Q917 477 953 564 L953 666 L729 666 Q748 724 763 785 L661 803 Q618 620 526 457 ZM57 761 L57 664 L407 664 L407 404 L513 404 L513 664 L568 664 L568 761 L57 761 ZM83 247 L83 -20 L177 -20 L177 27 L356 27 L356 247 L83 247 ZM86 620 L86 424 L358 424 L358 620 L86 620 ZM177 167 L261 167 L261 109 L177 109 L177 167 ZM181 545 L263 545 L263 501 L181 501 L181 545 Z" /><glyph glyph-name="uni6BB5" unicode="&#x6bb5;" d="M466 281 Q506 180 579 100 Q471 41 356 0 L414 -108 Q546 -55 665 23 Q713 -12 766 -41 Q835 -77 907 -107 L960 4 Q896 24 835 49 Q792 67 752 91 Q847 180 896 302 L896 411 L517 411 Q561 449 590 499 Q615 550 614 608 L614 653 L736 653 L736 528 Q735 508 740 489 Q744 470 758 455 Q772 442 791 437 Q814 431 838 432 L927 432 L947 537 L875 537 Q865 536 855 538 Q850 539 847 543 Q842 548 842 554 Q840 565 841 576 L841 760 L508 760 L508 644 Q508 614 504 585 Q501 562 491 541 Q483 525 471 511 Q451 487 427 468 L427 566 L230 566 L230 644 Q349 657 467 685 L437 792 Q281 753 122 742 L122 157 Q84 151 46 149 L59 37 Q90 41 122 46 L122 -99 L230 -99 L230 61 Q341 76 453 89 L453 150 L452 200 Q341 184 230 170 L230 270 L427 270 L427 376 L230 376 L230 460 L427 460 L427 466 L492 411 L450 411 L450 306 L523 306 L466 281 ZM573 306 L777 306 Q737 219 664 159 Q604 223 573 306 Z" /><glyph glyph-name="uni6C7D" unicode="&#x6c7d;" d="M271 485 L368 409 Q399 448 427 490 L427 445 L862 445 L862 553 L466 553 L493 603 L919 603 L919 710 L545 710 Q559 743 573 777 L453 804 Q392 627 271 485 ZM335 393 L335 289 L697 289 L697 207 Q696 127 709 49 Q717 -1 740 -48 Q756 -80 787 -99 Q812 -114 843 -115 Q870 -114 891 -97 Q917 -72 930 -38 Q960 36 974 115 L878 158 Q871 113 861 69 Q857 51 850 36 Q846 26 837 26 Q828 26 826 35 Q820 54 819 74 Q813 102 812 131 Q810 180 811 229 L811 393 L335 393 ZM308 229 L251 256 L201 281 Q165 190 125 101 Q94 27 59 -44 L171 -97 Q235 67 308 229 ZM32 471 Q126 400 220 328 L289 424 L100 563 L32 471 ZM93 695 Q181 629 269 562 L335 657 Q247 723 159 788 L93 695 Z" /><glyph glyph-name="uni6CE8" unicode="&#x6ce8;" d="M518 767 Q552 706 584 645 L333 645 L333 531 L555 531 L555 360 L342 360 L342 246 L555 246 L555 45 L279 45 L279 -68 L945 -68 L945 45 L673 45 L673 246 L888 246 L888 360 L673 360 L673 531 L920 531 L920 645 L652 645 L701 667 Q661 740 618 812 L518 767 ZM309 231 L254 253 L197 277 Q161 186 121 97 Q88 22 50 -50 L165 -97 L309 231 ZM33 460 Q132 389 230 316 L298 417 Q200 487 100 555 L33 460 ZM88 684 Q180 618 271 552 L336 650 Q244 714 153 778 L88 684 Z" /><glyph glyph-name="uni6D3B" unicode="&#x6d3b;" d="M349 298 L349 -97 L470 -97 L470 -65 L767 -65 L767 -97 L889 -97 L889 298 L679 298 L679 401 L943 401 L943 516 L679 516 L679 633 Q787 641 896 658 L874 768 Q610 730 344 723 L351 612 Q454 615 557 623 L557 516 L315 516 L315 401 L557 401 L557 298 L349 298 ZM305 237 L242 257 L189 275 Q128 111 62 -49 L177 -89 Q242 73 305 237 ZM470 184 L767 184 L767 48 L470 48 L470 184 ZM29 460 Q128 387 227 313 L297 412 Q197 484 97 555 L29 460 ZM79 681 Q174 616 265 546 L331 642 Q238 709 145 775 L79 681 Z" /><glyph glyph-name="uni6E38" unicode="&#x6e38;" d="M186 -50 L281 -105 Q325 -43 358 25 L381 -86 L455 -86 Q481 -86 507 -79 Q522 -74 535 -65 Q550 -50 557 -30 Q564 -3 566 24 Q573 238 580 453 L422 453 L424 546 L572 546 L546 506 L622 440 L640 466 L640 412 L790 412 L716 342 L716 292 L598 292 L598 180 L716 180 L716 58 Q716 45 714 33 Q711 25 705 20 Q698 17 691 15 Q676 13 661 14 L608 14 L629 -97 L714 -97 Q741 -97 768 -91 Q788 -86 801 -70 Q810 -57 814 -42 Q820 -13 820 17 L820 180 L950 180 L950 292 L820 292 L820 315 L918 410 L918 521 L673 521 Q688 547 702 575 L946 575 L946 689 L753 689 Q770 732 785 777 L680 792 Q646 677 588 574 L588 655 L507 655 Q485 727 463 799 L352 780 Q370 717 389 655 L273 655 L277 660 Q204 720 129 777 L62 690 Q136 630 208 568 L262 640 L262 546 L317 546 Q314 480 314 415 Q311 337 304 259 Q298 198 282 138 Q270 97 252 58 Q223 1 186 -50 ZM258 260 L212 275 L145 297 Q88 116 25 -61 L139 -96 Q195 82 258 260 ZM28 472 Q109 407 189 340 L260 437 Q180 503 97 564 L28 472 ZM420 340 L478 340 Q473 206 466 74 Q465 70 465 67 Q465 54 462 42 Q461 37 457 33 Q452 29 446 28 Q436 26 427 27 L359 27 Q389 96 402 171 Q416 255 420 340 Z" /><glyph glyph-name="uni6ED1" unicode="&#x6ed1;" d="M362 764 L362 496 L294 496 L294 303 L375 303 L375 -95 L482 -95 L482 46 L745 46 Q746 26 736 10 Q730 4 722 2 Q710 0 699 0 L625 0 L648 -96 L729 -96 Q760 -96 791 -89 Q807 -84 821 -74 Q838 -59 844 -38 Q851 -10 851 18 L851 303 L938 303 L938 496 L859 496 L859 764 L362 764 ZM274 257 L220 271 L155 287 Q136 207 114 128 Q88 37 59 -53 L181 -85 Q225 86 274 257 ZM30 467 Q120 401 205 329 L276 428 Q187 496 96 561 L30 467 ZM73 691 Q163 626 250 556 L319 649 Q231 714 144 780 L73 691 ZM475 676 L747 676 L747 496 L676 496 L676 630 L475 630 L475 676 ZM390 412 L841 412 L841 367 L390 367 L390 412 ZM482 165 L745 165 L745 124 L482 124 L482 165 ZM482 285 L745 285 L745 244 L482 244 L482 285 ZM576 549 L576 496 L475 496 L475 549 L576 549 Z" /><glyph glyph-name="uni7167" unicode="&#x7167;" d="M444 758 L444 659 L538 659 Q528 611 499 573 Q479 551 455 534 Q431 518 405 505 L405 752 L95 752 L95 163 L405 163 L405 479 L446 404 L456 409 L456 149 L809 149 L730 108 Q769 43 807 -22 Q830 -63 850 -106 L958 -49 Q899 52 833 149 L896 149 L896 431 L492 431 Q523 450 552 474 Q577 495 596 521 Q629 567 641 623 Q645 640 649 659 L801 659 Q797 630 795 601 Q794 588 791 576 Q788 569 783 564 Q774 558 763 556 Q747 554 731 555 L640 555 L657 466 L760 466 Q792 465 823 471 Q846 475 865 489 Q877 500 884 515 Q895 541 897 569 Q905 663 912 758 L444 758 ZM37 -64 L149 -115 Q214 -6 256 114 L154 151 Q106 37 37 -64 ZM308 106 Q312 87 316 69 Q337 -10 348 -93 L464 -72 Q440 27 414 126 L308 106 ZM523 107 Q564 12 593 -87 L702 -56 Q666 42 622 136 L523 107 ZM562 342 L793 342 L793 248 L562 248 L562 342 ZM201 649 L299 649 L299 508 L201 508 L201 649 ZM201 268 L201 409 L299 409 L299 268 L201 268 Z" /><glyph glyph-name="uni71C3" unicode="&#x71c3;" d="M283 414 L350 343 L371 374 L433 325 Q380 254 313 199 L381 132 L365 86 Q312 166 255 243 L244 235 Q259 354 259 475 L299 451 Q339 543 371 639 L303 669 Q283 610 259 554 L259 784 L159 784 L159 405 Q136 518 112 631 L30 615 Q58 478 83 342 L158 360 Q156 261 128 166 Q111 117 87 70 Q59 16 26 -35 L126 -98 Q189 10 223 131 Q259 78 293 25 L363 80 Q335 5 302 -66 L399 -106 Q448 6 480 126 L415 145 Q492 224 550 319 Q607 419 636 532 L636 462 L694 462 Q684 389 643 329 Q595 263 530 214 L593 133 Q653 177 700 235 Q736 281 759 335 Q798 237 869 161 L778 130 Q826 23 862 -89 L962 -58 Q919 51 871 159 Q885 143 901 130 L973 216 Q853 313 810 462 L942 462 L942 566 L797 566 L797 577 Q796 634 796 692 L858 574 L940 615 L859 761 L795 729 L795 784 L699 784 Q699 679 700 575 L700 566 L644 566 L653 603 L653 704 L522 704 L540 766 L451 787 Q424 683 381 585 Q341 494 283 414 ZM636 133 Q665 33 681 -70 L778 -53 Q755 48 727 149 L636 133 ZM492 131 Q508 28 517 -74 L615 -65 L584 142 L492 131 ZM555 603 Q546 562 535 523 Q503 543 473 566 L488 603 L555 603 ZM479 394 Q447 420 415 447 Q426 467 437 489 Q470 465 504 442 Q492 417 479 394 Z" /><glyph glyph-name="uni724C" unicode="&#x724c;" d="M437 199 L467 157 L392 157 L392 54 L638 54 L638 -95 L752 -95 L752 54 L949 54 L949 157 L752 157 L752 235 L638 235 L638 157 L551 157 Q613 200 656 263 L907 263 L907 711 L699 711 Q712 746 725 782 L607 796 Q593 752 576 711 L423 711 L423 263 L533 263 Q488 225 437 199 ZM21 -62 L126 -110 Q161 -34 179 46 Q195 130 198 215 L266 215 L266 -92 L365 -92 L365 326 L201 326 L201 404 L400 404 L400 517 L356 517 L356 767 L259 767 L259 517 L201 517 L201 749 L98 749 L98 376 Q98 296 94 216 Q91 173 85 130 Q77 82 61 35 Q43 -13 21 -62 ZM699 363 Q708 400 712 438 L804 438 L804 363 L699 363 ZM804 610 L804 536 L715 536 L715 610 L804 610 ZM528 610 L616 610 L616 536 L528 536 L528 610 ZM600 363 L528 363 L528 438 L613 438 Q610 399 600 363 Z" /><glyph glyph-name="uni753B" unicode="&#x753b;" d="M265 593 L265 112 L734 112 L734 593 L265 593 ZM787 589 L787 53 L212 53 L212 588 L96 588 L96 -58 L787 -58 L787 -90 L902 -90 L902 589 L787 589 ZM62 751 L62 643 L938 643 L938 751 L62 751 ZM372 306 L448 306 L448 212 L372 212 L372 306 ZM552 212 L552 306 L627 306 L627 212 L552 212 ZM372 492 L448 492 L448 401 L372 401 L372 492 ZM627 492 L627 401 L552 401 L552 492 L627 492 Z" /><glyph glyph-name="uni7684" unicode="&#x7684;" d="M82 665 L82 -94 L196 -94 L196 -53 L467 -53 L467 468 L546 418 Q583 478 613 543 L806 543 L793 103 Q792 82 787 63 Q784 52 777 45 Q766 35 751 32 Q729 29 708 30 L592 30 L615 -88 L746 -88 Q785 -88 823 -80 Q851 -73 873 -54 Q887 -40 895 -21 Q907 10 908 45 L928 662 L662 662 Q683 723 701 787 L585 813 Q547 658 467 520 L467 665 L320 665 Q337 724 351 785 L227 806 Q212 734 192 665 L82 665 ZM196 65 L196 251 L353 251 L353 65 L196 65 ZM511 389 Q586 290 655 187 L755 252 Q677 355 599 457 L511 389 ZM196 547 L353 547 L353 368 L196 368 L196 547 Z" /><glyph glyph-name="uni795E" unicode="&#x795e;" d="M24 254 L83 146 Q127 188 167 236 L167 -92 L278 -92 L278 282 Q315 252 351 221 L381 257 L381 71 L486 71 L486 114 L596 114 L596 -93 L705 -93 L705 114 L814 114 L814 71 L918 71 L918 670 L705 670 L705 790 L596 790 L596 670 L381 670 L381 338 L288 411 Q317 463 344 518 L344 634 L273 634 L297 640 Q272 719 246 798 L137 772 Q162 703 183 634 L73 634 L73 517 L218 517 Q183 442 133 375 Q83 310 24 254 ZM486 562 L596 562 L596 446 L486 446 L486 562 ZM486 339 L596 339 L596 223 L486 223 L486 339 ZM705 339 L814 339 L814 223 L705 223 L705 339 ZM814 562 L814 446 L705 446 L705 562 L814 562 Z" /><glyph glyph-name="uni79F0" unicode="&#x79f0;" d="M57 717 L68 611 Q118 617 169 625 L169 536 L56 536 L56 429 L166 429 Q109 288 25 163 L89 66 Q135 134 169 209 L169 -98 L274 -98 L274 255 Q302 226 331 197 L403 278 L274 398 L274 429 L368 429 L368 449 L453 406 Q498 483 533 567 L815 567 L753 455 L857 417 L939 567 L939 677 L576 677 Q592 722 605 769 L493 787 Q450 626 368 483 L368 536 L274 536 L274 642 Q331 651 388 665 L371 771 Q215 735 57 717 ZM461 14 L484 -97 L583 -97 Q612 -97 641 -90 Q662 -84 678 -68 Q689 -56 695 -40 Q703 -13 703 15 L703 508 L590 508 L590 56 Q590 45 587 34 Q585 26 578 21 Q560 12 539 14 L461 14 ZM293 33 L396 -14 Q494 156 552 345 L450 376 Q418 277 374 184 Q338 106 293 33 ZM723 332 Q801 162 876 -10 L974 37 L818 376 L723 332 Z" /><glyph glyph-name="uni7ECF" unicode="&#x7ecf;" d="M354 404 L415 301 Q548 357 666 442 Q785 374 903 303 L970 404 Q866 462 761 517 Q825 573 881 639 L881 744 L421 744 L421 632 L724 632 Q697 605 667 582 Q621 546 571 516 Q466 452 354 404 ZM426 305 L426 195 L600 195 L600 44 L381 44 L381 -66 L942 -66 L942 44 L713 44 L713 195 L888 195 L888 305 L426 305 ZM70 265 L96 154 L140 162 Q259 180 380 196 L379 310 Q307 296 235 286 Q255 308 273 332 Q302 372 329 413 Q383 493 430 577 L334 627 Q304 575 274 524 Q231 521 188 520 Q224 562 251 610 Q290 677 322 749 L219 791 Q188 719 151 652 Q121 595 84 543 Q69 521 46 510 L73 404 Q89 407 107 409 Q156 411 205 416 Q167 356 124 302 Q103 273 70 265 ZM365 -1 L362 62 L360 113 Q200 85 40 63 L53 -50 Q208 -24 365 -1 Z" /><glyph glyph-name="uni7ED8" unicode="&#x7ed8;" d="M47 521 L72 410 Q88 413 106 416 L201 424 Q167 370 130 320 Q118 303 103 290 Q88 281 72 277 L98 158 Q117 163 138 166 Q249 186 362 201 L360 309 L227 286 Q255 317 278 353 Q320 416 359 481 L416 400 Q441 419 466 440 L466 380 L817 380 L817 459 Q855 427 897 401 L956 499 Q784 609 696 794 L603 794 Q523 620 372 504 Q397 547 421 592 L329 641 Q299 586 268 533 L184 529 Q195 540 204 553 Q224 580 241 610 Q283 679 319 752 L217 796 Q185 722 147 651 Q129 617 109 585 Q97 565 83 548 Q67 530 47 521 ZM381 32 L407 -64 Q431 -60 457 -59 Q631 -48 807 -41 L842 -95 L932 -32 Q858 81 782 193 L691 140 L744 56 L522 47 Q547 70 566 100 Q598 148 626 199 L921 199 L921 301 L384 301 L384 199 L503 199 Q464 133 420 71 Q404 47 381 32 ZM380 6 L372 67 L365 124 Q204 86 43 58 L61 -60 L380 6 ZM650 654 Q706 555 792 481 L511 481 Q553 522 590 567 Q623 608 650 654 Z" /><glyph glyph-name="uni81EA" unicode="&#x81ea;" d="M137 692 L137 -91 L259 -91 L259 -49 L742 -49 L742 -88 L864 -88 L864 692 L525 692 Q544 737 562 784 L423 804 Q404 747 382 692 L137 692 ZM259 163 L742 163 L742 64 L259 64 L259 163 ZM259 578 L742 578 L742 481 L259 481 L259 578 ZM259 370 L742 370 L742 275 L259 275 L259 370 Z" /><glyph glyph-name="uni821E" unicode="&#x821e;" d="M40 131 L104 58 Q136 84 166 114 L247 53 Q162 -3 68 -42 L138 -124 Q247 -71 340 6 Q424 79 480 176 L480 265 L285 265 L305 298 L238 319 L945 319 L945 413 L814 413 L814 481 L913 481 L913 570 L814 570 L814 639 L925 639 L925 733 L284 733 L315 777 L217 821 Q189 774 152 735 Q102 683 45 640 L110 570 L102 570 L102 481 L215 481 L215 413 L59 413 L59 319 L205 319 Q140 209 40 131 ZM480 81 L480 9 L690 9 L690 -96 L795 -96 L795 9 L948 9 L948 99 L795 99 L795 171 L937 171 L937 260 L795 260 L795 318 L690 318 L690 260 L509 260 L509 171 L690 171 L690 99 L586 99 L603 151 L507 160 L480 81 ZM309 639 L384 639 L384 570 L309 570 L309 639 ZM645 639 L720 639 L720 570 L645 570 L645 639 ZM374 176 Q349 138 317 109 L225 176 L374 176 ZM309 481 L384 481 L384 413 L309 413 L309 481 ZM645 481 L720 481 L720 413 L645 413 L645 481 ZM478 639 L551 639 L551 570 L478 570 L478 639 ZM478 481 L551 481 L551 413 L478 413 L478 481 ZM207 639 L215 639 L215 570 L134 570 Q173 601 207 639 Z" /><glyph glyph-name="uni827A" unicode="&#x827a;" d="M824 387 L824 498 L163 498 L163 387 L598 387 Q496 341 397 290 Q304 243 218 185 Q189 164 162 141 Q142 122 125 100 Q112 83 104 64 Q98 47 98 30 Q97 4 106 -19 Q116 -41 135 -55 Q160 -70 188 -76 Q217 -80 246 -81 L730 -81 Q775 -81 820 -73 Q844 -68 866 -56 Q890 -40 903 -13 Q915 18 918 54 Q924 121 928 190 L804 218 L797 97 Q796 78 790 60 Q786 48 775 40 Q765 34 754 32 Q732 28 710 29 L284 29 Q267 28 252 33 Q243 37 243 47 Q243 53 246 59 Q253 68 262 76 Q305 111 353 138 Q456 198 561 253 Q692 321 824 387 ZM61 706 L61 595 L287 595 L287 527 L404 527 L404 595 L594 595 L594 527 L709 527 L709 595 L935 595 L935 706 L709 706 L709 790 L594 790 L594 706 L404 706 L404 790 L287 790 L287 706 L61 706 Z" /><glyph glyph-name="uni840C" unicode="&#x840c;" d="M324 -43 L406 -122 Q443 -93 478 -60 Q506 -33 529 -2 Q566 51 579 115 L782 115 L782 48 Q782 35 779 23 Q777 17 773 13 Q766 7 757 5 Q743 3 730 4 L626 4 L646 -94 L755 -94 Q789 -94 822 -87 Q840 -82 854 -72 Q871 -57 878 -35 Q885 -6 885 23 L885 552 L487 552 L487 300 Q487 251 485 202 Q483 166 476 130 Q464 78 427 40 L427 541 L108 541 L108 -13 L212 -13 L212 25 L412 25 Q370 -12 324 -43 ZM59 723 L59 619 L287 619 L287 577 L403 577 L403 619 L601 619 L601 577 L715 577 L715 619 L943 619 L943 723 L715 723 L715 791 L601 791 L601 723 L403 723 L403 791 L287 791 L287 723 L59 723 ZM590 452 L782 452 L782 376 L590 376 L590 452 ZM590 259 L590 282 L782 282 L782 209 L589 209 Q589 233 590 259 ZM212 125 L212 235 L324 235 L324 125 L212 125 ZM212 440 L324 440 L324 334 L212 334 L212 440 Z" /><glyph glyph-name="uni8857" unicode="&#x8857;" d="M428 790 L428 681 L313 681 L313 577 L428 577 L428 488 L304 488 Q311 499 317 512 L228 571 Q191 500 144 435 Q90 358 27 290 L69 168 Q102 202 133 239 L133 -111 L241 -111 L241 384 Q270 428 297 474 L297 381 L661 381 L661 488 L538 488 L538 577 L651 577 L651 681 L538 681 L538 790 L428 790 ZM274 79 L283 -29 Q481 -8 680 8 L675 112 Q606 104 538 99 L538 181 L658 181 L658 286 L538 286 L538 352 L428 352 L428 286 L309 286 L309 181 L428 181 L428 90 L274 79 ZM653 -20 L674 -108 L752 -108 Q785 -108 817 -101 Q840 -96 857 -80 Q868 -67 873 -52 Q881 -24 881 5 L881 389 L947 389 L947 500 L683 500 L683 389 L766 389 L766 52 Q767 23 755 -1 Q748 -11 736 -16 Q725 -19 714 -20 L653 -20 ZM42 581 L81 461 Q143 514 197 576 Q259 648 311 727 L220 790 Q144 674 42 581 ZM686 735 L686 623 L931 623 L931 735 L686 735 Z" /><glyph glyph-name="uni88C5" unicode="&#x88c5;" d="M33 86 L78 -22 Q184 19 287 72 L287 20 Q288 2 281 -14 Q272 -26 257 -33 L294 -120 Q328 -108 363 -98 Q474 -64 586 -34 L577 66 Q645 3 728 -35 Q816 -77 910 -102 L961 6 Q845 31 741 86 Q804 123 866 164 L809 237 L929 237 L929 339 L580 339 L542 412 L898 412 L898 506 L720 506 L720 595 L930 595 L930 689 L720 689 L720 790 L611 790 L611 689 L429 689 L429 595 L611 595 L611 506 L439 506 L439 412 L489 412 L427 391 Q441 365 455 339 L72 339 L72 237 L358 237 Q284 188 204 152 Q120 114 33 86 ZM296 790 L296 597 Q180 541 64 490 L110 394 Q202 441 296 487 L296 383 L406 383 L406 790 L296 790 ZM571 72 L398 15 L398 137 Q437 164 474 194 Q515 127 571 72 ZM87 701 Q150 640 210 575 L285 641 Q223 705 157 766 L87 701 ZM650 148 Q604 187 570 237 L787 237 Q720 189 650 148 Z" /><glyph glyph-name="uni89C6" unicode="&#x89c6;" d="M408 758 L408 308 L293 401 Q331 459 364 522 L364 638 L64 638 L64 522 L237 522 Q155 371 23 264 L76 152 Q119 191 160 234 L160 -94 L269 -94 L269 282 Q312 245 353 207 L408 276 L408 191 L518 191 L518 646 L780 646 L780 193 L890 193 L890 758 L408 758 ZM300 -24 L372 -123 Q456 -71 529 -6 Q582 42 622 102 L622 26 Q621 -2 628 -30 Q633 -46 644 -59 Q658 -75 679 -81 Q705 -88 733 -88 L822 -88 Q853 -88 885 -82 Q907 -76 924 -61 Q935 -48 940 -32 Q949 -3 950 26 Q952 96 956 167 L849 192 Q849 128 849 66 Q848 53 845 42 Q844 36 840 31 Q834 25 825 24 Q813 22 800 23 L779 23 Q766 22 753 24 Q745 25 739 31 Q735 36 733 42 Q731 54 732 67 L732 265 L686 265 Q699 334 700 406 Q702 506 703 608 L588 608 Q587 513 584 420 Q580 342 564 267 Q550 204 514 150 Q484 108 445 74 Q377 19 300 -24 ZM131 780 Q156 710 178 639 L290 662 Q267 734 240 806 L131 780 Z" /><glyph glyph-name="uni8BF7" unicode="&#x8bf7;" d="M366 359 L366 -95 L473 -95 L473 40 L773 40 L773 28 Q773 17 771 6 Q770 2 767 -1 Q763 -4 757 -5 Q744 -7 732 -7 L644 -7 L661 -93 L765 -93 Q793 -93 821 -87 Q842 -82 858 -67 Q868 -56 873 -42 Q881 -17 881 9 L881 359 L366 359 ZM568 785 L568 714 L338 714 L338 630 L568 630 L568 594 L368 594 L368 514 L568 514 L568 478 L307 478 L307 396 L948 396 L948 478 L678 478 L678 514 L893 514 L893 594 L678 594 L678 630 L917 630 L917 714 L678 714 L678 785 L568 785 ZM52 493 L52 384 L151 384 L151 68 Q153 31 130 5 L201 -80 L244 -39 Q302 13 364 63 L320 169 Q290 142 261 117 L261 493 L52 493 ZM96 715 Q158 627 217 537 L315 601 Q254 689 190 776 L96 715 ZM473 161 L773 161 L773 124 L473 124 L473 161 ZM473 278 L773 278 L773 241 L473 241 L473 278 Z" /><glyph glyph-name="uni8D5B" unicode="&#x8d5b;" d="M79 721 L79 549 L180 549 L180 510 L311 510 L311 473 L166 473 L166 406 L311 406 L311 369 L74 369 L74 297 L264 297 Q213 258 156 229 Q97 200 35 179 L85 85 Q152 113 216 151 L216 50 L320 50 L320 177 L676 177 L676 53 L546 93 Q556 123 563 155 L437 155 Q432 124 416 99 Q392 69 358 52 Q299 25 237 11 Q164 -5 91 -18 L138 -119 Q248 -97 355 -62 Q397 -48 436 -27 Q467 -11 493 11 Q673 -49 851 -120 L896 -16 L682 51 L783 51 L783 153 Q849 116 921 91 L961 189 Q896 205 835 233 Q778 258 730 297 L923 297 L923 369 L686 369 L686 406 L833 406 L833 473 L686 473 L686 510 L817 510 L817 549 L919 549 L919 721 L578 721 Q558 765 536 808 L415 784 Q428 752 444 721 L79 721 ZM577 617 L577 583 L421 583 L421 617 L311 617 L311 583 L186 583 L186 639 L812 639 L812 583 L686 583 L686 617 L577 617 ZM399 297 L596 297 Q615 275 637 257 L360 257 Q380 275 399 297 ZM421 510 L577 510 L577 473 L421 473 L421 510 ZM421 406 L577 406 L577 369 L421 369 L421 406 Z" /><glyph glyph-name="uni8F66" unicode="&#x8f66;" d="M148 391 L148 281 L458 281 L458 167 L62 167 L62 54 L458 54 L458 -97 L582 -97 L582 54 L934 54 L934 167 L582 167 L582 281 L851 281 L851 391 L582 391 L582 527 L458 527 L458 391 L295 391 Q320 424 343 460 Q374 511 402 565 L902 565 L902 675 L455 675 Q478 725 500 778 L371 801 Q347 736 318 675 L95 675 L95 565 L262 565 Q233 511 200 460 Q176 424 148 391 Z" /><glyph glyph-name="uni8F91" unicode="&#x8f91;" d="M407 487 L407 400 L453 400 L453 76 L371 73 L372 -19 L771 -1 L771 -94 L877 -94 L877 3 L947 6 L947 99 L877 96 L877 400 L935 400 L935 487 L407 487 ZM55 674 L55 574 L124 574 Q109 523 91 473 Q76 430 56 389 L56 281 L217 281 L217 175 Q128 160 40 148 L50 40 L217 70 L217 -97 L312 -97 L312 87 L414 104 L412 168 L410 208 L312 190 L312 281 L404 281 L404 383 L312 383 L312 533 L217 533 L217 383 L162 383 Q200 476 226 574 L406 574 L406 674 L254 674 L281 778 L177 785 Q165 729 151 674 L55 674 ZM454 761 L454 524 L894 524 L894 761 L454 761 ZM561 669 L786 669 L786 610 L561 610 L561 669 ZM559 136 L771 136 L771 91 L559 81 L559 136 ZM559 400 L771 400 L771 353 L559 353 L559 400 ZM559 264 L771 264 L771 224 L559 224 L559 264 Z" /><glyph glyph-name="uni8FD0" unicode="&#x8fd0;" d="M339 208 L371 104 Q402 108 435 110 Q617 121 800 134 Q818 100 838 67 L940 128 Q859 265 778 401 L679 346 L739 242 L504 228 Q534 262 558 301 Q595 359 626 421 L941 421 L941 528 L316 528 L316 421 L491 421 Q447 333 392 254 Q371 224 339 208 ZM33 19 L96 -90 L225 29 Q252 -2 287 -26 Q310 -42 336 -52 Q374 -66 415 -71 Q465 -76 516 -76 L936 -76 L949 35 L534 35 Q487 34 441 39 Q405 44 371 57 Q314 82 278 133 L278 477 L53 477 L53 367 L164 367 L164 124 L33 19 ZM368 748 L368 640 L889 640 L889 748 L368 748 ZM88 712 Q162 620 236 529 L328 612 Q254 702 177 790 L88 712 Z" /><glyph glyph-name="uni90E8" unicode="&#x90e8;" d="M589 750 L589 -95 L701 -95 L701 636 L825 636 L746 391 Q786 346 816 293 Q841 249 843 198 Q843 177 837 158 Q833 147 825 138 Q812 127 796 123 Q774 118 752 119 L715 119 L739 10 L785 10 Q827 9 867 21 Q891 29 910 44 Q934 67 945 98 Q956 137 956 179 Q956 233 937 284 Q925 316 908 345 Q886 380 862 414 L945 634 L945 750 L589 750 ZM226 781 Q243 740 256 698 L79 698 L79 591 L184 591 L124 563 Q151 514 173 463 L51 463 L51 352 L560 352 L560 463 L445 463 Q470 512 493 564 L419 591 L538 591 L538 698 L379 698 Q362 752 342 806 L226 781 ZM101 305 L101 -76 L210 -76 L210 -36 L516 -36 L516 305 L101 305 ZM210 197 L406 197 L406 72 L210 72 L210 197 ZM289 472 Q261 531 232 591 L388 591 Q360 525 327 463 L268 463 L289 472 Z" /><glyph glyph-name="uni91D1" unicode="&#x91d1;" d="M36 502 L91 394 Q166 427 238 468 L238 413 L442 413 L442 334 L124 334 L124 225 L227 225 L170 176 Q232 105 291 32 L71 32 L71 -74 L931 -74 L931 32 L709 32 Q774 105 836 182 L775 225 L877 225 L877 334 L559 334 L559 413 L762 413 L762 475 Q836 433 915 402 L965 511 Q842 556 733 627 Q627 697 550 797 L456 797 Q378 695 272 624 Q160 550 36 502 ZM502 670 Q536 631 577 599 Q629 556 687 520 L322 520 Q421 583 502 670 ZM389 85 Q328 155 267 225 L442 225 L442 32 L322 32 L389 85 ZM610 88 L673 32 L559 32 L559 225 L727 225 Q671 154 610 88 Z" /><glyph glyph-name="uni9500" unicode="&#x9500;" d="M369 699 Q439 620 503 537 L394 537 L394 -99 L505 -99 L505 88 L812 88 L812 61 Q812 48 809 35 Q807 29 803 23 Q795 17 786 15 Q772 13 758 14 L665 14 L690 -97 L793 -97 Q826 -97 858 -90 Q882 -85 899 -69 Q910 -56 915 -39 Q923 -9 923 21 L923 537 L814 537 Q883 616 949 699 L865 763 Q800 680 728 604 L806 537 L713 537 L713 790 L603 790 L603 537 L503 537 L589 610 Q520 690 451 770 L369 699 ZM17 508 L88 429 L97 440 L97 406 L153 406 L153 323 L56 323 L56 219 L153 219 L153 53 Q155 33 147 15 Q136 0 121 -10 L185 -102 Q208 -83 233 -67 Q302 -18 372 30 L342 144 Q301 113 260 84 L260 219 L367 219 L367 323 L260 323 L260 406 L354 406 L354 512 L148 512 Q170 545 190 580 L372 580 L372 685 L244 685 Q262 724 277 765 L175 794 Q113 641 17 508 ZM505 261 L812 261 L812 192 L505 192 L505 261 ZM505 432 L812 432 L812 365 L505 365 L505 432 Z" /><glyph glyph-name="uni95E8" unicode="&#x95e8;" d="M372 742 L372 628 L790 628 L790 89 Q790 70 786 53 Q783 40 773 32 Q765 27 755 24 Q735 21 716 22 L601 22 L625 -96 L756 -96 Q795 -96 834 -89 Q862 -83 883 -64 Q896 -48 902 -28 Q911 9 911 49 L911 742 L372 742 ZM87 613 L87 -98 L206 -98 L206 613 L87 613 ZM115 726 Q195 650 270 568 L357 659 Q279 736 196 807 L115 726 Z" /><glyph glyph-name="uni9650" unicode="&#x9650;" d="M383 -13 L434 -114 Q468 -96 505 -82 Q591 -44 680 -11 L663 99 Q592 69 522 41 L522 304 L568 304 Q589 233 623 168 Q646 124 677 85 Q719 33 773 -6 Q832 -51 899 -85 L965 13 Q907 35 855 67 Q815 92 782 126 Q854 176 925 230 L862 304 L886 304 L886 756 L414 756 L414 38 Q415 20 408 4 Q398 -7 383 -13 ZM78 763 L78 -92 L181 -92 L181 660 L269 660 L203 436 Q236 390 256 338 Q274 294 276 247 Q276 228 272 209 Q269 200 264 192 Q255 183 242 180 Q224 176 206 177 L185 177 L206 72 L237 72 Q272 71 307 81 Q334 89 352 110 Q365 128 372 149 Q381 186 381 225 Q378 349 313 455 L377 662 L377 763 L78 763 ZM522 657 L778 657 L778 579 L522 579 L522 657 ZM522 403 L522 478 L778 478 L778 403 L522 403 ZM721 204 Q691 251 673 304 L854 304 Q790 249 721 204 Z" /><glyph glyph-name="uni9891" unicode="&#x9891;" d="M501 577 L501 280 L407 328 Q384 266 351 211 L351 370 L479 370 L479 476 L367 476 L367 575 L466 575 L466 679 L367 679 L367 786 L266 786 L266 476 L209 476 L209 708 L108 708 L108 476 L51 476 L51 370 L247 370 L247 145 L300 145 Q255 99 201 65 Q122 17 38 -19 L111 -120 Q184 -86 251 -43 Q312 -3 363 48 Q454 143 501 267 L501 112 L604 112 L604 471 L804 471 L804 112 L907 112 L907 577 L737 577 Q747 611 755 646 L934 646 L934 752 L487 752 L487 646 L646 646 L629 577 L501 577 ZM411 -20 L470 -121 Q542 -88 606 -43 Q664 -1 704 57 Q800 -24 893 -110 L964 -14 L745 158 Q754 204 754 251 L754 440 L653 440 L653 255 Q653 214 643 175 Q630 135 602 103 Q564 62 516 33 Q465 3 411 -20 ZM28 131 L121 77 Q158 136 190 199 Q214 245 232 294 L136 340 Q112 280 83 224 Q59 175 28 131 Z" /><glyph glyph-name="uni989C" unicode="&#x989c;" d="M17 -54 L123 -101 Q140 -56 154 -11 L192 -96 Q369 -26 520 89 L459 170 Q321 69 161 12 Q178 79 184 148 L215 80 Q359 138 483 233 L423 308 Q313 228 186 180 Q189 238 189 297 L189 306 L219 241 Q347 286 460 364 L427 413 L496 413 L496 514 L403 514 Q428 560 452 608 L430 617 L502 617 L502 718 L363 718 L328 811 L216 790 Q230 754 242 718 L76 718 L76 617 L147 617 L126 610 Q150 562 173 514 L88 514 L88 335 Q88 263 84 191 Q81 151 75 111 Q60 24 17 -54 ZM522 581 L522 137 L622 137 L622 480 L817 480 L817 137 L917 137 L917 581 L749 581 Q758 616 766 653 L943 653 L943 757 L525 757 L525 653 L661 653 L645 581 L522 581 ZM438 -24 L507 -113 Q578 -71 643 -20 Q685 13 717 58 Q808 -22 898 -106 L974 -19 L759 158 Q771 220 770 284 L770 445 L671 445 L671 309 Q671 252 661 197 Q650 150 622 110 Q597 78 564 53 Q504 9 438 -24 ZM270 520 Q247 568 224 617 L355 617 Q331 564 304 514 L253 514 L270 520 ZM189 336 L189 413 L364 413 Q280 364 189 336 Z" /><glyph glyph-name="uni9A7E" unicode="&#x9a7e;" d="M147 418 L147 331 L221 331 L194 161 L779 161 Q773 110 767 61 Q765 45 759 31 Q754 19 745 11 Q720 -3 692 -2 L557 -2 L577 -96 L724 -96 Q759 -96 794 -88 Q820 -82 839 -64 Q853 -49 861 -31 Q872 0 876 35 Q886 146 894 258 L750 258 L772 418 L147 418 ZM67 722 L67 628 L174 628 Q165 584 135 550 Q116 529 93 512 Q62 490 31 471 L106 388 Q178 436 229 505 Q267 561 281 628 L389 628 Q385 605 384 582 Q383 564 371 551 Q364 545 355 544 Q341 542 328 543 L253 543 L271 455 L370 455 Q398 454 426 459 Q446 463 461 475 Q471 485 476 498 Q484 520 486 545 Q493 633 498 722 L291 722 Q292 753 292 786 L183 786 Q182 754 182 722 L67 722 ZM538 746 L538 463 L891 463 L891 746 L538 746 ZM74 116 L74 30 L715 30 L715 116 L74 116 ZM336 329 L279 331 L650 331 L639 258 L322 258 L336 329 ZM643 648 L787 648 L787 558 L643 558 L643 648 Z" /><glyph glyph-name="uni9AD8" unicode="&#x9ad8;" d="M104 340 L104 -98 L220 -98 L220 255 L783 255 L783 52 Q783 38 780 26 Q778 17 771 11 Q765 6 757 5 Q743 2 728 3 L714 3 L714 216 L289 216 L289 -2 L640 -2 L660 -95 L771 -95 Q803 -95 835 -88 Q858 -82 876 -66 Q887 -53 892 -36 Q900 -7 900 23 L900 340 L104 340 ZM185 590 L185 379 L818 379 L818 590 L185 590 ZM415 783 L443 718 L63 718 L63 628 L940 628 L940 718 L579 718 Q559 763 539 809 L415 783 ZM301 507 L701 507 L701 462 L301 462 L301 507 ZM401 130 L601 130 L601 85 L401 85 L401 130 Z" /></font>
</defs>
</svg>
