<?xml version="1.0" standalone="no"?><!DOCTYPE svg PUBLIC "-//W3C//DTD SVG 1.1//EN" "http://www.w3.org/Graphics/SVG/1.1/DTD/svg11.dtd" ><svg xmlns="http://www.w3.org/2000/svg"><metadata></metadata><defs><font id="fonteditor" horiz-adv-x="1069"><font-face font-family="lINêe×Ñ-60S" font-weight="400" font-stretch="normal" units-per-em="1000" panose-1="0 2 6 0 4 1 1 1 1 1" ascent="916" descent="-301" x-height="1" bbox="-31 -251 1061 824" underline-thickness="0" underline-position="0" unicode-range="U+0021-ff1a" /><missing-glyph horiz-adv-x="1000"  /><glyph glyph-name="exclam" unicode="!" d="M83 706 L83 313 L90 178 L175 178 L182 313 L182 706 L83 706 ZM77 91 L77 -38 L187 -38 L187 91 L77 91 Z" /><glyph glyph-name="quotedbl" unicode="&quot;" d="M80 706 L88 443 L158 443 L167 706 L80 706 ZM251 706 L259 443 L329 443 L338 706 L251 706 Z" /><glyph glyph-name="numbersign" unicode="#" d="M57 504 L57 432 L175 432 L151 257 L39 257 L39 184 L141 184 L110 -38 L208 -38 L238 184 L393 184 L362 -38 L461 -38 L491 184 L609 184 L609 257 L501 257 L525 432 L626 432 L626 504 L534 504 L562 706 L468 706 L439 504 L281 504 L309 706 L214 706 L185 504 L57 504 ZM272 432 L429 432 L404 257 L248 257 L272 432 Z" /><glyph glyph-name="dollar" unicode="$" d="M256 789 L256 714 Q208 709 164 692 Q126 676 97 647 Q70 617 58 579 Q49 548 49 516 Q50 445 102 397 Q135 365 176 344 Q214 323 256 308 L257 36 Q210 46 177 79 Q141 119 128 171 L27 157 Q38 112 60 72 Q82 35 114 7 Q176 -44 257 -53 L257 -128 L340 -128 L340 -54 Q380 -50 419 -38 Q462 -23 497 5 Q526 33 542 70 Q557 108 558 149 Q557 226 500 279 Q465 310 422 331 Q382 351 340 367 L340 622 Q376 612 402 586 Q428 559 443 525 L542 538 Q521 610 465 661 Q410 704 340 713 L340 789 L256 789 ZM459 149 Q459 103 427 70 Q389 38 340 33 L340 276 Q387 256 424 222 Q456 192 459 149 ZM148 516 Q148 559 179 589 Q212 618 256 625 L256 397 Q211 415 177 448 Q149 476 148 516 Z" /><glyph glyph-name="percent" unicode="%" d="M48 517 Q47 446 93 392 Q119 365 154 351 Q192 336 233 336 Q273 336 310 350 Q344 364 370 391 Q416 445 416 517 Q416 588 369 641 Q343 668 309 683 Q272 697 233 698 Q192 697 155 682 Q120 667 94 640 Q48 587 48 517 ZM521 143 Q520 72 566 19 Q592 -7 626 -22 Q664 -36 705 -37 Q745 -36 782 -22 Q816 -7 842 18 Q888 72 888 143 Q888 214 841 268 Q815 295 781 310 Q744 324 705 325 Q623 324 567 267 Q521 213 521 143 ZM190 -38 L285 -38 L749 699 L654 699 L190 -38 ZM596 142 Q596 183 623 215 Q656 249 705 250 Q752 249 785 216 Q812 184 812 142 Q812 100 785 69 Q751 36 705 37 Q657 36 623 69 Q595 100 596 142 ZM124 516 Q124 564 158 596 Q190 624 233 624 Q279 623 312 590 Q339 558 339 516 Q339 474 312 443 Q279 410 233 411 Q184 410 150 443 Q123 474 124 516 Z" /><glyph glyph-name="ampersand" unicode="&amp;" d="M43 154 Q43 115 56 79 Q73 35 109 4 Q146 -25 193 -40 Q245 -55 299 -56 Q364 -56 426 -35 Q490 -13 541 31 Q576 -3 613 -38 L752 -38 Q673 28 598 97 Q665 203 665 330 L568 330 Q568 240 528 161 Q435 249 350 345 Q385 363 419 385 Q451 405 478 432 Q502 457 516 489 Q525 514 526 541 Q525 615 469 664 Q439 687 402 697 Q370 705 338 706 Q294 705 253 692 Q217 679 189 653 Q142 606 142 539 Q144 498 162 461 Q185 415 216 374 Q180 354 147 331 Q115 308 89 279 Q43 225 43 154 ZM294 23 Q264 23 235 30 Q207 39 184 56 Q140 95 141 154 Q143 198 174 231 Q218 273 272 303 Q369 193 476 93 Q398 22 294 23 ZM239 539 Q239 573 263 598 Q294 626 336 626 Q372 626 401 604 Q428 579 429 542 Q428 526 422 512 Q411 492 394 476 Q373 459 349 445 Q322 429 295 415 Q270 449 252 487 Q240 512 239 539 Z" /><glyph glyph-name="quotesingle" unicode="&#39;" d="M80 706 L88 443 L160 443 L170 706 L80 706 Z" /><glyph glyph-name="parenleft" unicode="(" d="M107 238 Q109 -13 232 -234 L322 -234 Q260 -122 226 0 Q196 117 196 238 Q196 357 227 472 Q261 594 321 706 L231 706 Q169 595 138 472 Q108 357 107 238 Z" /><glyph glyph-name="parenright" unicode=")" d="M37 -234 L128 -234 Q250 -13 253 238 Q251 357 221 472 Q190 595 128 706 L38 706 Q97 594 131 472 Q162 357 163 238 Q162 117 132 0 Q98 -122 37 -234 Z" /><glyph glyph-name="asterisk" unicode="*" d="M196 706 L211 562 L78 623 L52 541 L192 510 L89 403 L158 352 L237 477 L315 354 L384 405 L282 509 L423 540 L397 623 L266 563 L281 706 L196 706 Z" /><glyph glyph-name="plus" unicode="+" d="M33 381 L33 296 L271 296 L271 53 L361 53 L361 296 L602 296 L602 381 L361 381 L361 622 L271 622 L271 381 L33 381 Z" /><glyph glyph-name="comma" unicode="," d="M72 -147 L72 -195 Q123 -178 158 -136 Q193 -91 194 -34 L194 112 L75 112 L75 -38 L136 -38 Q135 -73 118 -104 Q101 -132 72 -147 Z" /><glyph glyph-name="hyphen" unicode="-" d="M48 381 L48 296 L452 296 L452 381 L48 381 Z" /><glyph glyph-name="period" unicode="." d="M75 112 L75 -38 L193 -38 L193 112 L75 112 Z" /><glyph glyph-name="slash" unicode="/" d="M29 -38 L123 -38 L373 706 L280 706 L29 -38 Z" /><glyph glyph-name="zero" unicode="0" d="M52 323 Q51 248 67 176 Q76 137 91 100 Q106 69 125 41 Q161 -6 214 -33 Q262 -55 316 -56 Q436 -53 510 42 Q530 70 544 101 Q559 138 569 177 Q583 249 584 323 Q583 396 568 469 Q558 508 542 545 Q528 576 507 605 Q471 653 418 680 Q369 703 316 704 Q263 703 215 680 Q162 653 126 605 Q106 577 92 546 Q76 509 67 470 Q51 397 52 323 ZM153 323 Q153 374 160 425 Q169 479 192 529 Q212 567 246 593 Q277 614 316 615 Q354 614 386 593 Q421 567 441 529 Q466 480 475 425 Q483 374 484 323 Q483 271 476 220 Q467 166 443 117 Q423 78 388 53 Q355 31 316 32 Q277 32 246 54 Q212 79 192 117 Q169 167 160 221 Q153 271 153 323 Z" /><glyph glyph-name="one" unicode="1" d="M101 574 L135 491 L279 583 L279 -38 L377 -38 L377 692 L285 692 L101 574 Z" /><glyph glyph-name="two" unicode="2" d="M63 21 L63 -38 L576 -38 L576 50 L204 50 Q229 84 259 114 Q304 157 354 193 Q418 238 476 289 Q502 314 524 344 Q544 374 556 409 Q567 448 568 490 Q567 536 550 580 Q532 621 498 650 Q460 681 412 693 Q369 703 325 704 Q237 704 166 655 Q88 597 68 502 L165 486 Q179 542 222 579 Q267 614 325 615 Q351 614 377 607 Q406 598 428 579 Q467 540 468 486 Q466 431 436 386 Q413 356 386 332 Q355 305 322 282 Q268 243 215 203 Q178 174 145 141 Q94 87 63 21 Z" /><glyph glyph-name="three" unicode="3" d="M54 138 Q63 97 83 62 Q109 20 148 -7 Q186 -32 230 -44 Q274 -55 320 -56 Q365 -55 409 -45 Q459 -33 500 -2 Q537 27 556 69 Q576 113 576 162 Q577 230 536 284 Q496 330 436 345 Q490 364 524 410 Q555 457 555 515 Q554 593 497 647 Q463 675 420 689 Q372 703 322 704 Q283 703 245 695 Q200 683 162 657 Q88 603 70 514 L169 499 Q179 549 217 583 Q263 616 320 615 Q372 616 414 585 Q433 570 443 548 Q453 526 454 503 Q451 449 410 415 Q368 384 317 385 L252 385 L252 298 L317 298 Q351 297 385 287 Q413 276 436 256 Q474 219 475 166 Q475 111 437 73 Q415 52 387 42 Q354 32 320 32 Q259 30 210 64 Q166 98 153 154 L54 138 Z" /><glyph glyph-name="four" unicode="4" d="M38 190 L38 122 L402 122 L402 -38 L501 -38 L501 122 L594 122 L594 207 L501 207 L501 692 L360 692 L38 190 ZM156 207 L402 588 L402 207 L156 207 Z" /><glyph glyph-name="five" unicode="5" d="M59 127 Q82 40 155 -10 Q195 -36 242 -47 Q282 -55 323 -56 Q369 -55 414 -43 Q464 -27 503 8 Q539 44 557 91 Q574 142 575 196 Q574 237 564 278 Q551 326 519 364 Q487 399 443 418 Q394 437 341 437 Q245 435 178 368 L195 602 L535 602 L535 692 L112 692 L77 288 L170 273 Q227 347 322 348 Q348 347 374 340 Q405 331 429 310 Q451 288 463 260 Q474 229 475 196 Q474 159 462 124 Q450 94 427 71 Q403 49 371 39 Q345 32 318 32 Q259 31 212 64 Q171 95 157 145 L59 127 Z" /><glyph glyph-name="six" unicode="6" d="M170 188 Q167 249 207 297 Q254 350 325 352 Q385 351 428 309 Q449 285 461 255 Q472 221 473 187 Q472 151 461 118 Q449 88 427 65 Q384 23 325 24 Q263 24 218 67 Q196 90 184 121 Q171 153 170 188 ZM65 286 Q64 225 76 165 Q90 99 126 43 Q159 -3 210 -30 Q264 -56 325 -56 Q369 -55 411 -44 Q461 -31 500 2 Q537 36 555 82 Q574 136 574 193 Q573 243 557 291 Q540 335 508 370 Q473 404 427 420 Q388 432 347 433 Q283 432 229 399 Q186 372 164 326 L162 326 Q162 381 172 435 Q181 488 204 536 Q226 579 266 605 Q298 622 335 624 Q376 624 411 601 Q443 578 460 541 L559 557 Q529 626 466 669 Q407 704 338 704 Q285 702 237 684 Q177 656 139 601 Q120 571 106 539 Q92 503 83 465 Q64 376 65 286 Z" /><glyph glyph-name="seven" unicode="7" d="M61 602 L452 602 Q340 450 279 273 Q249 185 233 94 Q223 28 223 -38 L322 -38 Q323 128 379 285 Q445 466 563 619 L563 692 L61 692 L61 602 Z" /><glyph glyph-name="eight" unicode="8" d="M181 504 Q182 555 220 590 Q262 624 317 624 Q368 624 409 591 Q448 556 450 504 Q449 449 408 413 Q368 382 317 383 Q265 382 224 413 Q182 448 181 504 ZM159 163 Q159 219 199 259 Q222 280 251 291 Q283 302 318 303 Q352 302 385 291 Q414 280 437 259 Q476 219 477 163 Q476 99 428 60 Q378 24 318 24 Q282 24 249 36 Q220 47 197 68 Q158 107 159 163 ZM59 159 Q59 116 73 76 Q92 30 130 0 Q170 -29 217 -42 Q266 -55 318 -56 Q368 -55 417 -42 Q464 -28 503 0 Q542 31 562 77 Q576 116 577 159 Q576 227 532 280 Q490 326 430 344 Q481 363 515 407 Q548 452 550 509 Q549 551 531 590 Q512 628 479 654 Q441 682 396 694 Q357 703 317 704 Q275 703 235 693 Q189 681 150 653 Q117 626 98 589 Q80 551 80 509 Q81 451 118 406 Q152 364 202 344 Q136 323 96 268 Q60 219 59 159 Z" /><glyph glyph-name="nine" unicode="9" d="M163 462 Q163 496 174 529 Q185 559 207 582 Q250 624 311 624 Q373 624 417 581 Q439 557 451 527 Q463 495 465 461 Q467 399 428 351 Q381 298 311 297 Q250 297 207 339 Q185 363 174 393 Q163 426 163 462 ZM62 455 Q62 404 80 357 Q98 312 131 278 Q197 216 289 216 Q353 217 407 250 Q451 278 475 325 L477 324 Q477 266 467 209 Q457 157 433 109 Q410 66 369 41 Q336 25 300 24 Q258 23 224 46 Q192 70 176 107 L77 91 Q106 20 169 -21 Q228 -56 298 -56 Q350 -54 399 -36 Q459 -7 497 46 Q516 76 530 109 Q544 145 554 183 Q573 271 573 362 Q573 438 555 511 Q539 572 501 622 Q464 667 409 688 Q363 703 315 704 Q256 704 202 685 Q155 666 120 629 Q86 591 73 541 Q62 499 62 455 Z" /><glyph glyph-name="colon" unicode=":" d="M75 486 L75 335 L193 335 L193 486 L75 486 ZM75 112 L75 -38 L193 -38 L193 112 L75 112 Z" /><glyph glyph-name="semicolon" unicode=";" d="M71 -147 L71 -195 Q122 -178 157 -136 Q192 -91 193 -34 L193 112 L75 112 L75 -38 L135 -38 Q134 -73 117 -104 Q100 -132 71 -147 ZM75 486 L75 335 L193 335 L193 486 L75 486 Z" /><glyph glyph-name="less" unicode="&lt;" d="M82 386 L82 304 L555 77 L555 173 L183 345 L555 518 L555 614 L82 386 Z" /><glyph glyph-name="equal" unicode="=" d="M57 510 L57 424 L579 424 L579 510 L57 510 ZM57 256 L57 171 L579 171 L579 256 L57 256 Z" /><glyph glyph-name="greater" unicode="&gt;" d="M81 614 L81 518 L452 345 L81 173 L81 77 L554 304 L554 386 L81 614 Z" /><glyph glyph-name="question" unicode="?" d="M35 513 L128 496 Q131 522 140 548 Q151 575 172 597 Q213 635 270 634 Q300 633 328 625 Q353 616 373 599 Q406 566 406 519 Q406 481 387 450 Q374 431 357 415 Q335 394 311 375 Q306 371 302 367 Q279 350 259 330 Q247 317 238 302 Q218 263 219 219 L219 178 L317 178 L317 219 Q316 248 330 273 Q347 299 372 317 Q390 330 407 345 Q432 365 454 388 Q472 408 485 431 Q506 472 505 519 Q504 566 488 610 Q471 649 438 676 Q400 703 354 714 Q312 722 270 723 Q223 722 179 708 Q138 693 106 664 Q74 632 56 590 Q41 552 35 513 ZM214 90 L214 -38 L322 -38 L322 90 L214 90 Z" /><glyph glyph-name="at" unicode="@" d="M52 314 Q52 249 70 187 Q92 113 144 55 Q197 0 268 -27 Q348 -56 434 -56 Q485 -56 535 -49 Q581 -42 625 -27 Q702 0 764 56 L752 103 Q691 46 613 18 Q572 4 528 -1 Q481 -7 433 -7 Q373 -6 315 8 Q250 26 199 71 Q152 115 129 176 Q105 243 106 315 Q106 374 123 432 Q145 502 194 557 Q243 609 308 638 Q379 666 456 667 Q522 667 585 647 Q640 628 683 588 Q724 548 743 494 Q757 448 758 401 Q757 319 714 250 Q692 216 660 191 Q630 170 595 165 Q573 161 556 175 Q541 193 544 217 L650 520 L570 541 Q564 524 560 508 Q517 548 459 548 Q362 548 296 477 Q261 436 243 385 Q224 330 224 272 Q224 243 231 215 Q241 182 263 157 Q308 109 375 109 Q441 109 491 154 Q500 132 520 121 Q542 110 566 110 Q671 111 740 191 Q775 235 793 289 Q811 343 812 401 Q812 473 785 541 Q758 601 706 643 Q649 685 579 702 Q518 715 456 716 Q385 714 317 695 Q236 668 173 611 Q114 554 83 479 Q52 399 52 314 ZM310 275 Q310 314 321 351 Q332 387 355 416 Q376 444 408 460 Q433 470 460 471 Q505 469 530 431 L464 237 Q453 215 432 202 Q408 187 380 187 Q348 188 328 213 Q309 241 310 275 Z" /><glyph glyph-name="A" unicode="a" d="M6 -38 L111 -38 L188 158 L526 158 L602 -38 L707 -38 L414 706 L304 706 L6 -38 ZM358 588 L360 588 L491 248 L224 248 L358 588 Z" /><glyph glyph-name="B" unicode="b" d="M83 706 L83 -38 L374 -38 Q434 -38 493 -24 Q540 -11 578 18 Q613 49 627 92 Q638 130 639 170 Q639 234 598 283 Q574 309 543 324 Q515 336 485 343 Q543 363 580 412 Q611 457 612 513 Q612 557 595 598 Q578 636 543 660 Q500 688 450 697 Q401 705 351 706 L83 706 ZM184 296 L351 296 Q390 296 428 289 Q461 283 490 267 Q515 250 528 224 Q537 200 538 175 Q537 144 524 117 Q509 92 484 77 Q453 60 418 55 Q384 49 351 50 L184 50 L184 296 ZM184 616 L340 616 Q380 616 419 608 Q449 601 474 583 Q512 552 512 502 Q509 451 468 421 Q442 403 412 394 Q378 385 343 385 L184 385 L184 616 Z" /><glyph glyph-name="C" unicode="c" d="M49 334 Q48 251 72 173 Q95 102 143 44 Q193 -9 262 -35 Q320 -55 383 -56 Q429 -55 475 -45 Q527 -33 573 -4 Q613 24 643 64 Q671 105 689 153 L589 169 Q563 102 503 63 Q447 31 383 33 Q329 33 281 57 Q236 82 206 125 Q173 174 160 232 Q150 282 150 334 Q149 388 160 441 Q172 498 205 547 Q235 589 281 612 Q329 634 383 634 Q444 634 498 605 Q555 569 582 507 L684 523 Q653 614 574 669 Q528 698 476 712 Q430 722 383 723 Q318 722 257 702 Q187 676 138 620 Q91 563 70 492 Q48 414 49 334 Z" /><glyph glyph-name="D" unicode="d" d="M83 706 L83 -38 L344 -38 Q410 -37 474 -19 Q510 -7 543 11 Q573 31 598 56 Q647 109 670 178 Q693 254 693 334 Q692 407 672 477 Q651 546 606 601 Q556 658 485 684 Q422 705 355 706 L83 706 ZM184 616 L340 616 Q390 615 437 599 Q490 579 527 536 Q561 494 576 442 Q591 389 592 334 Q591 282 580 232 Q566 176 531 131 Q497 91 449 70 Q397 49 342 50 L184 50 L184 616 Z" /><glyph glyph-name="E" unicode="e" d="M83 706 L83 -38 L630 -38 L630 50 L184 50 L184 301 L583 301 L583 391 L184 391 L184 616 L624 616 L624 706 L83 706 Z" /><glyph glyph-name="F" unicode="f" d="M83 706 L83 -38 L184 -38 L184 285 L575 285 L575 374 L184 374 L184 616 L616 616 L616 706 L83 706 Z" /><glyph glyph-name="G" unicode="g" d="M60 334 Q60 264 77 197 Q97 121 145 59 Q189 4 252 -26 Q313 -55 381 -56 Q459 -56 526 -16 Q594 26 630 99 L630 -38 L720 -38 L720 367 L409 367 L409 277 L619 277 L619 211 Q596 130 531 78 Q470 33 395 33 Q342 33 296 57 Q250 82 219 125 Q185 174 171 232 Q160 282 160 334 Q160 384 171 433 Q185 491 219 539 Q251 583 298 609 Q347 633 402 634 Q463 635 516 604 Q574 566 601 502 L705 518 Q687 559 662 597 Q635 636 597 666 Q553 697 501 711 Q452 722 402 723 Q343 721 286 704 Q217 680 165 628 Q113 572 87 501 Q59 419 60 334 Z" /><glyph glyph-name="H" unicode="h" d="M83 706 L83 -38 L184 -38 L184 301 L593 301 L593 -38 L693 -38 L693 706 L593 706 L593 391 L184 391 L184 706 L83 706 Z" /><glyph glyph-name="I" unicode="i" d="M83 706 L83 -38 L184 -38 L184 706 L83 706 Z" /><glyph glyph-name="J" unicode="j" d="M33 188 L33 165 Q33 124 43 84 Q57 40 89 6 Q121 -25 163 -40 Q210 -55 260 -56 Q308 -55 354 -41 Q397 -26 430 4 Q463 39 478 86 Q489 128 490 172 L490 706 L390 706 L390 179 Q389 151 383 125 Q375 96 356 73 Q317 31 260 32 Q232 31 206 41 Q182 51 165 71 Q147 93 139 121 Q133 146 133 173 L133 188 L33 188 Z" /><glyph glyph-name="L" unicode="l" d="M83 706 L83 -38 L578 -38 L578 50 L184 50 L184 706 L83 706 Z" /><glyph glyph-name="M" unicode="m" d="M83 706 L83 -38 L184 -38 L185 545 L433 -38 L531 -38 L775 545 L777 545 L777 -38 L877 -38 L877 706 L736 706 L482 93 L224 706 L83 706 Z" /><glyph glyph-name="N" unicode="n" d="M83 706 L83 -38 L184 -38 L184 546 L186 546 L593 -38 L698 -38 L698 706 L598 706 L598 121 L596 121 L189 706 L83 706 Z" /><glyph glyph-name="O" unicode="o" d="M150 333 Q149 395 167 455 Q183 510 219 554 Q254 597 304 618 Q346 633 391 634 Q435 633 477 618 Q528 596 564 554 Q599 509 616 454 Q633 395 634 333 Q633 270 617 210 Q601 156 566 111 Q530 69 479 48 Q436 33 391 33 Q287 33 219 112 Q184 157 167 211 Q150 271 150 333 ZM49 333 Q49 254 72 178 Q95 107 143 49 Q194 -7 265 -34 Q326 -55 391 -56 Q456 -55 518 -35 Q590 -8 640 47 Q688 105 711 177 Q734 253 734 333 Q733 412 710 489 Q687 560 639 618 Q588 675 517 702 Q455 722 391 723 Q326 722 265 702 Q194 675 143 618 Q95 561 72 489 Q49 413 49 333 Z" /><glyph glyph-name="P" unicode="p" d="M83 706 L83 -38 L184 -38 L184 252 L359 252 Q408 251 457 262 Q509 275 551 307 Q588 338 606 382 Q623 430 624 481 Q623 530 607 576 Q589 619 553 650 Q511 682 459 695 Q409 705 359 706 L83 706 ZM184 616 L347 616 Q378 616 409 610 Q443 603 472 585 Q496 568 510 542 Q522 512 523 481 Q522 448 510 417 Q496 390 472 373 Q443 354 409 347 Q377 341 345 341 L184 341 L184 616 Z" /><glyph glyph-name="Q" unicode="q" d="M49 333 Q49 254 72 178 Q95 107 143 49 Q194 -7 265 -34 Q326 -55 391 -56 Q485 -57 568 -12 L656 -98 L727 -30 L640 47 Q685 100 707 166 Q734 247 734 333 Q733 412 710 489 Q687 560 639 618 Q588 675 517 702 Q455 722 391 723 Q326 722 265 702 Q194 675 143 618 Q95 561 72 489 Q49 413 49 333 ZM427 126 L498 56 Q447 32 391 33 Q287 33 219 112 Q184 157 167 211 Q150 271 150 333 Q149 395 167 455 Q183 510 219 554 Q254 597 304 618 Q346 633 391 634 Q435 633 477 618 Q528 596 564 554 Q599 509 616 454 Q633 395 634 333 Q634 266 615 203 Q599 153 567 112 L488 183 L427 126 Z" /><glyph glyph-name="R" unicode="r" d="M83 706 L83 -38 L184 -38 L184 275 L379 275 Q428 275 465 242 Q483 224 492 200 Q502 173 505 145 Q509 87 519 30 Q525 -4 538 -38 L644 -38 Q625 7 616 56 Q606 105 603 156 Q600 209 574 256 Q546 301 497 321 Q551 343 585 391 Q617 441 617 501 Q616 545 600 586 Q582 625 549 653 Q510 683 461 695 Q416 705 371 706 L83 706 ZM184 616 L359 616 Q387 616 415 610 Q445 603 471 586 Q516 551 516 494 Q516 434 471 396 Q447 378 417 371 Q391 365 365 365 L184 365 L184 616 Z" /><glyph glyph-name="S" unicode="s" d="M43 153 Q57 113 79 77 Q107 34 147 3 Q188 -26 237 -41 Q291 -55 347 -56 Q393 -55 439 -45 Q491 -32 535 -2 Q574 26 596 67 Q617 110 618 158 Q617 186 606 213 Q589 251 558 279 Q519 312 473 336 Q415 365 354 387 Q315 400 278 416 Q248 429 221 448 Q199 463 186 486 Q178 503 178 522 Q178 546 190 567 Q204 589 226 604 Q274 634 332 634 Q390 634 440 603 Q481 573 501 527 L610 542 Q580 630 501 680 Q425 724 337 723 Q280 722 227 706 Q178 690 137 659 Q100 628 81 584 Q67 550 67 513 Q67 484 77 457 Q94 420 124 394 Q162 363 206 342 Q262 316 321 296 Q362 281 401 262 Q433 246 462 224 Q480 209 493 189 Q504 169 506 147 Q505 124 494 104 Q481 82 461 66 Q435 48 405 40 Q378 34 350 34 Q283 32 228 69 Q177 108 154 169 L43 153 Z" /><glyph glyph-name="T" unicode="t" d="M6 706 L6 616 L241 616 L241 -38 L342 -38 L342 616 L577 616 L577 706 L6 706 Z" /><glyph glyph-name="U" unicode="u" d="M80 706 L80 253 Q79 195 93 140 Q109 79 150 30 Q191 -13 247 -34 Q310 -56 377 -56 Q442 -56 504 -34 Q560 -13 601 30 Q642 78 659 140 Q672 195 673 253 L673 706 L572 706 L572 255 Q572 204 558 156 Q544 116 516 84 Q487 55 447 42 Q412 33 377 33 Q339 33 304 43 Q263 56 234 87 Q205 119 193 159 Q179 206 180 255 L180 706 L80 706 Z" /><glyph glyph-name="W" unicode="w" d="M7 706 L235 -38 L350 -38 L534 578 L719 -38 L836 -38 L1061 706 L950 706 L778 96 L776 96 L591 706 L474 706 L293 96 L291 96 L118 706 L7 706 Z" /><glyph glyph-name="X" unicode="x" d="M17 706 L266 340 L9 -38 L125 -38 L324 254 L523 -38 L640 -38 L383 339 L633 706 L515 706 L324 425 L133 706 L17 706 Z" /><glyph glyph-name="Y" unicode="y" d="M6 706 L283 259 L283 -38 L384 -38 L384 259 L654 706 L537 706 L335 364 L333 364 L124 706 L6 706 Z" /><glyph glyph-name="bracketleft" unicode="[" d="M127 706 L127 -234 L343 -234 L343 -152 L216 -152 L216 625 L343 625 L343 706 L127 706 Z" /><glyph glyph-name="backslash" unicode="\" d="M29 706 L279 -38 L373 -38 L123 706 L29 706 Z" /><glyph glyph-name="bracketright" unicode="]" d="M42 706 L42 625 L168 625 L168 -152 L42 -152 L42 -234 L257 -234 L257 706 L42 706 Z" /><glyph glyph-name="asciicircum" unicode="^" d="M58 316 L154 316 L315 603 L479 316 L580 316 L350 705 L281 705 L58 316 Z" /><glyph glyph-name="underscore" unicode="_" d="M31 -99 L31 -185 L558 -185 L558 -99 L31 -99 Z" /><glyph glyph-name="a" unicode="a" d="M144 94 Q144 119 159 141 Q183 170 218 186 Q263 205 310 215 Q366 227 423 234 Q422 167 422 101 Q382 65 334 43 Q290 24 242 24 Q219 23 198 29 Q180 33 166 44 Q143 63 144 94 ZM46 83 Q46 21 94 -17 Q121 -37 152 -46 Q186 -55 221 -56 Q277 -55 329 -34 Q384 -11 427 30 Q427 24 428 18 Q429 2 433 -12 Q441 -32 461 -43 Q484 -55 510 -56 Q545 -55 580 -45 L580 18 Q566 15 552 15 Q542 15 533 19 Q526 23 523 31 Q520 40 521 49 L521 343 Q520 383 505 420 Q488 455 458 478 Q422 503 379 512 Q339 520 299 521 Q222 522 156 484 Q88 442 62 367 L153 354 Q169 395 207 419 Q247 442 294 441 Q319 440 343 435 Q368 429 389 414 Q422 386 423 343 L423 315 Q338 304 255 283 Q191 266 133 233 Q110 218 91 199 Q74 180 62 158 Q46 122 46 83 Z" /><glyph glyph-name="b" unicode="b" d="M66 705 L66 -38 L164 -38 L164 13 Q198 -17 240 -35 Q286 -55 337 -56 Q382 -55 426 -42 Q476 -25 512 13 Q547 54 562 106 Q578 166 579 229 Q578 291 563 351 Q548 404 515 447 Q480 487 430 506 Q386 520 341 521 Q291 520 246 499 Q200 476 164 439 L164 705 L66 705 ZM324 436 Q355 435 385 424 Q419 408 441 378 Q462 346 471 308 Q480 269 481 229 Q480 188 470 149 Q460 113 438 82 Q394 28 324 29 Q281 29 242 45 Q198 64 164 97 L164 354 Q198 391 243 415 Q281 434 324 436 Z" /><glyph glyph-name="c" unicode="c" d="M44 233 Q44 171 63 113 Q82 60 121 18 Q160 -21 213 -41 Q256 -55 303 -56 Q341 -55 378 -46 Q420 -35 456 -10 Q517 35 543 109 L447 123 Q429 81 394 54 Q352 27 303 28 Q235 27 189 78 Q165 108 154 144 Q142 188 143 233 Q142 278 155 321 Q167 357 192 387 Q239 436 307 436 Q401 435 443 350 L541 363 Q518 432 458 476 Q423 500 382 511 Q345 520 307 521 Q259 520 213 506 Q160 488 120 447 Q82 406 63 353 Q43 294 44 233 Z" /><glyph glyph-name="d" unicode="d" d="M46 233 Q45 170 62 110 Q78 57 114 15 Q150 -23 200 -41 Q243 -55 288 -56 Q386 -53 460 14 L460 -38 L558 -38 L558 705 L460 705 L460 444 Q388 519 284 521 Q240 520 198 507 Q148 489 113 449 Q78 408 62 355 Q45 295 46 233 ZM302 29 Q231 29 187 83 Q164 114 154 151 Q143 191 144 233 Q143 274 154 315 Q165 352 187 382 Q232 435 302 436 Q343 435 381 417 Q426 396 460 360 L460 96 Q425 63 381 45 Q343 29 302 29 Z" /><glyph glyph-name="e" unicode="e" d="M46 231 Q45 170 64 112 Q81 59 118 17 Q158 -22 211 -41 Q257 -55 306 -56 Q383 -57 450 -20 Q519 22 551 97 L462 112 Q438 69 396 45 Q354 23 307 24 Q277 24 249 32 Q216 44 191 68 Q167 93 155 126 Q143 162 144 200 L554 200 L554 245 Q553 301 536 356 Q519 407 483 447 Q445 487 393 506 Q348 520 301 521 Q253 520 208 505 Q155 485 117 443 Q81 400 63 347 Q46 290 46 231 ZM144 277 Q146 344 191 393 Q236 439 301 440 Q365 439 410 393 Q454 343 455 277 L144 277 Z" /><glyph glyph-name="f" unicode="f" d="M11 507 L11 426 L120 426 L120 -37 L218 -37 L218 426 L361 426 L361 507 L218 507 L218 576 Q217 604 239 623 Q263 639 294 639 Q327 639 357 623 L357 707 Q312 721 266 721 Q235 720 206 713 Q180 706 158 690 Q137 673 127 648 Q119 625 120 602 L120 507 L11 507 Z" /><glyph glyph-name="g" unicode="g" d="M48 235 Q48 185 59 136 Q73 82 108 36 Q140 -3 186 -25 Q233 -46 286 -47 Q334 -46 379 -25 Q425 -3 462 34 L462 6 Q461 -25 454 -56 Q445 -91 422 -119 Q399 -144 368 -157 Q332 -169 294 -170 Q246 -170 204 -148 Q168 -127 149 -90 L60 -105 Q84 -170 142 -210 Q174 -230 211 -240 Q249 -249 290 -250 Q342 -249 394 -237 Q448 -222 490 -184 Q527 -147 543 -97 Q560 -41 560 17 L560 507 L462 507 L462 439 Q389 519 282 521 Q230 520 184 498 Q138 475 107 435 Q73 388 59 333 Q48 284 48 235 ZM304 37 Q236 37 191 87 Q168 117 157 152 Q145 193 146 235 Q145 278 158 320 Q169 356 193 386 Q237 435 304 436 Q347 435 385 415 Q429 390 462 351 L462 117 Q429 79 385 56 Q346 37 304 37 Z" /><glyph glyph-name="h" unicode="h" d="M66 706 L66 -38 L164 -38 L164 369 Q193 399 230 419 Q269 439 314 440 Q342 439 368 429 Q391 419 408 400 Q425 379 432 353 Q437 330 438 307 L438 -38 L536 -38 L536 326 Q535 360 527 395 Q517 433 492 464 Q466 492 430 506 Q388 521 344 521 Q297 520 254 500 Q202 475 164 432 L164 706 L66 706 Z" /><glyph glyph-name="i" unicode="i" d="M66 507 L66 -38 L164 -38 L164 507 L66 507 ZM66 706 L66 591 L164 591 L164 706 L66 706 Z" /><glyph glyph-name="j" unicode="j" d="M-31 -125 L-31 -208 Q1 -212 35 -212 Q65 -212 94 -202 Q119 -192 138 -173 Q156 -152 164 -124 Q169 -100 170 -75 L170 507 L72 507 L72 -59 Q73 -87 55 -110 Q36 -128 10 -127 Q-10 -127 -31 -125 ZM72 706 L72 591 L170 591 L170 706 L72 706 Z" /><glyph glyph-name="k" unicode="k" d="M66 706 L66 -39 L164 -39 L164 143 L237 215 L436 -39 L551 -39 L303 280 L533 507 L412 507 L164 263 L164 706 L66 706 Z" /><glyph glyph-name="l" unicode="l" d="M66 706 L66 -38 L164 -38 L164 706 L66 706 Z" /><glyph glyph-name="m" unicode="m" d="M66 507 L66 -38 L163 -38 L163 361 Q194 397 236 420 Q270 438 309 440 Q358 439 390 402 Q421 362 420 311 L420 -38 L518 -38 L518 359 Q548 394 588 418 Q620 437 658 440 Q710 440 745 402 Q774 364 773 316 L773 -38 L872 -38 L872 329 Q871 363 863 397 Q853 435 829 465 Q803 493 769 507 Q730 520 689 521 Q640 519 597 497 Q543 469 502 424 Q480 469 439 497 Q417 509 392 515 Q365 521 338 521 Q291 520 248 500 Q199 477 163 437 L163 507 L66 507 Z" /><glyph glyph-name="n" unicode="n" d="M66 507 L66 -38 L164 -38 L164 369 Q193 399 230 419 Q269 439 314 440 Q342 439 368 429 Q391 419 408 400 Q424 379 431 353 Q436 330 437 307 L437 -38 L536 -38 L536 326 Q536 371 522 414 Q508 450 480 477 Q450 502 412 512 Q378 520 343 521 Q296 520 253 500 Q202 475 164 433 L164 507 L66 507 Z" /><glyph glyph-name="o" unicode="o" d="M44 234 Q44 173 62 116 Q80 62 118 20 Q157 -21 211 -40 Q257 -55 306 -56 Q354 -55 401 -41 Q455 -22 494 19 Q532 61 550 114 Q568 172 569 234 Q568 293 550 350 Q532 403 495 445 Q456 486 402 505 Q355 520 306 521 Q257 520 211 505 Q157 485 117 444 Q80 402 62 348 Q44 292 44 234 ZM142 234 Q141 278 155 321 Q167 357 192 387 Q238 435 306 436 Q374 436 420 387 Q445 358 457 321 Q469 278 470 234 Q469 188 457 145 Q446 108 422 78 Q398 51 364 37 Q335 28 306 28 Q236 27 190 78 Q165 108 154 145 Q141 188 142 234 Z" /><glyph glyph-name="p" unicode="p" d="M66 507 L66 -234 L164 -234 L164 14 Q203 -19 252 -39 Q293 -55 337 -56 Q382 -55 426 -42 Q476 -25 512 13 Q547 54 563 106 Q579 166 580 229 Q579 292 563 353 Q548 406 514 449 Q479 489 429 507 Q386 521 342 522 Q291 521 246 500 Q200 477 164 440 L164 507 L66 507 ZM324 437 Q354 436 383 426 Q417 411 439 382 Q461 350 471 313 Q480 271 481 229 Q480 188 470 149 Q460 113 439 82 Q416 54 383 39 Q354 29 324 29 Q281 29 242 45 Q198 64 164 97 L164 354 Q198 391 244 416 Q281 435 324 437 Z" /><glyph glyph-name="q" unicode="q" d="M46 233 Q45 170 62 110 Q78 57 114 15 Q150 -23 200 -41 Q243 -55 288 -56 Q334 -55 378 -36 Q424 -17 462 17 L462 -234 L560 -234 L560 507 L462 507 L462 443 Q389 519 284 521 Q240 520 198 507 Q149 488 113 449 Q78 408 63 355 Q45 295 46 233 ZM302 29 Q231 29 187 84 Q165 115 154 152 Q144 191 144 233 Q143 274 154 315 Q165 351 187 382 Q232 435 302 436 Q344 435 383 416 Q428 394 462 357 L462 97 Q426 64 382 45 Q343 29 302 29 Z" /><glyph glyph-name="r" unicode="r" d="M66 507 L66 -39 L163 -39 L163 323 Q200 375 256 406 Q305 435 362 438 L362 519 Q305 516 257 486 Q200 453 163 399 L163 507 L66 507 Z" /><glyph glyph-name="s" unicode="s" d="M37 86 Q63 19 125 -18 Q192 -56 270 -56 Q318 -55 365 -43 Q404 -31 437 -7 Q489 35 491 104 Q490 164 443 203 Q412 226 376 241 Q331 260 284 273 Q255 282 227 293 Q204 302 184 316 Q171 325 161 338 Q153 351 153 366 Q155 403 187 424 Q223 446 267 445 Q303 445 335 429 Q369 410 387 375 L481 392 Q453 456 393 492 Q333 522 267 521 Q230 520 194 513 Q154 504 119 482 Q89 462 71 432 Q54 403 54 370 Q54 314 96 277 Q125 253 158 238 Q202 218 248 205 Q283 192 317 177 Q334 169 350 159 Q368 148 379 130 Q386 117 387 103 Q384 63 350 41 Q314 19 273 20 Q226 18 184 39 Q146 63 129 106 L37 86 Z" /><glyph glyph-name="t" unicode="t" d="M9 507 L9 426 L102 426 L102 54 Q101 32 107 12 Q115 -10 132 -26 Q149 -42 172 -48 Q197 -55 224 -56 Q272 -56 319 -43 L319 36 Q294 26 269 26 Q253 25 237 29 Q225 32 215 40 Q197 59 199 85 L199 426 L321 426 L321 507 L199 507 L199 649 L102 649 L102 507 L9 507 Z" /><glyph glyph-name="u" unicode="u" d="M66 507 L66 139 Q65 103 74 69 Q84 31 109 0 Q135 -27 171 -41 Q213 -56 258 -56 Q304 -55 347 -36 Q399 -11 438 31 L438 -38 L536 -38 L536 507 L438 507 L438 96 Q409 64 372 44 Q334 24 292 24 Q263 23 236 34 Q212 44 194 64 Q162 105 164 158 L164 507 L66 507 Z" /><glyph glyph-name="v" unicode="v" d="M6 507 L214 -38 L335 -38 L543 507 L435 507 L275 55 L273 55 L113 507 L6 507 Z" /><glyph glyph-name="w" unicode="w" d="M7 507 L184 -38 L308 -38 Q366 180 427 398 L549 -38 L674 -38 L846 507 L738 507 Q702 387 670 266 Q642 163 613 61 L611 61 L491 507 L361 507 L245 61 L114 507 L7 507 Z" /><glyph glyph-name="x" unicode="x" d="M10 507 L209 237 L6 -38 L117 -38 L264 162 L412 -38 L523 -38 L319 237 L518 507 L408 507 L264 312 L120 507 L10 507 Z" /><glyph glyph-name="y" unicode="y" d="M6 507 L231 -29 L195 -122 Q187 -141 169 -153 Q149 -164 126 -164 Q104 -164 83 -159 L83 -244 Q117 -251 152 -250 Q189 -251 222 -233 Q258 -209 274 -169 L544 507 L439 507 L279 93 L111 507 L6 507 Z" /><glyph glyph-name="z" unicode="z" d="M35 26 L35 -38 L509 -38 L509 41 L166 41 L497 441 L497 507 L52 507 L52 426 L366 426 L35 26 Z" /><glyph glyph-name="braceleft" unicode="{" d="M88 275 L88 201 Q127 184 149 147 Q168 105 167 59 L167 -94 Q166 -121 174 -148 Q182 -176 202 -198 Q221 -216 247 -225 Q274 -233 303 -234 L357 -234 L357 -151 L321 -151 Q292 -152 273 -131 Q263 -118 260 -103 Q256 -87 257 -71 L257 80 Q257 132 238 181 Q223 218 188 238 Q223 257 239 295 Q257 338 257 386 L257 545 Q256 561 260 577 Q264 593 274 606 Q293 625 321 624 L357 624 L357 706 L303 706 Q271 705 242 696 Q217 686 198 666 Q180 645 172 618 Q166 593 167 569 L167 406 Q167 359 145 319 Q134 302 118 289 Q104 278 88 275 Z" /><glyph glyph-name="bar" unicode="|" d="M81 706 L81 -234 L171 -234 L171 706 L81 706 Z" /><glyph glyph-name="braceright" unicode="}" d="M40 706 L40 624 L76 624 Q103 625 123 606 Q133 593 137 577 Q140 561 141 545 L141 386 Q140 338 158 294 Q173 256 209 238 Q174 218 159 181 Q140 132 141 80 L141 -71 Q140 -87 137 -103 Q133 -118 123 -131 Q104 -151 76 -151 L40 -151 L40 -234 L94 -234 Q122 -233 149 -225 Q175 -216 195 -198 Q215 -176 223 -148 Q230 -121 231 -94 L231 59 Q229 105 248 147 Q269 184 309 201 L309 275 Q292 278 278 289 Q262 302 252 319 Q230 359 231 406 L231 569 Q230 593 225 618 Q217 645 199 666 Q180 686 155 696 Q125 706 94 706 L40 706 Z" /><glyph glyph-name="uniB7" unicode="·" d="M414 426 L414 254 L585 254 L585 426 L414 426 Z" /><glyph glyph-name="uni300B" unicode="&#x300b;" d="M338 817 L526 346 L338 -126 L429 -126 L617 346 L429 817 L338 817 ZM148 817 L336 346 L148 -126 L239 -126 L426 346 L239 817 L148 817 Z" /><glyph glyph-name="uni4E00" unicode="&#x4e00;" d="M43 427 L43 332 L956 332 L956 427 L43 427 Z" /><glyph glyph-name="uni4E0A" unicode="&#x4e0a;" d="M433 797 L433 31 L48 31 L48 -52 L955 -52 L955 31 L520 31 L520 434 L899 434 L899 515 L520 515 L520 797 L433 797 Z" /><glyph glyph-name="uni4E0B" unicode="&#x4e0b;" d="M57 728 L57 645 L431 645 L431 -94 L520 -94 L520 645 L944 645 L944 728 L57 728 ZM522 444 Q683 329 837 203 L893 278 Q735 399 572 513 L522 444 Z" /><glyph glyph-name="uni4E0D" unicode="&#x4e0d;" d="M84 734 L84 649 L505 649 Q420 504 302 386 Q186 270 50 179 L109 103 Q303 245 457 430 L457 -92 L543 -92 L543 480 L496 480 Q557 560 606 649 L919 649 L919 734 L84 734 ZM563 407 Q728 265 885 114 L948 187 Q785 333 617 472 L563 407 Z" /><glyph glyph-name="uni4E0E" unicode="&#x4e0e;" d="M198 348 L772 348 L754 102 Q752 73 744 45 Q739 31 730 20 Q715 7 695 3 Q666 0 638 0 L467 0 L483 -82 L664 -82 Q707 -82 750 -74 Q781 -66 803 -45 Q819 -27 827 -5 Q839 36 842 79 L864 433 L294 433 L305 579 L913 579 L913 661 L311 661 L321 785 L232 785 L198 348 ZM47 217 L47 135 L703 135 L703 217 L47 217 Z" /><glyph glyph-name="uni4E1D" unicode="&#x4e1d;" d="M497 226 L511 148 Q545 153 580 156 L903 177 L905 257 Q774 248 644 239 Q677 273 707 311 Q748 362 786 415 Q852 503 909 598 L842 637 Q799 565 752 498 Q673 495 594 496 Q636 549 673 607 Q721 682 765 760 L692 796 Q651 719 605 645 Q563 576 514 513 Q494 493 468 487 L490 412 Q516 417 544 419 L697 423 Q653 365 607 311 Q581 279 552 251 Q542 240 529 235 Q514 228 497 226 ZM109 228 L127 148 Q160 153 195 157 Q326 166 458 173 L460 254 Q357 247 255 242 Q286 276 314 313 Q353 365 390 418 Q454 510 510 607 L442 644 Q399 570 351 500 Q274 498 199 497 Q243 550 280 609 Q329 683 371 762 L296 797 Q258 720 211 648 Q186 607 158 567 Q139 539 117 514 Q98 495 72 490 L92 413 Q118 418 146 419 Q221 420 297 423 Q260 371 220 321 Q193 286 163 255 Q140 233 109 228 ZM48 16 L48 -63 L951 -63 L951 16 L48 16 Z" /><glyph glyph-name="uni4E2A" unicode="&#x4e2a;" d="M30 404 L81 320 Q197 393 300 484 Q411 582 500 701 Q585 583 694 487 Q798 394 916 320 L971 403 Q847 477 738 572 Q624 673 537 799 L461 799 Q377 675 265 575 Q156 478 30 404 ZM454 482 L454 -95 L544 -95 L544 482 L454 482 Z" /><glyph glyph-name="uni4E32" unicode="&#x4e32;" d="M148 695 L148 426 L459 426 L459 337 L108 337 L108 15 L190 15 L190 60 L459 60 L459 -99 L542 -99 L542 60 L811 60 L811 16 L894 16 L894 337 L542 337 L542 426 L852 426 L852 695 L542 695 L542 798 L459 798 L459 695 L148 695 ZM190 267 L459 267 L459 131 L190 131 L190 267 ZM811 267 L811 131 L542 131 L542 267 L811 267 ZM771 625 L771 496 L542 496 L542 625 L771 625 ZM231 625 L459 625 L459 496 L231 496 L231 625 Z" /><glyph glyph-name="uni4E3A" unicode="&#x4e3a;" d="M59 -32 L125 -99 Q212 -35 289 40 Q354 105 403 183 Q436 240 459 302 Q491 393 505 489 L795 489 Q788 293 774 99 Q772 75 764 53 Q758 40 748 32 Q732 20 712 17 Q682 13 653 14 L508 14 L527 -71 L682 -71 Q723 -71 764 -63 Q794 -56 818 -38 Q833 -24 843 -5 Q856 25 858 59 Q875 316 886 574 L515 574 Q525 683 530 793 L442 793 Q434 683 425 574 L86 574 L86 489 L415 489 Q401 404 372 324 Q350 269 319 219 Q273 150 213 92 Q140 25 59 -32 ZM494 346 Q576 261 653 172 L717 231 L557 402 L494 346 ZM156 739 Q228 663 297 585 L361 642 Q290 718 217 791 L156 739 Z" /><glyph glyph-name="uni4E3B" unicode="&#x4e3b;" d="M408 776 Q456 703 499 628 L85 628 L85 544 L455 544 L455 342 L128 342 L128 258 L455 258 L455 26 L52 26 L52 -56 L947 -56 L947 26 L543 26 L543 258 L871 258 L871 342 L543 342 L543 544 L914 544 L914 628 L512 628 L579 666 Q530 741 483 817 L408 776 Z" /><glyph glyph-name="uni4E4E" unicode="&#x4e4e;" d="M250 -5 L266 -85 L395 -85 Q433 -85 471 -76 Q492 -71 510 -59 Q530 -43 540 -18 Q549 10 549 42 L549 259 L955 259 L955 341 L549 341 L549 653 Q716 666 883 686 L869 767 Q696 744 523 732 Q304 715 84 709 L94 627 Q279 633 465 647 L465 341 L45 341 L45 259 L465 259 L465 60 Q465 43 462 26 Q459 14 450 6 Q442 0 432 -1 Q412 -5 391 -5 L250 -5 ZM628 422 L696 372 Q777 469 857 569 L790 619 Q712 517 628 422 ZM150 566 Q230 471 302 370 L368 424 Q292 521 214 616 L150 566 Z" /><glyph glyph-name="uni4E5F" unicode="&#x4e5f;" d="M463 795 L463 551 L269 504 L269 684 L184 684 L184 484 L44 450 L60 369 L184 399 L184 85 Q183 45 194 8 Q201 -12 216 -29 Q237 -51 267 -59 Q306 -68 347 -68 L785 -68 Q821 -68 857 -62 Q882 -58 903 -43 Q915 -31 922 -16 Q933 11 935 41 L944 175 L857 195 Q856 142 854 90 Q853 67 847 46 Q842 30 829 22 Q817 15 803 13 Q775 10 746 11 L380 11 Q351 10 323 15 Q303 19 288 33 Q279 44 275 58 Q268 85 269 113 L269 420 L463 467 L463 94 L548 94 L548 488 L768 542 Q762 441 757 341 Q756 322 751 304 Q747 294 740 287 Q729 278 715 276 Q694 273 673 274 L587 274 L605 193 L706 193 Q737 192 768 199 Q792 204 810 219 Q822 232 829 247 Q839 275 841 305 Q851 475 859 647 L548 572 L548 795 L463 795 Z" /><glyph glyph-name="uni4E86" unicode="&#x4e86;" d="M250 7 L266 -78 L407 -78 Q444 -78 480 -71 Q500 -66 516 -56 Q535 -41 543 -17 Q551 12 551 45 L551 418 L892 646 L892 731 L89 731 L89 646 L744 646 L460 462 L460 76 Q460 57 456 38 Q453 28 447 21 Q436 12 422 9 Q400 6 378 7 L250 7 Z" /><glyph glyph-name="uni4E8B" unicode="&#x4e8b;" d="M150 607 L150 432 L459 432 L459 375 L106 375 L106 314 L459 314 L459 252 L41 252 L41 191 L459 191 L459 131 L97 131 L97 68 L459 68 L459 45 Q459 29 455 14 Q452 3 443 -4 Q435 -9 426 -11 Q409 -15 392 -15 L271 -15 L286 -86 L411 -86 Q443 -86 475 -79 Q492 -74 506 -64 Q523 -49 530 -27 Q538 0 538 30 L538 68 L785 68 L785 27 L861 27 L861 191 L949 191 L949 252 L861 252 L861 375 L538 375 L538 432 L841 432 L841 607 L538 607 L538 664 L932 664 L932 728 L538 728 L538 801 L459 801 L459 728 L58 728 L58 664 L459 664 L459 607 L150 607 ZM785 314 L785 252 L538 252 L538 314 L785 314 ZM538 191 L785 191 L785 131 L538 131 L538 191 ZM229 549 L459 549 L459 490 L229 490 L229 549 ZM761 549 L761 490 L538 490 L538 549 L761 549 Z" /><glyph glyph-name="uni4E8E" unicode="&#x4e8e;" d="M51 427 L51 346 L468 346 L468 75 Q468 57 464 40 Q460 27 450 18 Q440 12 430 9 Q408 5 387 6 L255 6 L272 -78 L411 -78 Q448 -78 485 -70 Q505 -65 522 -53 Q542 -38 551 -14 Q560 16 560 49 L560 346 L946 346 L946 427 L560 427 L560 653 L874 653 L874 735 L124 735 L124 653 L468 653 L468 427 L51 427 Z" /><glyph glyph-name="uni4EA4" unicode="&#x4ea4;" d="M276 337 Q312 273 355 215 Q390 169 432 130 Q359 81 279 48 Q161 1 38 -31 L77 -115 Q209 -75 335 -20 Q421 18 499 73 Q576 17 664 -19 Q792 -72 926 -107 L961 -18 Q838 9 720 52 Q639 82 567 130 Q660 223 719 342 L640 380 Q587 269 499 184 Q458 220 425 263 Q383 318 350 379 L276 337 ZM418 781 Q448 725 477 669 L67 669 L67 585 L932 585 L932 669 L529 669 L572 680 Q540 743 507 807 L418 781 ZM574 502 Q723 389 869 272 L922 344 Q775 456 625 565 L574 502 ZM76 332 L126 259 Q283 367 413 507 L350 562 Q227 430 76 332 Z" /><glyph glyph-name="uni4EAB" unicode="&#x4eab;" d="M128 333 L128 265 L687 265 L468 188 L468 166 L48 166 L48 96 L468 96 L468 44 Q468 29 464 14 Q461 7 456 1 Q446 -6 434 -8 Q416 -11 398 -11 L271 -11 L286 -87 L421 -87 Q454 -87 488 -80 Q505 -76 520 -67 Q537 -54 544 -34 Q551 -9 551 17 L551 96 L951 96 L951 166 L570 166 L846 265 L846 333 L128 333 ZM178 578 L178 391 L821 391 L821 578 L178 578 ZM427 782 Q447 743 469 706 L66 706 L66 636 L932 636 L932 706 L569 706 Q542 756 515 806 L427 782 ZM257 518 L741 518 L741 453 L257 453 L257 518 Z" /><glyph glyph-name="uni4EBA" unicode="&#x4eba;" d="M54 -20 L117 -92 Q175 -49 230 -1 Q295 57 351 124 Q452 249 500 402 Q544 268 628 154 Q680 85 742 24 Q810 -42 886 -101 L947 -24 Q855 39 776 118 Q703 191 648 280 Q553 440 536 626 Q536 641 537 658 Q538 721 539 785 L452 785 Q451 738 450 692 Q449 575 424 462 Q399 360 345 270 Q302 201 247 141 Q158 51 54 -20 Z" /><glyph glyph-name="uni4ED6" unicode="&#x4ed6;" d="M582 793 L582 541 L452 502 L452 693 L373 693 L373 478 L269 446 L288 368 L373 394 L373 60 Q372 26 381 -6 Q387 -24 400 -39 Q418 -57 444 -63 Q477 -71 512 -71 L796 -71 Q832 -71 867 -65 Q886 -60 902 -51 Q921 -38 930 -17 Q939 9 941 38 Q945 99 946 162 L864 178 L861 75 Q860 56 856 38 Q851 25 839 17 Q828 11 815 9 Q788 5 761 6 L541 6 Q516 5 492 9 Q480 12 470 19 Q459 28 455 43 Q451 63 452 84 L452 419 L582 459 L582 93 L661 93 L661 483 L802 527 L794 319 Q793 303 790 288 Q787 278 779 272 Q771 267 762 266 Q744 263 725 264 L678 264 L695 185 L750 185 Q779 184 808 190 Q829 195 846 208 Q856 219 863 233 Q871 257 873 284 L884 634 L661 565 L661 793 L582 793 ZM31 353 L75 275 Q126 342 170 414 L170 -97 L249 -97 L249 562 Q294 661 329 765 L250 783 Q213 668 159 560 Q106 449 31 353 Z" /><glyph glyph-name="uni4EE3" unicode="&#x4ee3;" d="M304 471 L312 388 L527 407 Q540 289 570 175 Q584 125 604 78 Q621 39 646 5 Q673 -36 713 -66 Q746 -89 787 -90 Q829 -90 860 -62 Q878 -44 889 -21 Q899 0 907 24 Q926 92 939 162 L866 196 Q853 136 840 78 Q833 46 817 19 Q806 3 787 4 Q767 4 752 15 Q732 32 717 54 Q698 81 684 112 Q667 154 654 198 Q624 305 611 415 L946 445 L939 527 L602 497 Q597 547 595 599 Q589 696 586 795 L500 795 L510 603 Q512 546 519 490 L304 471 ZM36 333 L76 246 Q138 322 190 407 L190 -95 L274 -95 L274 560 Q323 660 360 767 L277 791 Q231 652 163 524 Q109 422 36 333 ZM659 705 Q743 633 824 557 L877 618 Q792 690 707 761 L659 705 Z" /><glyph glyph-name="uni4EF6" unicode="&#x4ef6;" d="M614 798 L614 593 L485 593 Q503 659 518 726 L435 749 Q391 556 311 377 L399 347 Q433 428 460 512 L614 512 L614 287 L308 287 L308 206 L614 206 L614 -100 L697 -100 L697 206 L958 206 L958 287 L697 287 L697 512 L922 512 L922 593 L697 593 L697 798 L614 798 ZM26 344 L65 255 Q123 326 170 407 L170 -98 L255 -98 L255 577 Q295 672 324 772 L238 797 Q203 679 152 567 Q99 450 26 344 Z" /><glyph glyph-name="uni4F17" unicode="&#x4f17;" d="M47 455 L93 374 Q185 420 271 480 Q268 438 266 396 Q261 329 245 264 Q232 220 213 179 Q184 122 145 72 Q97 14 43 -37 L117 -96 Q199 -13 260 86 Q306 163 329 251 Q389 184 448 116 L512 177 Q430 265 348 353 L352 391 Q355 436 358 483 L276 483 Q406 571 502 696 Q581 592 685 512 Q790 432 908 374 L954 455 Q815 519 697 615 Q605 690 540 788 L463 788 Q399 691 309 618 Q188 520 47 455 ZM343 -44 L412 -108 Q500 -34 571 55 Q623 124 654 206 Q687 122 743 51 Q812 -32 900 -97 L959 -28 Q900 12 848 62 Q802 108 766 162 Q707 256 689 366 Q689 376 691 387 L697 483 L610 483 Q608 436 605 390 Q600 323 582 259 Q562 199 528 145 Q499 103 464 65 Q407 6 343 -44 Z" /><glyph glyph-name="uni4F1A" unicode="&#x4f1a;" d="M41 470 L80 392 Q157 429 230 476 L230 414 L774 414 L774 478 Q845 431 922 395 L961 474 Q838 531 729 612 Q622 691 542 799 L463 799 Q382 690 274 609 Q165 527 41 470 ZM135 9 L153 -67 Q198 -60 244 -57 Q498 -43 753 -36 L810 -102 L874 -44 Q768 75 661 193 L596 142 Q641 89 688 38 Q491 29 295 24 Q392 111 472 216 L925 216 L925 294 L77 294 L77 216 L363 216 Q290 121 199 45 Q170 20 135 9 ZM502 714 Q548 656 603 606 Q675 543 756 490 L250 490 Q320 536 385 592 Q449 647 502 714 Z" /><glyph glyph-name="uni4F5C" unicode="&#x4f5c;" d="M285 416 L343 353 Q429 453 491 571 L544 571 L544 -101 L629 -101 L629 104 L909 104 L909 187 L629 187 L629 338 L887 338 L887 422 L629 422 L629 571 L937 571 L937 655 L531 655 Q557 714 579 776 L497 799 Q457 684 398 579 Q349 492 285 416 ZM23 357 L72 280 Q123 341 168 408 L168 -95 L254 -95 L254 560 Q301 658 336 761 L250 786 Q211 671 155 563 Q99 453 23 357 Z" /><glyph glyph-name="uni4F60" unicode="&#x4f60;" d="M26 356 L75 288 Q119 346 158 409 L158 -96 L241 -96 L241 566 Q285 665 318 770 L233 789 Q165 555 26 356 ZM295 433 L366 389 Q430 484 482 588 L839 588 L767 453 L846 426 L931 588 L931 667 L519 667 Q543 722 562 779 L478 795 Q414 599 295 433 ZM433 -4 L450 -85 L556 -85 Q585 -85 613 -78 Q629 -74 642 -65 Q658 -52 665 -33 Q672 -8 672 17 L672 513 L591 513 L591 47 Q591 33 587 19 Q585 12 579 7 Q570 0 559 -1 Q542 -4 526 -4 L433 -4 ZM261 20 L338 -13 Q393 78 437 176 Q476 260 504 349 L429 370 Q366 184 261 20 ZM731 338 Q814 162 893 -15 L968 19 Q887 195 803 371 L731 338 Z" /><glyph glyph-name="uni4FE1" unicode="&#x4fe1;" d="M359 235 L359 -96 L443 -96 L443 -43 L795 -43 L795 -95 L878 -95 L878 235 L359 235 ZM28 363 L80 289 Q123 345 160 406 L160 -98 L241 -98 L241 565 Q284 666 314 773 L232 795 Q201 683 152 578 Q101 463 28 363 ZM550 780 Q576 732 601 683 L307 683 L307 605 L955 605 L955 683 L695 683 Q665 743 634 803 L550 780 ZM443 160 L795 160 L795 30 L443 30 L443 160 ZM362 382 L362 310 L875 310 L875 382 L362 382 ZM362 528 L362 458 L875 458 L875 528 L362 528 Z" /><glyph glyph-name="uni503C" unicode="&#x503c;" d="M574 796 L574 714 L323 714 L323 642 L574 642 L574 559 L361 559 L361 17 L274 17 L274 -56 L956 -56 L956 17 L870 17 L870 559 L658 559 L658 642 L928 642 L928 714 L658 714 L658 796 L574 796 ZM27 365 L71 276 Q112 335 147 399 L147 -94 L229 -94 L229 574 Q268 675 298 781 L211 799 Q178 669 126 547 Q85 451 27 365 ZM445 221 L786 221 L786 150 L445 150 L445 221 ZM445 489 L786 489 L786 419 L445 419 L445 489 ZM445 87 L786 87 L786 17 L445 17 L445 87 ZM445 355 L786 355 L786 286 L445 286 L445 355 Z" /><glyph glyph-name="uni5176" unicode="&#x5176;" d="M43 205 L43 129 L956 129 L956 205 L780 205 L780 617 L925 617 L925 692 L780 692 L780 793 L696 793 L696 692 L303 692 L303 793 L219 793 L219 692 L74 692 L74 617 L219 617 L219 205 L43 205 ZM303 294 L696 294 L696 205 L303 205 L303 294 ZM303 617 L696 617 L696 528 L303 528 L303 617 ZM303 455 L696 455 L696 367 L303 367 L303 455 ZM576 39 Q735 -27 889 -106 L927 -34 Q769 40 610 109 L576 39 ZM67 -35 L101 -110 Q262 -41 416 42 L378 112 Q229 24 67 -35 Z" /><glyph glyph-name="uni517C" unicode="&#x517c;" d="M38 407 L38 337 L329 337 L329 265 L103 265 L103 196 L303 196 Q245 128 174 78 Q103 28 25 -9 L71 -85 Q150 -41 221 14 Q279 59 329 115 L329 -104 L407 -104 L407 196 L545 196 L545 -104 L623 -104 L623 122 Q684 56 759 6 Q831 -42 911 -77 L950 0 Q866 31 790 79 Q715 129 655 196 L834 196 L834 337 L944 337 L944 407 L834 407 L834 549 L623 549 L623 628 L921 628 L921 698 L670 698 Q701 738 730 781 L657 820 Q616 756 570 698 L349 698 L383 718 Q344 770 302 821 L236 779 L299 698 L55 698 L55 628 L329 628 L329 549 L112 549 L112 479 L329 479 L329 407 L38 407 ZM407 628 L545 628 L545 549 L407 549 L407 628 ZM407 337 L545 337 L545 265 L407 265 L407 337 ZM407 479 L545 479 L545 407 L407 407 L407 479 ZM756 479 L756 407 L623 407 L623 479 L756 479 ZM623 265 L623 337 L756 337 L756 265 L623 265 Z" /><glyph glyph-name="uni5199" unicode="&#x5199;" d="M209 265 L770 265 Q764 175 756 87 Q753 63 745 41 Q737 24 722 13 Q709 5 694 1 Q666 -4 639 -4 L496 -4 L512 -82 L664 -82 Q707 -82 748 -73 Q772 -66 792 -53 Q817 -34 829 -6 Q842 29 845 67 Q853 204 860 343 L304 343 L316 456 L795 456 L795 532 L324 532 L333 621 L247 621 L209 265 ZM108 742 L108 527 L193 527 L193 663 L816 663 L816 531 L903 531 L903 742 L108 742 ZM69 159 L69 81 L693 81 L693 159 L69 159 Z" /><glyph glyph-name="uni51CF" unicode="&#x51cf;" d="M509 -29 L562 -87 Q652 -15 725 74 Q733 47 745 23 Q755 0 767 -21 Q780 -41 797 -58 Q823 -81 858 -81 Q893 -81 914 -53 Q929 -32 936 -9 Q943 16 947 43 Q956 106 961 171 L896 186 Q892 133 886 81 Q883 49 873 19 Q869 4 856 2 Q842 2 834 13 Q821 32 813 53 Q791 100 779 151 Q822 220 850 297 Q885 394 904 495 L833 507 Q810 378 757 259 Q732 420 723 583 L934 583 L934 659 L857 659 L895 689 Q847 744 796 796 L746 756 Q790 709 832 659 L718 659 Q714 728 711 798 L636 798 Q638 728 643 659 L289 659 L289 243 Q288 155 263 71 Q240 0 199 -63 L271 -107 Q313 -34 334 47 Q360 143 362 243 L362 583 L648 583 Q654 471 667 360 Q678 260 701 162 Q662 107 615 61 L615 334 L410 334 L410 43 L596 43 Q554 4 509 -29 ZM222 366 L184 373 L143 381 Q92 182 31 -14 L113 -33 Q168 166 222 366 ZM55 738 Q112 606 160 471 L238 499 Q185 631 130 763 L55 738 ZM403 488 L403 415 L627 415 L627 488 L403 488 ZM470 262 L553 262 L553 114 L470 114 L470 262 Z" /><glyph glyph-name="uni5206" unicode="&#x5206;" d="M48 -44 L112 -111 Q187 -69 254 -15 Q292 16 324 55 Q359 102 377 158 Q394 219 397 283 L400 336 L685 336 Q676 215 665 95 Q663 71 655 49 Q649 36 640 27 Q625 15 606 12 Q578 7 551 8 L415 8 L432 -73 L577 -73 Q617 -73 657 -65 Q686 -58 710 -40 Q725 -25 734 -6 Q748 25 751 61 Q767 239 778 418 L186 418 Q350 560 440 759 L360 790 Q304 670 217 570 Q138 480 39 411 L88 339 Q129 369 170 403 L170 336 L315 336 L310 284 Q304 230 288 180 Q272 133 241 94 Q212 62 178 35 Q116 -9 48 -44 ZM550 776 Q578 699 618 629 Q646 580 681 536 Q727 478 784 429 Q848 376 918 333 L966 411 Q900 450 841 498 Q802 531 767 569 Q723 619 689 676 Q654 738 629 805 L550 776 Z" /><glyph glyph-name="uni5212" unicode="&#x5212;" d="M164 795 Q167 697 172 600 L175 539 L42 517 L53 438 L181 459 Q191 318 223 182 Q131 106 29 48 L73 -23 Q165 31 248 99 Q264 53 290 12 Q314 -30 351 -62 Q379 -86 417 -87 Q458 -86 486 -56 Q502 -37 512 -14 Q521 7 528 30 Q544 94 557 159 L483 188 Q474 130 463 74 Q457 45 444 20 Q435 4 418 3 Q402 4 391 15 Q373 32 361 54 Q330 101 314 156 Q431 270 511 415 L445 456 Q383 339 291 246 Q270 358 262 472 L556 521 L545 599 L257 552 Q255 571 255 592 Q249 693 247 795 L164 795 ZM646 -4 L663 -84 L771 -84 Q803 -84 835 -77 Q852 -72 866 -62 Q881 -47 887 -26 Q893 0 893 29 L893 794 L815 794 L815 59 Q815 42 812 25 Q809 14 801 6 Q793 1 785 -1 Q767 -4 749 -4 L646 -4 ZM615 706 L615 125 L693 125 L693 706 L615 706 ZM293 729 Q361 663 426 594 L477 644 Q410 712 339 776 L293 729 Z" /><glyph glyph-name="uni5224" unicode="&#x5224;" d="M85 466 L85 387 L280 387 Q280 327 277 269 L58 269 L58 190 L267 190 Q256 121 218 63 Q195 31 167 3 Q133 -30 96 -61 L160 -115 Q201 -79 239 -40 Q271 -6 296 32 Q338 105 350 190 L571 190 L571 269 L358 269 Q361 323 361 379 L361 387 L551 387 L551 466 L361 466 L361 791 L280 791 L280 466 L85 466 ZM622 2 L640 -83 L767 -83 Q800 -83 833 -75 Q851 -70 866 -60 Q884 -45 891 -23 Q899 3 899 32 L899 786 L818 786 L818 65 Q818 49 814 33 Q810 21 800 13 Q791 8 781 5 Q761 1 741 2 L622 2 ZM623 704 L623 121 L705 121 L705 704 L623 704 ZM382 533 L448 500 Q509 602 567 707 L501 740 Q444 634 382 533 ZM73 701 Q128 603 179 504 L247 538 Q193 637 138 735 L73 701 Z" /><glyph glyph-name="uni522B" unicode="&#x522b;" d="M53 328 L53 251 L192 251 Q187 202 175 154 Q166 124 153 95 Q134 56 107 23 Q74 -14 37 -49 L105 -102 Q145 -60 180 -15 Q209 23 230 68 Q245 101 254 137 Q267 193 273 251 L434 251 L428 91 Q427 68 420 47 Q416 35 407 26 Q392 14 374 11 Q348 6 321 7 L240 7 L255 -68 L348 -68 Q385 -68 422 -60 Q450 -53 471 -35 Q485 -21 493 -3 Q505 26 507 59 Q512 193 517 328 L279 328 L283 442 L508 442 L508 749 L104 749 L104 442 L202 442 L198 328 L53 328 ZM616 -4 L633 -85 L752 -85 Q786 -85 819 -77 Q837 -72 852 -61 Q870 -46 877 -24 Q885 3 885 33 L885 783 L807 783 L807 62 Q807 44 802 28 Q799 18 792 11 Q782 2 768 0 Q749 -4 730 -4 L616 -4 ZM613 702 L613 137 L691 137 L691 702 L613 702 ZM184 674 L426 674 L426 519 L184 519 L184 674 Z" /><glyph glyph-name="uni526A" unicode="&#x526a;" d="M103 193 L103 124 L381 124 Q370 91 347 64 Q320 37 285 20 Q249 4 212 -6 Q144 -24 75 -37 L101 -111 Q184 -95 265 -70 Q322 -51 373 -18 Q403 3 425 32 Q453 74 466 124 L796 124 Q790 87 783 51 Q779 35 773 20 Q768 9 758 2 Q749 -2 739 -4 Q718 -7 698 -7 L534 -7 L550 -80 L725 -80 Q760 -80 794 -73 Q812 -69 827 -59 Q845 -45 853 -24 Q863 4 868 34 L889 193 L103 193 ZM131 587 L131 235 L210 235 L210 336 L419 336 L419 327 Q419 317 417 308 Q414 300 408 295 Q399 290 388 289 Q376 287 364 288 L285 288 L297 233 L381 233 Q411 232 441 238 Q456 242 470 250 Q485 262 491 280 Q498 302 498 326 L498 587 L131 587 ZM253 769 Q283 735 314 702 L59 702 L59 636 L941 636 L941 702 L691 702 Q721 736 749 773 L681 810 Q638 754 592 702 L387 702 L404 711 Q362 763 318 812 L253 769 ZM617 299 L631 235 L739 235 Q771 234 803 240 Q826 245 844 260 Q855 272 860 287 Q868 314 868 343 L868 593 L793 593 L793 364 Q793 349 789 334 Q786 322 777 313 Q766 304 752 301 Q737 298 722 299 L617 299 ZM602 578 L602 337 L675 337 L675 578 L602 578 ZM210 434 L419 434 L419 388 L210 388 L210 434 ZM210 532 L419 532 L419 486 L210 486 L210 532 Z" /><glyph glyph-name="uni52A8" unicode="&#x52a8;" d="M318 289 Q355 201 390 114 Q283 106 177 100 Q208 159 232 221 Q265 305 293 392 L498 392 L498 474 L58 474 L58 392 L204 392 Q180 320 153 250 Q128 185 97 124 Q84 94 54 82 L83 -1 Q113 6 145 11 Q282 24 421 35 L434 0 L489 28 Q454 -21 415 -67 L490 -117 Q544 -50 587 25 Q613 75 630 130 Q652 212 660 297 Q669 412 673 528 L829 528 Q821 310 813 93 Q812 71 806 49 Q802 38 794 29 Q781 19 765 15 Q741 11 717 12 L618 12 L635 -71 L750 -71 Q784 -71 818 -63 Q843 -57 862 -40 Q874 -26 881 -9 Q891 21 892 53 L911 611 L676 611 Q678 703 679 797 L600 797 Q596 704 596 611 L465 611 L465 528 L593 528 Q590 441 585 355 Q580 289 568 224 Q551 132 504 51 Q450 184 393 317 L318 289 ZM99 723 L99 643 L465 643 L465 723 L99 723 Z" /><glyph glyph-name="uni5316" unicode="&#x5316;" d="M291 209 L335 131 Q421 180 503 237 L503 66 Q502 31 511 -1 Q517 -20 529 -34 Q547 -53 572 -59 Q606 -67 641 -67 L790 -67 Q824 -67 857 -59 Q876 -54 892 -44 Q911 -29 920 -7 Q930 19 932 49 Q937 133 940 218 L858 237 Q855 158 852 80 Q851 63 846 48 Q841 36 831 28 Q822 23 812 21 Q794 17 775 18 L662 18 Q643 17 626 21 Q613 24 603 33 Q597 41 594 50 Q589 68 590 86 L590 300 Q770 439 925 607 L862 670 Q736 530 590 413 L590 791 L503 791 L503 347 Q400 272 291 209 ZM34 333 L73 247 Q136 320 191 400 L191 -96 L278 -96 L278 546 Q334 655 375 772 L292 798 Q243 660 171 533 Q111 427 34 333 Z" /><glyph glyph-name="uni535A" unicode="&#x535a;" d="M582 796 L582 697 L319 697 L319 631 L582 631 L582 568 L346 568 L346 214 L422 214 L422 264 L582 264 L582 221 L654 221 L654 264 L811 264 L811 233 L742 233 L742 179 L279 179 L279 110 L419 110 L385 68 Q456 17 524 -39 L570 19 L448 110 L742 110 L742 42 Q742 27 739 12 Q735 1 726 -5 Q718 -10 708 -12 Q689 -16 669 -16 L570 -16 L584 -87 L692 -87 Q724 -87 756 -81 Q773 -77 788 -68 Q804 -55 810 -35 Q817 -8 817 19 L817 110 L956 110 L956 179 L817 179 L817 214 L888 214 L888 568 L654 568 L654 631 L943 631 L943 697 L839 697 L865 721 Q846 737 828 753 Q794 781 763 811 L714 769 Q753 733 793 697 L654 697 L654 796 L582 796 ZM46 558 L46 474 L148 474 L148 -96 L224 -96 L224 474 L318 474 L318 558 L224 558 L224 794 L148 794 L148 558 L46 558 ZM422 386 L582 386 L582 323 L422 323 L422 386 ZM654 386 L811 386 L811 323 L654 323 L654 386 ZM422 506 L582 506 L582 445 L422 445 L422 506 ZM811 506 L811 445 L654 445 L654 506 L811 506 Z" /><glyph glyph-name="uni539F" unicode="&#x539f;" d="M408 -8 L425 -86 L530 -86 Q562 -86 593 -80 Q615 -75 632 -60 Q643 -48 648 -33 Q656 -6 656 21 L656 223 L879 223 L879 582 L611 582 Q624 621 636 661 L579 672 L953 672 L953 750 L146 750 L146 420 Q146 337 141 256 Q136 194 122 134 Q111 93 94 55 Q68 -1 35 -54 L112 -110 Q175 -14 203 96 Q219 167 224 238 Q231 330 231 423 L231 672 L547 672 Q533 625 515 582 L327 582 L327 223 L570 223 L570 52 Q570 36 566 21 Q563 9 553 2 Q545 -2 535 -4 Q516 -8 497 -8 L408 -8 ZM407 514 L800 514 L800 437 L407 437 L407 514 ZM407 292 L407 368 L800 368 L800 292 L407 292 ZM213 -14 L269 -76 Q380 24 470 144 L404 190 Q320 77 213 -14 ZM709 132 Q809 36 907 -62 L966 -6 Q866 89 765 184 L709 132 Z" /><glyph glyph-name="uni53C2" unicode="&#x53c2;" d="M31 241 L73 171 Q150 207 223 253 L248 187 Q437 226 614 304 L587 368 Q414 292 229 257 Q333 321 408 418 L587 418 Q644 341 721 283 Q817 213 929 170 L966 248 Q884 274 811 316 Q739 358 683 418 L938 418 L938 489 L456 489 Q475 521 492 555 L405 573 Q383 529 357 489 L60 489 L60 418 L303 418 Q255 366 197 327 Q118 276 31 241 ZM587 713 L691 639 Q491 634 291 632 Q396 691 491 768 L429 815 Q316 723 193 648 Q165 634 135 631 L153 565 Q194 568 236 570 Q505 575 775 579 L852 522 L897 582 Q765 677 632 770 L587 713 ZM104 -41 L130 -111 Q327 -83 520 -31 Q695 15 856 99 L818 163 Q667 82 502 36 Q399 9 295 -10 Q200 -27 104 -41 ZM161 104 L185 40 Q329 65 471 107 Q603 147 728 209 L696 273 Q572 211 441 170 Q303 127 161 104 Z" /><glyph glyph-name="uni53D1" unicode="&#x53d1;" d="M172 -23 L209 -104 Q318 -70 423 -26 Q497 4 567 46 Q645 -6 732 -43 Q822 -82 915 -111 L951 -24 Q869 -2 791 28 Q714 58 643 101 Q694 143 736 195 Q787 260 827 334 L827 412 L399 412 Q418 468 431 527 L936 527 L936 605 L448 605 Q465 695 476 788 L389 795 Q378 699 359 605 L197 605 Q220 683 238 763 L155 780 Q135 687 107 597 L107 527 L340 527 Q302 385 230 257 Q145 113 22 0 L85 -68 Q173 17 247 116 Q304 194 347 282 Q406 180 494 102 Q420 62 342 33 Q258 1 172 -23 ZM415 333 L729 333 Q670 223 571 151 Q475 227 415 333 ZM602 735 Q691 685 780 633 L823 704 Q735 755 646 804 L602 735 Z" /><glyph glyph-name="uni53D6" unicode="&#x53d6;" d="M551 96 L549 138 L547 176 L461 160 L461 676 L524 676 L524 754 L67 754 L67 676 L129 676 L129 105 Q84 96 40 92 L47 10 Q214 39 382 68 L382 -101 L461 -101 L461 81 L551 96 ZM549 607 Q563 480 598 357 Q624 266 672 185 Q635 134 592 89 Q534 31 469 -19 L525 -85 Q634 3 720 114 Q805 4 915 -82 L971 -13 Q906 35 849 91 Q804 135 769 186 Q819 272 849 368 Q887 495 908 627 L908 708 L540 708 L540 627 L825 627 Q808 520 779 416 Q757 338 721 266 Q685 336 664 412 Q638 513 627 618 L549 607 ZM209 118 L209 266 L382 266 L382 147 Q295 131 209 118 ZM209 676 L382 676 L382 543 L209 543 L209 676 ZM209 469 L382 469 L382 340 L209 340 L209 469 Z" /><glyph glyph-name="uni53D8" unicode="&#x53d8;" d="M43 -34 L72 -112 Q201 -85 328 -48 Q415 -22 500 13 Q584 -23 672 -48 Q798 -84 927 -109 L956 -28 Q846 -10 738 15 Q663 33 591 60 Q718 134 805 255 L805 326 L128 326 L128 253 L239 253 L216 240 Q293 130 409 61 Q334 32 257 12 Q151 -15 43 -34 ZM423 786 Q449 739 472 690 L71 690 L71 614 L353 614 L353 364 L432 364 L432 614 L569 614 L569 364 L648 364 L648 614 L930 614 L930 690 L537 690 L564 699 Q537 758 507 816 L423 786 ZM310 253 L693 253 Q610 157 497 101 Q387 157 310 253 ZM37 387 L84 322 Q208 408 312 520 L259 571 Q157 467 37 387 ZM690 512 Q804 427 915 338 L963 404 Q852 489 739 572 L690 512 Z" /><glyph glyph-name="uni53E3" unicode="&#x53e3;" d="M139 706 L139 -84 L227 -84 L227 5 L772 5 L772 -79 L860 -79 L860 706 L139 706 ZM227 616 L772 616 L772 94 L227 94 L227 616 Z" /><glyph glyph-name="uni53EA" unicode="&#x53ea;" d="M159 739 L159 271 L839 271 L839 739 L159 739 ZM245 658 L753 658 L753 353 L245 353 L245 658 ZM40 -27 L104 -103 Q271 14 405 168 L338 230 Q206 81 40 -27 ZM594 162 Q744 37 885 -99 L951 -23 Q805 105 657 229 L594 162 Z" /><glyph glyph-name="uni53F0" unicode="&#x53f0;" d="M163 313 L163 -99 L249 -99 L249 -49 L748 -49 L748 -99 L834 -99 L834 313 L163 313 ZM592 654 Q659 586 726 517 L259 503 Q321 554 375 614 Q444 689 507 770 L429 811 Q365 721 288 643 Q226 577 156 522 Q140 510 122 504 Q98 496 73 493 L95 410 Q141 416 189 419 Q494 430 801 439 L865 370 L926 427 Q791 570 651 709 L592 654 ZM249 231 L748 231 L748 32 L249 32 L249 231 Z" /><glyph glyph-name="uni53F7" unicode="&#x53f7;" d="M176 753 L176 486 L823 486 L823 753 L176 753 ZM189 165 L709 165 Q706 120 700 77 Q698 54 690 33 Q685 22 676 13 Q659 3 640 1 Q609 -2 578 -2 L373 -2 L390 -83 L603 -83 Q650 -83 696 -76 Q728 -70 753 -51 Q769 -36 778 -16 Q791 19 795 58 Q803 147 811 238 L300 238 L320 330 L954 330 L954 404 L47 404 L47 330 L224 330 L189 165 ZM266 680 L734 680 L734 558 L266 558 L266 680 Z" /><glyph glyph-name="uni540C" unicode="&#x540c;" d="M100 743 L100 -92 L183 -92 L183 665 L804 665 L804 57 Q804 39 800 22 Q797 10 787 2 Q779 -2 769 -4 Q749 -8 730 -8 L624 -8 L641 -85 L758 -85 Q791 -85 823 -78 Q847 -73 864 -57 Q875 -43 880 -27 Q888 3 888 35 L888 743 L100 743 ZM300 382 L300 66 L687 66 L687 382 L300 382 ZM377 310 L610 310 L610 137 L377 137 L377 310 ZM243 555 L243 482 L744 482 L744 555 L243 555 Z" /><glyph glyph-name="uni540D" unicode="&#x540d;" d="M81 492 L135 423 Q203 466 267 516 Q341 458 417 402 L476 464 Q404 517 332 570 Q358 593 384 619 L755 619 Q690 554 617 500 Q534 441 444 396 Q340 343 229 304 Q134 271 37 245 L69 169 Q155 193 241 224 L241 -92 L324 -92 L324 -39 L786 -39 L786 -92 L868 -92 L868 314 L459 314 Q572 368 674 441 Q782 519 870 619 L870 697 L456 697 Q489 736 519 778 L437 806 Q362 709 269 630 Q181 552 81 492 ZM324 235 L786 235 L786 37 L324 37 L324 235 Z" /><glyph glyph-name="uni5458" unicode="&#x5458;" d="M192 757 L192 507 L809 507 L809 757 L192 757 ZM160 424 L160 102 L246 102 L246 346 L755 346 L755 107 L840 107 L840 424 L160 424 ZM62 -22 L90 -103 Q213 -79 329 -31 Q377 -10 422 19 Q457 43 486 77 Q688 -9 888 -101 L928 -21 Q727 65 525 149 L527 158 Q543 231 549 306 L462 306 Q455 253 446 201 Q437 156 410 120 Q377 81 331 58 Q286 35 238 20 Q151 -5 62 -22 ZM280 682 L721 682 L721 580 L280 580 L280 682 Z" /><glyph glyph-name="uni548C" unicode="&#x548c;" d="M519 704 L519 -70 L601 -70 L601 5 L820 5 L820 -64 L901 -64 L901 704 L519 704 ZM67 710 L75 632 Q152 641 229 655 L229 528 L54 528 L54 447 L221 447 Q148 286 33 154 L75 73 Q165 180 229 306 L229 -98 L310 -98 L310 299 Q374 232 437 164 L495 223 Q418 301 338 377 L310 350 L310 447 L481 447 L481 528 L310 528 L310 669 Q386 682 461 702 L445 780 Q257 734 67 710 ZM601 617 L820 617 L820 92 L601 92 L601 617 Z" /><glyph glyph-name="uni552E" unicode="&#x552e;" d="M485 785 Q513 743 540 700 L279 700 Q301 740 322 782 L241 806 Q198 712 138 628 Q90 560 27 506 L71 429 Q119 475 162 528 L162 228 L245 228 L245 263 L934 263 L934 331 L600 331 L600 391 L889 391 L889 453 L600 453 L600 513 L889 513 L889 575 L600 575 L600 634 L912 634 L912 700 L594 700 L627 713 Q593 767 557 820 L485 785 ZM153 191 L153 -96 L238 -96 L238 -49 L766 -49 L766 -96 L850 -96 L850 191 L153 191 ZM238 124 L766 124 L766 17 L238 17 L238 124 ZM245 391 L518 391 L518 331 L245 331 L245 391 ZM245 513 L518 513 L518 453 L245 453 L245 513 ZM245 634 L518 634 L518 575 L245 575 L245 634 Z" /><glyph glyph-name="uni5531" unicode="&#x5531;" d="M407 316 L407 -95 L485 -95 L485 -50 L827 -50 L827 -94 L907 -94 L907 316 L407 316 ZM94 697 L94 -14 L173 -14 L173 68 L338 68 L338 697 L94 697 ZM435 740 L435 393 L877 393 L877 740 L435 740 ZM173 614 L259 614 L259 152 L173 152 L173 614 ZM485 99 L827 99 L827 16 L485 16 L485 99 ZM485 248 L827 248 L827 167 L485 167 L485 248 ZM513 462 L513 534 L798 534 L798 462 L513 462 ZM513 671 L798 671 L798 600 L513 600 L513 671 Z" /><glyph glyph-name="uni5546" unicode="&#x5546;" d="M122 511 L122 -90 L200 -90 L200 437 L803 437 L803 55 Q803 38 799 21 Q795 9 786 0 Q777 -6 768 -9 Q749 -14 731 -14 L621 -14 L637 -86 L754 -86 Q785 -86 817 -79 Q839 -74 856 -58 Q868 -45 873 -28 Q881 1 881 32 L881 511 L664 511 Q696 552 726 596 L672 627 L944 627 L944 702 L571 702 Q545 755 519 808 L431 789 Q451 745 473 702 L56 702 L56 627 L315 627 L271 600 Q307 556 341 511 L122 511 ZM205 260 L252 203 L315 253 L315 7 L685 7 L685 258 Q715 231 745 203 L797 260 Q701 344 603 425 L549 375 Q609 325 667 274 L340 274 Q399 323 455 378 L402 427 Q310 335 205 260 ZM389 202 L611 202 L611 80 L389 80 L389 202 ZM425 532 Q388 580 350 627 L648 627 Q606 566 559 511 L393 511 L425 532 Z" /><glyph glyph-name="uni5668" unicode="&#x5668;" d="M541 215 L541 -89 L616 -89 L616 -43 L802 -43 L802 -89 L877 -89 L877 178 L938 166 L961 239 Q853 253 750 286 Q681 308 624 351 L927 351 L927 423 L744 423 L768 447 L693 510 L883 510 L883 760 L542 760 L542 510 L665 510 L633 478 Q665 450 699 423 L517 423 Q531 455 543 489 L455 501 Q444 460 424 423 L69 423 L69 351 L361 351 Q299 307 226 284 Q132 254 36 237 L59 162 Q89 169 120 178 L120 -89 L195 -89 L195 -43 L376 -43 L376 -89 L451 -89 L451 215 L241 215 Q312 238 377 273 Q433 303 474 351 L517 351 Q560 309 611 278 Q676 239 749 215 L541 215 ZM112 760 L112 510 L451 510 L451 760 L112 760 ZM616 148 L802 148 L802 23 L616 23 L616 148 ZM195 148 L376 148 L376 23 L195 23 L195 148 ZM617 693 L809 693 L809 578 L617 578 L617 693 ZM187 693 L376 693 L376 578 L187 578 L187 693 Z" /><glyph glyph-name="uni56FE" unicode="&#x56fe;" d="M100 752 L100 -104 L178 -104 L178 -52 L820 -52 L820 -104 L898 -104 L898 752 L100 752 ZM178 679 L820 679 L820 19 L178 19 L178 679 ZM199 465 L239 416 Q285 450 326 492 Q374 443 431 405 Q312 355 189 324 L217 260 Q286 280 355 304 L346 249 Q491 220 636 188 L646 249 Q504 277 364 308 Q433 332 500 365 Q555 337 614 316 Q696 287 781 267 L809 334 Q740 347 672 366 Q618 381 567 402 Q655 456 730 529 L730 587 L407 587 Q428 617 448 649 L384 672 Q308 553 199 465 ZM272 126 Q476 86 680 44 L692 106 Q487 147 282 187 L272 126 ZM373 529 L631 529 Q570 472 496 436 Q427 472 373 529 Z" /><glyph glyph-name="uni5728" unicode="&#x5728;" d="M23 244 L74 171 Q132 221 186 279 L186 -96 L270 -96 L270 380 Q347 483 401 601 L933 601 L933 681 L435 681 Q456 734 474 789 L390 809 Q369 743 343 681 L51 681 L51 601 L305 601 Q199 394 23 244 ZM575 534 L575 373 L345 373 L345 293 L575 293 L575 46 L303 46 L303 -34 L932 -34 L932 46 L658 46 L658 293 L894 293 L894 373 L658 373 L658 534 L575 534 Z" /><glyph glyph-name="uni575B" unicode="&#x575b;" d="M355 24 L384 -60 Q424 -47 467 -44 Q645 -28 825 -17 L859 -96 L942 -65 Q867 106 790 276 L707 244 Q749 152 790 61 L488 43 Q528 108 560 179 Q606 275 643 376 L953 376 L953 458 L392 458 L392 376 L550 376 Q521 294 486 215 Q453 140 411 70 Q391 36 355 24 ZM177 789 L177 544 L49 544 L49 461 L177 461 L177 123 Q106 100 35 79 L59 -6 Q232 50 408 103 L396 152 L385 191 L261 150 L261 461 L377 461 L377 544 L261 544 L261 789 L177 789 ZM417 720 L417 638 L912 638 L912 720 L417 720 Z" /><glyph glyph-name="uni586B" unicode="&#x586b;" d="M588 796 L588 715 L345 715 L345 652 L588 652 L588 588 L393 588 L393 143 L334 143 L321 197 L244 165 L244 462 L344 462 L344 543 L244 543 L244 783 L166 783 L166 543 L57 543 L57 462 L166 462 L166 134 Q100 107 33 84 L56 8 L330 117 L330 83 L958 83 L958 143 L866 143 L866 588 L666 588 L666 652 L933 652 L933 715 L666 715 L666 796 L588 796 ZM284 -44 L317 -110 Q451 -57 576 15 L537 77 Q417 2 284 -44 ZM677 10 Q799 -42 919 -103 L955 -37 Q831 19 708 73 L677 10 ZM470 530 L790 530 L790 474 L470 474 L470 530 ZM470 198 L790 198 L790 143 L470 143 L470 198 ZM470 309 L790 309 L790 254 L470 254 L470 309 ZM470 418 L790 418 L790 364 L470 364 L470 418 Z" /><glyph glyph-name="uni58F0" unicode="&#x58f0;" d="M38 -64 L108 -120 Q159 -63 196 2 Q229 65 237 136 L765 136 L765 86 L851 86 L851 398 L156 398 L156 228 Q156 184 151 141 Q145 103 131 67 Q119 39 102 14 Q73 -27 38 -64 ZM135 543 L135 473 L867 473 L867 543 L542 543 L542 635 L939 635 L939 706 L542 706 L542 802 L457 802 L457 706 L59 706 L59 635 L457 635 L457 543 L135 543 ZM765 327 L765 207 L543 207 L543 327 L765 327 ZM241 327 L460 327 L460 207 L241 207 L241 327 Z" /><glyph glyph-name="uni5904" unicode="&#x5904;" d="M30 323 L84 257 Q119 309 149 365 Q169 300 197 239 Q218 192 247 150 Q154 38 39 -48 L107 -110 Q213 -25 302 79 Q374 2 473 -33 Q530 -52 590 -60 Q655 -69 721 -69 L940 -69 L961 17 L739 17 Q676 16 614 24 Q559 31 507 49 Q418 80 355 149 Q411 231 448 324 Q491 436 511 556 L511 643 L264 643 Q284 708 299 776 L216 790 Q186 650 132 519 Q90 416 30 323 ZM614 787 L614 55 L700 55 L700 461 Q808 380 915 298 L955 378 Q827 469 700 562 L700 787 L614 787 ZM426 556 Q408 459 373 367 Q343 291 299 222 Q265 278 242 341 Q218 406 202 474 Q220 514 235 556 L426 556 Z" /><glyph glyph-name="uni591A" unicode="&#x591a;" d="M93 555 L140 490 Q209 522 276 561 Q346 524 415 485 L470 540 L347 605 L394 638 L764 638 Q636 548 491 492 Q393 454 292 426 Q177 394 61 372 L98 302 Q310 345 513 423 Q422 337 316 273 Q206 206 89 157 L132 90 Q229 133 323 187 Q398 141 473 95 L531 154 L394 231 Q425 251 456 275 L800 275 Q744 222 681 180 Q602 131 517 96 Q404 51 286 19 Q171 -10 55 -35 L98 -109 Q221 -82 343 -48 Q469 -11 589 41 Q773 127 914 275 L914 347 L541 347 Q575 378 607 414 L556 441 Q644 478 727 526 Q812 575 888 638 L888 712 L485 712 Q519 743 550 778 L473 812 Q392 730 296 668 Q198 604 93 555 Z" /><glyph glyph-name="uni5927" unicode="&#x5927;" d="M51 -19 L107 -103 Q176 -60 241 -11 Q303 36 359 92 Q412 147 453 211 Q483 259 505 311 Q561 177 664 76 Q770 -27 900 -99 L955 -18 Q865 27 785 87 Q733 127 689 175 Q577 298 541 461 Q541 467 542 474 L929 474 L929 559 L544 559 L544 795 L453 795 L453 559 L70 559 L70 474 L451 474 Q443 410 421 350 Q390 271 336 205 Q279 136 208 82 Q133 25 51 -19 Z" /><glyph glyph-name="uni592B" unicode="&#x592b;" d="M45 -30 L99 -109 Q160 -81 220 -47 Q287 -8 347 41 Q397 83 439 135 Q474 179 500 231 Q551 124 641 47 Q696 0 760 -37 Q830 -78 906 -109 L953 -23 Q871 7 794 49 Q730 85 674 134 Q588 211 549 319 L931 319 L931 402 L541 402 Q541 405 542 409 L542 564 L875 564 L875 645 L543 645 Q543 720 544 795 L455 795 Q454 719 454 645 L122 645 L122 564 L454 564 Q453 483 453 402 L67 402 L67 319 L441 319 Q425 263 393 215 Q355 162 305 120 Q244 70 174 32 Q111 -1 45 -30 Z" /><glyph glyph-name="uni5934" unicode="&#x5934;" d="M56 -18 L87 -103 Q171 -80 253 -53 Q320 -31 383 -2 Q435 21 481 55 Q511 77 537 105 Q720 9 902 -90 L943 -10 L584 171 Q597 196 606 223 L941 223 L941 302 L628 302 Q643 398 646 497 Q649 642 652 789 L566 789 Q563 648 560 509 Q558 448 551 388 Q547 344 537 302 L60 302 L60 223 L510 223 Q491 188 466 158 Q426 118 376 90 Q311 57 242 34 Q150 5 56 -18 ZM111 488 Q247 407 379 321 L426 393 Q291 478 154 559 L111 488 ZM183 684 Q312 603 439 519 L486 591 Q358 675 227 754 L183 684 Z" /><glyph glyph-name="uni5973" unicode="&#x5973;" d="M185 253 Q315 192 443 127 Q368 84 288 55 Q167 13 44 -18 L85 -104 Q228 -64 366 -10 Q457 24 538 78 Q706 -9 871 -105 L924 -23 Q769 60 613 140 Q675 202 713 282 Q737 332 754 385 Q772 446 787 508 L958 508 L958 594 L422 594 Q454 690 479 789 L387 807 Q362 698 326 594 L49 594 L49 508 L296 508 Q247 377 185 253 ZM525 185 Q415 239 304 290 Q353 396 393 508 L696 508 Q682 453 664 400 Q647 353 624 310 Q585 238 525 185 Z" /><glyph glyph-name="uni59D3" unicode="&#x59d3;" d="M649 793 L649 602 L535 602 Q547 665 555 730 L477 740 Q452 556 389 383 L469 358 Q496 436 516 517 L649 517 L649 328 L443 328 L443 245 L649 245 L649 30 L405 30 L405 -54 L955 -54 L955 30 L732 30 L732 245 L916 245 L916 328 L732 328 L732 517 L938 517 L938 602 L732 602 L732 793 L649 793 ZM70 235 Q134 184 197 130 Q168 89 134 53 Q87 1 37 -47 L97 -107 Q148 -58 195 -5 Q229 33 259 77 L358 -13 L413 56 Q358 105 302 154 Q334 227 350 305 Q371 418 380 534 L380 612 L219 612 Q231 704 240 797 L159 803 Q151 707 139 612 L47 612 L47 532 L128 532 Q105 382 70 235 ZM307 532 Q298 430 278 330 Q265 266 240 206 L159 271 Q188 400 207 532 L307 532 Z" /><glyph glyph-name="uni5B50" unicode="&#x5b50;" d="M58 382 L58 299 L463 299 L463 74 Q463 54 459 36 Q456 26 450 18 Q439 9 425 7 Q403 3 381 4 L254 4 L271 -79 L410 -79 Q446 -79 482 -72 Q501 -67 518 -57 Q536 -41 543 -18 Q551 12 551 44 L551 299 L943 299 L943 382 L551 382 L551 435 L879 653 L879 736 L134 736 L134 654 L731 654 L463 472 L463 382 L58 382 Z" /><glyph glyph-name="uni5B57" unicode="&#x5b57;" d="M53 259 L53 179 L462 179 L462 64 Q462 45 459 27 Q456 14 447 6 Q440 0 430 -1 Q412 -4 393 -4 L269 -4 L285 -84 L423 -84 Q456 -84 490 -78 Q507 -74 521 -64 Q538 -48 543 -26 Q549 6 549 40 L549 179 L944 179 L944 259 L549 259 L549 278 L786 421 L786 499 L214 499 L214 420 L639 420 L462 310 L462 259 L53 259 ZM92 683 L92 467 L177 467 L177 603 L821 603 L821 466 L908 466 L908 683 L574 683 Q542 747 509 811 L420 790 L475 683 L92 683 Z" /><glyph glyph-name="uni5BA0" unicode="&#x5ba0;" d="M42 -40 L102 -102 Q163 -47 219 14 Q267 69 306 132 Q370 240 398 364 L498 364 L498 133 Q374 72 243 30 L279 -48 Q390 -8 498 42 Q497 17 502 -7 Q508 -31 524 -49 Q541 -65 563 -71 Q591 -77 620 -77 L784 -77 Q816 -77 848 -70 Q872 -65 891 -49 Q903 -36 909 -20 Q919 8 921 39 L928 159 L848 178 L844 72 Q843 53 839 35 Q836 25 829 17 Q820 8 807 5 Q788 1 770 2 L641 2 Q625 1 610 4 Q599 7 591 15 Q585 22 583 31 Q579 49 580 68 L580 83 Q736 166 862 293 L805 348 Q703 248 580 178 L580 364 L946 364 L946 442 L700 442 L740 474 Q684 532 626 588 L570 540 Q618 492 664 442 L413 442 Q413 444 414 447 L428 574 L345 579 Q338 510 329 442 L69 442 L69 364 L314 364 Q289 257 230 165 Q194 111 150 63 Q99 9 42 -40 ZM100 692 L100 501 L183 501 L183 612 L823 612 L823 502 L906 502 L906 692 L570 692 Q541 752 512 812 L427 790 Q451 741 475 692 L100 692 Z" /><glyph glyph-name="uni5BB6" unicode="&#x5bb6;" d="M62 319 L89 249 Q260 295 419 378 Q434 357 449 336 Q367 286 280 248 Q172 199 59 165 L86 96 Q202 134 313 186 Q400 226 481 279 Q492 253 500 226 Q412 159 314 110 Q180 44 39 0 L73 -72 Q202 -26 324 36 Q424 86 513 155 Q516 122 516 89 Q516 62 509 36 Q505 22 496 11 Q481 -2 461 -6 Q433 -12 405 -12 L303 -12 L317 -86 L432 -86 Q475 -86 517 -76 Q540 -69 559 -54 Q582 -33 591 -3 Q601 36 601 78 Q602 156 585 233 L629 252 Q668 165 731 95 Q808 14 905 -41 L958 24 Q909 49 864 80 Q825 108 792 142 Q734 205 699 285 Q788 326 874 377 L833 444 Q701 364 561 302 Q532 364 486 415 Q527 439 566 467 L799 467 L799 536 L198 536 L198 467 L439 467 Q350 417 255 381 Q160 345 62 319 ZM92 698 L92 503 L173 503 L173 626 L826 626 L826 502 L907 502 L907 698 L541 698 L569 707 Q541 760 512 814 L424 785 Q448 742 471 698 L92 698 Z" /><glyph glyph-name="uni5BB9" unicode="&#x5bb9;" d="M38 209 L71 134 Q135 158 198 187 L198 -100 L282 -100 L282 -59 L716 -59 L716 -100 L800 -100 L800 187 Q861 157 925 134 L960 210 Q838 251 727 312 Q620 372 536 459 L463 459 Q379 372 274 314 Q160 251 38 209 ZM94 697 L94 515 L176 515 L176 622 L820 622 L820 513 L903 513 L903 697 L527 697 L560 710 Q533 762 505 814 L424 787 Q447 742 470 697 L94 697 ZM282 143 L716 143 L716 14 L282 14 L282 143 ZM500 390 Q545 344 597 306 Q663 257 736 219 L260 219 Q392 287 500 390 ZM95 439 L132 367 Q284 434 424 526 L384 589 Q246 501 95 439 ZM567 528 Q721 452 872 370 L910 437 Q757 514 605 590 L567 528 Z" /><glyph glyph-name="uni5C01" unicode="&#x5c01;" d="M584 -5 L600 -83 L716 -83 Q752 -83 787 -75 Q806 -70 821 -58 Q840 -42 847 -18 Q854 14 854 48 L854 523 L959 523 L959 601 L854 601 L854 794 L770 794 L770 601 L526 601 L526 523 L770 523 L770 65 Q770 45 767 26 Q764 14 754 5 Q746 0 736 -2 Q715 -5 694 -5 L584 -5 ZM85 259 L85 181 L250 181 L250 45 Q147 34 44 27 L53 -55 Q295 -29 538 -8 L539 25 L540 75 Q437 63 335 53 L335 181 L501 181 L501 259 L335 259 L335 355 L250 355 L250 259 L85 259 ZM84 665 L84 588 L250 588 L250 462 L51 462 L51 385 L520 385 L520 462 L335 462 L335 588 L500 588 L500 665 L335 665 L335 792 L250 792 L250 665 L84 665 ZM529 424 Q589 301 645 177 L717 212 Q659 333 599 454 L529 424 Z" /><glyph glyph-name="uni5C11" unicode="&#x5c11;" d="M53 -21 L83 -105 Q216 -68 346 -20 Q451 19 548 75 Q615 114 675 162 Q759 231 832 311 L771 371 Q706 296 631 233 Q555 172 469 127 Q395 90 317 61 Q186 14 53 -21 ZM448 795 L448 214 L537 214 L537 795 L448 795 ZM54 282 L132 234 Q258 425 353 634 L274 669 Q183 464 54 282 ZM626 630 Q761 474 891 314 L958 370 Q825 527 690 682 L626 630 Z" /><glyph glyph-name="uni5C14" unicode="&#x5c14;" d="M58 445 L124 385 Q214 478 286 587 L820 587 L712 429 L794 398 L917 590 L917 669 L336 669 Q364 719 386 773 L304 802 Q258 697 191 603 Q131 518 58 445 ZM285 0 L303 -86 L421 -86 Q454 -86 487 -79 Q511 -73 530 -57 Q542 -44 548 -28 Q557 -1 557 27 L557 538 L469 538 L469 65 Q469 48 465 32 Q461 19 452 11 Q443 6 433 3 Q413 0 393 0 L285 0 ZM32 26 L109 -20 Q249 158 347 364 L268 397 Q174 195 32 26 ZM642 354 Q764 169 878 -21 L956 27 Q835 214 712 399 L642 354 Z" /><glyph glyph-name="uni5C31" unicode="&#x5c31;" d="M142 -1 L157 -77 L235 -77 Q262 -77 289 -71 Q308 -66 322 -52 Q331 -39 336 -25 Q342 1 342 30 L342 279 L476 279 L476 532 L114 532 L114 279 L265 279 L265 54 Q265 39 262 24 Q259 14 252 8 Q245 3 237 1 Q220 -1 204 -1 L142 -1 ZM406 -49 L476 -99 Q528 -34 572 36 Q611 102 635 174 Q653 232 663 293 Q677 392 680 492 L948 492 L948 567 L681 567 L681 572 Q681 685 684 798 L608 798 Q607 684 606 572 L606 567 L507 567 L507 492 L603 492 Q599 400 586 309 Q577 254 560 201 Q537 135 501 76 Q458 10 406 -49 ZM716 474 L716 28 Q715 2 721 -21 Q725 -35 734 -47 Q745 -61 761 -68 Q781 -75 803 -75 L847 -75 Q870 -75 894 -68 Q911 -63 924 -49 Q933 -37 938 -23 Q945 1 946 27 Q948 103 950 181 L884 195 Q883 118 881 42 Q882 24 874 9 Q869 3 861 1 Q851 0 840 0 L830 0 Q820 0 811 1 Q804 3 799 8 Q789 24 791 43 L791 474 L716 474 ZM230 788 Q254 739 276 690 L64 690 L64 615 L531 615 L531 690 L329 690 L358 699 Q333 756 305 812 L230 788 ZM189 465 L400 465 L400 346 L189 346 L189 465 ZM30 0 L97 -35 Q165 82 209 210 L141 238 Q95 114 30 0 ZM734 731 Q800 663 863 594 L918 644 Q853 712 786 779 L734 731 ZM375 204 Q417 135 458 67 L517 108 Q475 174 433 241 L375 204 Z" /><glyph glyph-name="uni5C55" unicode="&#x5c55;" d="M252 439 L252 372 L410 372 L410 281 L220 281 Q223 345 223 411 L223 531 L890 531 L890 754 L144 754 L144 452 Q144 359 139 267 Q136 200 123 134 Q113 91 98 50 Q74 -8 43 -65 L118 -103 Q160 -23 187 62 Q209 136 216 214 L318 214 L318 -11 Q318 -21 312 -29 Q302 -40 290 -46 L320 -109 Q346 -97 373 -88 L577 -20 L568 51 Q482 19 397 -11 L397 214 L483 214 Q540 105 638 32 Q698 -9 765 -37 Q841 -69 923 -88 L956 -14 Q892 -2 831 17 Q772 36 719 67 Q797 112 875 160 L831 212 Q747 156 660 107 Q604 152 567 214 L948 214 L948 281 L745 281 L745 372 L910 372 L910 439 L745 439 L745 509 L668 509 L668 439 L486 439 L486 509 L410 509 L410 439 L252 439 ZM223 687 L811 687 L811 598 L223 598 L223 687 ZM486 372 L668 372 L668 281 L486 281 L486 372 Z" /><glyph glyph-name="uni5C5E" unicode="&#x5c5e;" d="M249 514 L254 457 Q394 459 535 465 L535 412 L287 412 L287 252 L535 252 L535 203 L250 203 L250 -91 L326 -91 L326 148 L535 148 L535 60 Q450 56 366 54 L370 -4 L713 12 L729 -18 L782 2 Q749 65 714 127 L662 106 L683 67 Q643 65 605 63 L605 148 L814 148 L814 12 Q814 1 811 -8 Q808 -17 801 -22 Q795 -26 787 -28 Q771 -31 755 -31 L678 -31 L690 -86 L777 -86 Q805 -86 834 -81 Q853 -77 869 -65 Q878 -55 883 -42 Q889 -19 889 4 L889 203 L605 203 L605 252 L851 252 L851 412 L605 412 L605 468 Q740 473 875 481 L871 538 Q560 518 249 514 ZM21 -70 L100 -101 Q131 -34 156 34 Q178 97 190 163 Q199 216 203 270 Q209 359 209 448 L209 573 L885 573 L885 755 L131 755 L131 451 Q131 367 125 283 Q120 215 105 148 Q77 33 21 -70 ZM209 694 L809 694 L809 631 L209 631 L209 694 ZM779 359 L779 305 L605 305 L605 359 L779 359 ZM361 359 L535 359 L535 305 L361 305 L361 359 Z" /><glyph glyph-name="uni5DE5" unicode="&#x5de5;" d="M116 719 L116 630 L454 630 L454 51 L55 51 L55 -34 L946 -34 L946 51 L547 51 L547 630 L886 630 L886 719 L116 719 Z" /><glyph glyph-name="uni5E16" unicode="&#x5e16;" d="M492 368 L492 -95 L570 -95 L570 -41 L815 -41 L815 -95 L895 -95 L895 368 L711 368 L711 552 L948 552 L948 630 L711 630 L711 794 L628 794 L628 368 L492 368 ZM81 626 L81 81 L156 81 L156 547 L223 547 L223 -97 L298 -97 L298 547 L365 547 L365 187 Q365 177 363 169 Q362 163 357 159 Q344 152 329 154 L304 154 L318 84 L369 84 Q386 83 403 88 Q415 92 424 101 Q430 110 433 120 Q438 138 438 158 L438 626 L299 626 L299 796 L222 796 L222 626 L81 626 ZM570 285 L815 285 L815 41 L570 41 L570 285 Z" /><glyph glyph-name="uni5E73" unicode="&#x5e73;" d="M51 299 L51 215 L456 215 L456 -94 L543 -94 L543 215 L947 215 L947 299 L543 299 L543 667 L907 667 L907 749 L92 749 L92 667 L456 667 L456 299 L51 299 ZM628 389 L695 341 Q783 454 866 572 L798 619 Q718 499 628 389 ZM133 571 Q219 458 301 342 L370 389 Q284 504 198 618 L133 571 Z" /><glyph glyph-name="uni5EA6" unicode="&#x5ea6;" d="M170 -26 L203 -103 Q307 -82 409 -53 Q483 -32 556 -3 Q628 -34 704 -53 Q812 -80 923 -97 L948 -17 Q858 -6 769 9 Q707 20 647 39 Q757 96 840 190 L840 258 L249 258 L249 191 L350 191 L317 167 Q384 94 468 42 Q321 -3 170 -26 ZM462 788 Q486 744 507 699 L131 699 L131 403 Q131 320 125 237 Q122 190 113 144 Q102 91 81 40 Q57 -14 28 -66 L103 -107 Q133 -55 157 0 Q179 53 192 110 Q202 159 207 208 Q214 293 214 379 L214 625 L938 625 L938 699 L548 699 L597 714 Q570 764 542 815 L462 788 ZM367 601 L367 529 L232 529 L232 459 L367 459 L367 316 L773 316 L773 459 L935 459 L935 529 L773 529 L773 601 L691 601 L691 529 L447 529 L447 601 L367 601 ZM396 191 L726 191 Q650 116 553 75 Q463 118 396 191 ZM447 384 L447 459 L691 459 L691 384 L447 384 Z" /><glyph glyph-name="uni5F0F" unicode="&#x5f0f;" d="M51 632 L51 550 L553 550 Q560 393 589 239 Q602 174 622 111 Q637 64 661 20 Q685 -27 725 -62 Q758 -89 801 -90 Q841 -91 868 -62 Q885 -42 895 -19 Q905 5 912 31 Q927 98 937 167 L864 191 Q854 134 844 78 Q839 48 826 21 Q819 6 802 5 Q786 5 773 14 Q756 28 746 47 Q721 87 705 133 Q685 191 674 252 Q646 399 639 550 L938 550 L938 632 L835 632 L879 681 Q813 740 745 796 L694 742 Q755 688 816 632 L635 632 Q631 715 631 800 L544 800 L549 632 L51 632 ZM558 32 L557 70 L556 115 Q450 99 345 86 L345 324 L517 324 L517 404 L83 404 L83 324 L258 324 L258 74 Q152 59 47 49 L58 -34 Q307 1 558 32 Z" /><glyph glyph-name="uni5F15" unicode="&#x5f15;" d="M115 749 L115 669 L475 669 L475 532 L135 532 L111 240 L470 240 Q466 163 461 87 Q459 64 452 44 Q446 32 437 24 Q421 14 401 11 Q372 7 343 8 L167 8 L182 -73 L367 -73 Q412 -73 457 -65 Q480 -60 500 -48 Q524 -32 534 -6 Q546 27 548 64 Q555 192 562 321 L206 321 L218 454 L564 454 L564 749 L115 749 ZM765 785 L765 -94 L854 -94 L854 785 L765 785 Z" /><glyph glyph-name="uni5F39" unicode="&#x5f39;" d="M352 144 L352 67 L609 67 L609 -101 L687 -101 L687 67 L957 67 L957 144 L687 144 L687 235 L895 235 L895 658 L770 658 Q811 717 848 780 L778 812 Q733 732 681 658 L576 658 L611 678 Q567 746 521 813 L454 775 Q492 717 529 658 L400 658 L400 235 L609 235 L609 144 L352 144 ZM68 -1 L85 -78 L179 -78 Q211 -78 243 -71 Q266 -65 284 -49 Q296 -36 303 -19 Q312 9 314 41 Q320 176 324 312 L158 312 L168 443 L332 443 L332 737 L75 737 L75 660 L256 660 L256 521 L97 521 L78 237 L246 237 L237 65 Q236 47 231 31 Q227 22 220 14 Q210 5 197 2 Q179 -1 161 -1 L68 -1 ZM474 411 L609 411 L609 309 L474 309 L474 411 ZM474 583 L609 583 L609 482 L474 482 L474 583 ZM687 309 L687 411 L819 411 L819 309 L687 309 ZM819 583 L819 482 L687 482 L687 583 L819 583 Z" /><glyph glyph-name="uni5F53" unicode="&#x5f53;" d="M101 480 L101 400 L787 400 L787 264 L129 264 L129 184 L787 184 L787 38 L77 38 L77 -41 L787 -41 L787 -96 L873 -96 L873 480 L542 480 L542 796 L456 796 L456 480 L101 480 ZM118 714 Q212 616 301 513 L369 569 Q276 671 180 770 L118 714 ZM631 563 L693 508 Q791 607 882 715 L816 767 Q726 661 631 563 Z" /><glyph glyph-name="uni5F71" unicode="&#x5f71;" d="M104 754 L104 474 L353 474 L281 452 L307 408 L44 408 L44 348 L625 348 L625 408 L388 408 L353 474 L567 474 L567 754 L104 754 ZM174 -13 L191 -86 L271 -86 Q300 -86 329 -80 Q344 -76 356 -68 Q371 -56 376 -39 Q382 -15 382 8 L382 122 L554 122 L554 301 L115 301 L115 122 L308 122 L308 36 Q308 22 305 9 Q302 0 295 -5 Q288 -9 280 -10 Q263 -13 247 -13 L174 -13 ZM558 -43 L606 -112 Q816 25 961 231 L899 274 Q760 81 558 -43 ZM580 269 L632 201 Q797 318 926 475 L865 523 Q741 374 580 269 ZM586 550 L633 481 Q703 530 766 587 Q843 656 911 734 L850 783 Q732 650 586 550 ZM190 244 L478 244 L478 181 L190 181 L190 244 ZM178 534 L178 586 L494 586 L494 534 L178 534 ZM178 694 L494 694 L494 644 L178 644 L178 694 ZM30 -29 L81 -83 Q168 -12 239 76 L186 120 Q116 36 30 -29 ZM426 76 Q488 18 543 -48 L595 -1 Q537 60 475 118 L426 76 Z" /><glyph glyph-name="uni5F85" unicode="&#x5f85;" d="M587 793 L587 672 L365 672 L365 593 L587 593 L587 480 L314 480 L314 401 L949 401 L949 480 L670 480 L670 593 L902 593 L902 672 L670 672 L670 793 L587 793 ZM379 156 Q448 86 515 14 L577 75 Q511 144 443 210 L723 210 L723 59 Q723 41 719 24 Q715 12 705 4 Q696 -1 686 -3 Q665 -7 644 -7 L540 -7 L556 -85 L663 -85 Q700 -85 737 -78 Q756 -74 773 -64 Q791 -50 799 -28 Q807 0 807 31 L807 210 L936 210 L936 288 L807 288 L807 376 L723 376 L723 288 L335 288 L335 210 L439 210 L379 156 ZM30 273 L67 195 Q122 242 171 297 L171 -97 L250 -97 L250 393 Q298 456 339 526 L272 564 Q217 475 150 396 Q94 330 30 273 ZM44 547 L92 478 Q161 536 223 602 Q291 670 349 748 L285 800 Q239 736 185 681 Q118 610 44 547 Z" /><glyph glyph-name="uni5FAE" unicode="&#x5fae;" d="M596 436 L641 365 Q653 385 664 407 Q681 279 732 161 Q700 107 661 59 Q611 0 552 -51 L610 -107 Q701 -20 773 84 Q835 -15 917 -100 L975 -36 Q882 51 818 161 Q854 237 874 320 Q900 433 909 550 L957 550 L957 626 L752 626 Q775 702 789 781 L717 790 Q685 603 596 436 ZM224 -52 L291 -92 Q336 -43 363 16 Q375 44 380 75 Q385 110 385 146 L385 193 L492 193 L492 66 Q490 40 471 24 L519 -25 Q535 -8 554 7 Q602 48 652 87 L632 150 Q598 119 563 93 L563 264 L312 264 L312 162 Q312 126 308 91 Q304 63 293 37 Q283 18 271 0 Q249 -27 224 -52 ZM29 268 L63 189 Q103 233 138 282 L138 -94 L211 -94 L211 391 Q247 451 277 515 L212 550 Q139 396 29 268 ZM291 719 L291 492 L611 492 L611 719 L544 719 L544 561 L483 561 L483 795 L418 795 L418 561 L357 561 L357 719 L291 719 ZM264 414 L264 342 L605 342 L605 414 L264 414 ZM42 538 L100 485 Q206 604 287 743 L220 784 Q144 650 42 538 ZM727 550 L840 550 Q833 462 814 377 Q800 311 775 249 Q724 380 716 521 L727 550 Z" /><glyph glyph-name="uni5FC5" unicode="&#x5fc5;" d="M33 7 L81 -65 Q191 -6 297 62 Q296 27 305 -5 Q311 -24 324 -39 Q344 -58 370 -65 Q405 -73 442 -73 L609 -73 Q649 -73 690 -66 Q718 -60 742 -42 Q756 -28 765 -10 Q777 21 779 55 L786 194 L703 213 Q702 150 698 89 Q697 66 691 45 Q686 30 673 20 Q662 13 649 10 Q624 5 599 6 L467 6 Q444 5 423 10 Q411 13 401 20 Q389 30 385 44 Q380 64 381 85 L381 121 Q515 222 623 352 Q746 506 829 687 L751 724 Q680 568 578 431 Q491 317 381 227 L381 621 L297 621 L297 163 Q170 75 33 7 ZM31 191 L111 168 Q177 341 218 523 L135 542 Q97 362 31 191 ZM738 466 Q817 313 887 156 L966 193 Q891 348 811 501 L738 466 ZM348 747 Q451 645 550 538 L612 602 Q510 704 406 804 L348 747 Z" /><glyph glyph-name="uni6027" unicode="&#x6027;" d="M347 381 L428 353 Q458 433 482 517 L625 517 L625 327 L401 327 L401 245 L625 245 L625 29 L347 29 L347 -54 L952 -54 L952 29 L709 29 L709 245 L910 245 L910 327 L709 327 L709 517 L934 517 L934 602 L709 602 L709 793 L625 793 L625 602 L503 602 Q516 667 527 733 L446 744 Q429 641 401 541 Q356 595 310 649 L266 610 L266 797 L185 797 L185 -95 L266 -95 L266 584 Q311 531 354 477 L393 513 Q372 445 347 381 ZM33 283 L111 268 Q142 447 164 629 L86 639 Q68 459 33 283 Z" /><glyph glyph-name="uni610F" unicode="&#x610f;" d="M436 144 Q496 86 553 25 L610 76 Q560 125 510 173 L827 173 L827 453 L168 453 L168 173 L467 173 L436 144 ZM54 575 L54 513 L945 513 L945 575 L682 575 Q706 605 730 638 L688 661 L892 661 L892 723 L565 723 Q539 769 513 815 L430 789 Q450 756 470 723 L106 723 L106 661 L313 661 L272 636 Q297 605 322 575 L54 575 ZM285 142 L285 23 Q284 -3 291 -28 Q296 -42 306 -53 Q321 -66 340 -71 Q367 -77 395 -77 L606 -77 Q634 -77 662 -72 Q682 -69 699 -57 Q710 -48 716 -36 Q725 -16 728 6 Q733 48 737 91 L657 112 Q655 70 653 30 Q652 18 648 6 Q644 -2 636 -7 Q612 -17 586 -16 L425 -16 Q402 -17 383 -6 Q375 0 372 9 Q368 21 369 34 L369 142 L285 142 ZM251 231 L251 286 L745 286 L745 231 L251 231 ZM251 396 L745 396 L745 342 L251 342 L251 396 ZM409 591 Q381 626 353 661 L649 661 Q617 617 584 575 L380 575 L409 591 ZM48 -24 L115 -69 Q187 21 241 125 L166 158 Q115 61 48 -24 ZM755 122 Q823 29 887 -66 L955 -22 Q891 71 823 162 L755 122 Z" /><glyph glyph-name="uni620F" unicode="&#x620f;" d="M526 794 Q528 697 535 601 L539 539 L407 524 L417 442 L547 457 Q555 373 570 291 Q580 233 596 177 Q488 89 364 26 L406 -44 Q521 15 625 95 Q641 52 666 14 Q693 -32 733 -67 Q767 -94 811 -94 Q854 -93 883 -60 Q914 -23 926 24 Q942 90 956 157 L881 188 Q871 128 859 70 Q853 41 839 16 Q829 0 811 0 Q791 0 776 12 Q755 29 741 53 Q710 99 692 152 Q815 266 900 412 L835 455 Q765 335 666 239 Q640 351 630 467 L956 506 L947 588 L623 549 L621 593 Q615 693 612 794 L526 794 ZM70 499 Q145 386 218 271 Q144 121 32 -1 L89 -72 Q195 45 270 186 Q310 118 350 50 L419 98 Q366 186 312 273 Q380 435 410 610 L410 694 L66 694 L66 610 L325 610 Q302 481 256 359 Q196 451 134 543 L70 499 ZM667 726 Q745 656 819 581 L874 638 Q797 711 716 779 L667 726 Z" /><glyph glyph-name="uni6210" unicode="&#x6210;" d="M423 -7 L478 -69 Q571 -3 651 77 Q663 50 680 25 Q698 -3 719 -30 Q734 -50 754 -66 Q782 -88 818 -89 Q860 -90 891 -60 Q909 -40 919 -16 Q929 8 936 35 Q951 99 963 164 L890 187 Q880 130 868 74 Q862 43 847 16 Q837 0 820 0 Q803 1 791 12 Q772 30 758 53 Q728 95 710 144 Q762 211 802 287 Q849 378 884 475 L809 505 Q783 426 747 352 Q717 291 679 236 Q637 397 623 564 L935 564 L935 645 L800 645 L852 692 Q791 752 729 810 L674 757 Q732 702 788 645 L616 645 Q609 721 605 799 L522 799 Q527 721 534 645 L133 645 L133 386 Q133 308 127 231 Q122 186 113 141 Q101 88 78 38 Q53 -13 22 -63 L104 -101 Q165 0 192 113 Q202 159 207 204 Q215 277 216 350 L382 350 Q379 248 372 148 Q370 129 366 112 Q361 99 351 92 Q341 86 330 84 Q308 81 285 82 L219 82 L235 0 L305 0 Q341 0 377 8 Q396 13 412 25 Q431 41 440 65 Q450 94 453 126 Q463 277 468 430 L216 430 L216 564 L541 564 Q552 442 575 323 Q591 239 618 159 Q529 65 423 -7 Z" /><glyph glyph-name="uni6211" unicode="&#x6211;" d="M361 41 L402 -36 Q517 18 622 91 Q638 43 665 1 Q689 -39 725 -68 Q758 -94 801 -95 Q841 -96 870 -68 Q886 -50 896 -29 Q906 -7 913 15 Q931 80 948 146 L875 181 Q863 123 849 67 Q841 36 827 8 Q817 -5 801 -5 Q782 -4 767 7 Q749 22 736 43 Q705 88 688 141 Q811 242 902 374 L834 415 Q762 307 664 225 Q641 331 633 440 L940 440 L940 518 L627 518 Q623 557 622 598 Q616 696 614 795 L532 795 Q535 694 541 595 Q542 556 546 518 L331 518 L331 657 Q401 668 472 685 L459 762 Q269 718 76 702 L82 626 Q164 633 247 644 L247 518 L51 518 L51 440 L247 440 L247 285 Q176 271 106 258 Q79 253 53 250 L66 167 L247 203 L247 56 Q247 41 245 27 Q243 17 236 9 Q230 4 222 2 Q205 0 188 0 L83 0 L100 -79 L203 -79 Q235 -79 266 -72 Q289 -67 306 -51 Q317 -39 323 -24 Q331 2 331 31 L331 220 Q416 237 503 254 L499 293 L493 335 Q412 317 331 302 L331 440 L552 440 Q563 304 597 173 Q485 95 361 41 ZM671 715 Q754 636 834 554 L892 610 Q810 691 724 767 L671 715 Z" /><glyph glyph-name="uni6237" unicode="&#x6237;" d="M34 -62 L116 -108 Q147 -62 174 -12 Q197 33 212 82 Q223 122 230 162 Q240 227 243 293 L884 293 L884 672 L592 672 Q556 744 519 817 L428 791 L491 672 L160 672 L160 406 Q160 322 153 238 Q149 190 138 143 Q125 89 99 39 Q70 -13 34 -62 ZM246 424 L246 594 L798 594 L798 373 L245 373 Q245 398 246 424 Z" /><glyph glyph-name="uni624B" unicode="&#x624b;" d="M53 265 L53 182 L465 182 L465 61 Q465 43 461 25 Q459 16 453 9 Q443 0 429 -1 Q409 -4 389 -4 L270 -4 L288 -88 L419 -88 Q453 -88 487 -81 Q511 -76 529 -59 Q541 -46 546 -29 Q554 0 554 32 L554 182 L949 182 L949 265 L554 265 L554 410 L878 410 L878 492 L554 492 L554 653 Q717 664 880 683 L867 766 Q488 723 107 711 L113 629 Q289 635 465 647 L465 492 L124 492 L124 410 L465 410 L465 265 L53 265 Z" /><glyph glyph-name="uni624D" unicode="&#x624d;" d="M37 84 L87 4 Q240 90 374 204 Q508 322 605 473 L605 87 Q605 65 601 43 Q598 32 591 24 Q579 14 563 11 Q537 8 512 9 L367 9 L386 -79 L534 -79 Q576 -79 617 -71 Q646 -65 668 -45 Q681 -30 688 -10 Q697 24 697 61 L697 525 L942 525 L942 610 L697 610 L697 796 L605 796 L605 610 L73 610 L73 525 L538 525 Q446 382 317 272 Q187 163 37 84 Z" /><glyph glyph-name="uni6267" unicode="&#x6267;" d="M396 624 L396 545 L496 545 Q495 528 495 512 Q492 435 486 359 L397 404 L360 332 Q417 303 474 273 Q458 189 419 114 Q395 71 366 33 Q331 -10 293 -51 L372 -100 Q409 -57 443 -12 Q472 27 496 70 Q536 146 554 230 L688 156 L727 233 L567 317 Q577 414 578 513 L578 545 L747 545 L747 319 Q747 240 750 161 Q753 101 761 43 Q766 10 777 -20 Q783 -37 793 -52 Q816 -85 857 -85 Q889 -84 912 -60 Q938 -27 947 14 Q962 75 973 138 L910 161 Q902 110 893 61 Q889 38 879 18 Q874 5 862 2 Q857 2 854 5 Q849 11 846 18 Q837 39 835 61 Q829 115 827 170 Q824 247 825 324 L825 624 L579 624 Q580 711 582 799 L497 799 Q496 711 496 624 L396 624 ZM50 1 L67 -80 L152 -80 Q180 -80 207 -75 Q227 -71 242 -58 Q251 -47 256 -34 Q262 -10 262 14 L262 317 L365 357 L358 397 L351 438 L262 402 L262 544 L368 544 L368 623 L262 623 L262 795 L179 795 L179 623 L57 623 L57 544 L179 544 L179 370 Q108 343 38 318 L51 233 Q114 258 179 284 L179 45 Q180 25 169 10 Q162 4 152 3 Q139 0 126 1 L50 1 Z" /><glyph glyph-name="uni6280" unicode="&#x6280;" d="M428 335 Q480 210 570 109 Q516 74 458 46 Q377 8 293 -23 L338 -108 Q428 -69 516 -24 Q577 7 635 47 Q689 2 750 -32 Q832 -79 920 -116 L952 -27 Q882 -4 817 27 Q754 57 700 100 Q753 148 792 209 Q839 284 871 367 L871 449 L682 449 L682 582 L932 582 L932 663 L682 663 L682 799 L598 799 L598 663 L385 663 L385 582 L598 582 L598 449 L388 449 L388 369 L491 369 L428 335 ZM55 -1 L72 -86 L150 -86 Q178 -86 206 -80 Q226 -75 241 -61 Q251 -50 255 -36 Q262 -10 262 16 L262 289 L377 328 L365 371 L352 416 L262 383 L262 534 L362 534 L362 622 L262 622 L262 794 L178 794 L178 622 L58 622 L58 534 L178 534 L178 354 Q101 326 23 305 L49 215 Q113 238 178 260 L178 49 Q178 35 175 22 Q173 15 168 9 Q161 3 151 1 Q137 -1 123 -1 L55 -1 ZM505 369 L780 369 Q755 304 716 246 Q681 198 636 159 Q597 199 567 247 Q531 305 505 369 Z" /><glyph glyph-name="uni6296" unicode="&#x6296;" d="M47 -7 L64 -87 L149 -87 Q177 -87 205 -82 Q225 -77 240 -64 Q250 -53 254 -39 Q261 -13 261 13 L261 289 L384 328 L377 365 L370 410 Q315 390 261 373 L261 536 L387 536 L387 615 L261 615 L261 795 L179 795 L179 615 L57 615 L57 536 L179 536 L179 347 Q107 324 35 304 L49 221 L179 263 L179 42 Q179 28 176 15 Q174 8 169 3 Q162 -3 152 -4 Q139 -7 125 -7 L47 -7 ZM341 199 L346 116 L714 155 L714 -99 L797 -99 L797 164 L954 181 L947 266 L797 249 L797 795 L714 795 L714 240 L341 199 ZM390 433 Q487 355 581 273 L636 337 Q540 416 442 493 L390 433 ZM434 669 Q527 592 615 511 L671 574 Q579 652 486 728 L434 669 Z" /><glyph glyph-name="uni62C9" unicode="&#x62c9;" d="M53 -5 L70 -84 L151 -84 Q179 -84 206 -78 Q226 -74 240 -60 Q249 -49 254 -35 Q260 -10 260 16 L260 288 Q321 308 383 329 L379 362 L372 410 L260 372 L260 536 L361 536 L361 615 L260 615 L260 797 L179 797 L179 615 L57 615 L57 536 L179 536 L179 346 Q106 322 33 301 L52 219 Q115 240 179 261 L179 43 Q179 30 176 17 Q174 10 169 5 Q163 0 154 -2 Q141 -5 128 -5 L53 -5 ZM317 27 L317 -51 L946 -51 L946 27 L725 27 Q798 256 864 488 L779 512 Q744 379 706 247 Q675 136 640 27 L317 27 ZM558 781 Q587 708 616 635 L394 635 L394 557 L930 557 L930 635 L644 635 L703 654 Q673 730 641 806 L558 781 ZM413 485 Q470 288 524 91 L606 113 Q551 310 494 508 L413 485 Z" /><glyph glyph-name="uni63A7" unicode="&#x63a7;" d="M45 -11 L61 -88 L127 -88 Q158 -88 189 -82 Q211 -78 227 -64 Q237 -53 242 -38 Q249 -12 249 15 L249 302 Q293 320 338 336 L328 372 L318 415 Q283 400 249 387 L249 535 L342 535 L342 617 L249 617 L249 794 L170 794 L170 617 L52 617 L52 535 L170 535 L170 356 Q101 329 32 305 L53 224 L170 271 L170 41 Q170 26 167 12 Q164 3 157 -2 Q150 -7 142 -8 Q125 -11 109 -11 L45 -11 ZM399 280 L399 202 L601 202 L601 22 L330 22 L330 -57 L949 -57 L949 22 L686 22 L686 202 L887 202 L887 280 L399 280 ZM371 682 L371 487 L450 487 L450 604 L850 604 L850 487 L927 487 L927 682 L680 682 L705 691 Q676 752 644 812 L568 781 Q593 731 617 682 L371 682 ZM669 472 Q796 386 917 291 L964 357 Q840 447 714 535 L669 472 ZM340 359 L382 293 Q505 374 612 477 L560 532 Q458 434 340 359 Z" /><glyph glyph-name="uni63D0" unicode="&#x63d0;" d="M340 345 L338 382 L335 429 Q289 410 244 393 L244 534 L350 534 L350 613 L244 613 L244 788 L163 788 L163 613 L46 613 L46 534 L163 534 L163 364 Q96 339 30 317 L40 233 L163 278 L163 36 Q164 17 153 3 Q145 -2 135 -4 Q120 -7 106 -7 L50 -7 L67 -86 L131 -86 Q159 -86 188 -81 Q208 -76 223 -63 Q232 -53 237 -40 Q244 -16 244 8 L244 309 L326 339 L326 272 L604 272 L604 10 Q562 20 530 49 Q510 67 496 89 Q479 116 466 146 Q476 191 483 237 L405 243 Q398 195 386 148 Q375 107 355 70 Q339 43 319 17 Q287 -21 251 -56 L314 -108 Q356 -66 391 -18 Q418 18 437 60 Q457 22 487 -8 Q507 -27 532 -42 Q566 -60 604 -68 Q648 -76 694 -76 L939 -76 L954 1 L684 1 L684 105 L896 105 L896 177 L684 177 L684 272 L939 272 L939 343 L334 343 Q337 343 340 345 ZM401 752 L401 414 L862 414 L862 752 L401 752 ZM482 479 L482 552 L780 552 L780 479 L482 479 ZM482 688 L780 688 L780 616 L482 616 L482 688 Z" /><glyph glyph-name="uni6444" unicode="&#x6444;" d="M317 748 L317 687 L396 687 L396 383 L319 380 L318 388 L308 427 L233 393 L233 536 L330 536 L330 616 L233 616 L233 785 L157 785 L157 616 L53 616 L53 536 L157 536 L157 359 Q96 333 35 308 L48 225 Q102 250 157 275 L157 22 Q158 4 147 -7 Q140 -13 131 -15 Q118 -18 106 -18 L44 -18 L60 -94 L127 -94 Q154 -94 180 -89 Q199 -84 213 -72 Q222 -62 227 -49 Q233 -26 233 -3 L233 309 L320 347 L322 318 L769 337 L769 287 L846 287 L846 340 L953 345 L954 406 L846 401 L846 687 L938 687 L938 748 L317 748 ZM532 -50 L569 -113 Q665 -72 750 -10 Q832 -73 931 -108 L962 -42 Q876 -14 802 34 Q874 106 910 203 L910 267 L608 267 L608 205 L643 205 L604 188 Q638 103 700 36 Q620 -16 532 -50 ZM311 142 Q364 103 417 63 Q340 -2 251 -49 L296 -110 Q391 -55 471 20 Q505 -7 539 -36 L585 15 Q550 42 515 69 Q563 129 590 203 L590 267 L307 267 L307 205 L520 205 Q497 152 462 109 Q406 150 349 188 L311 142 ZM473 569 L769 569 L769 509 L473 509 L473 569 ZM473 687 L769 687 L769 628 L473 628 L473 687 ZM473 451 L769 451 L769 398 L473 386 L473 451 ZM668 205 L836 205 Q806 132 751 77 Q698 133 668 205 Z" /><glyph glyph-name="uni64CD" unicode="&#x64cd;" d="M302 220 L302 150 L548 150 Q483 98 409 61 Q332 23 252 -3 L288 -75 Q374 -39 456 4 Q519 39 576 84 L576 -97 L653 -97 L653 84 Q706 39 767 4 Q843 -38 926 -70 L959 3 Q873 29 794 72 Q732 105 679 150 L927 150 L927 220 L653 220 L653 285 L576 285 L576 220 L302 220 ZM38 -1 L55 -80 L125 -80 Q151 -80 177 -74 Q196 -70 210 -56 Q219 -45 223 -31 Q229 -6 229 20 L229 304 L314 335 L307 371 L300 414 Q264 400 229 388 L229 543 L331 543 L331 622 L229 622 L229 790 L153 790 L153 622 L54 622 L54 543 L153 543 L153 360 Q89 337 26 316 L44 236 Q98 256 153 276 L153 48 Q153 34 150 21 Q148 15 144 9 Q137 3 128 1 Q115 -1 103 -1 L38 -1 ZM389 761 L389 555 L842 555 L842 761 L389 761 ZM643 498 L643 296 L896 296 L896 498 L643 498 ZM333 498 L333 296 L582 296 L582 498 L333 498 ZM461 695 L768 695 L768 620 L461 620 L461 695 ZM709 437 L831 437 L831 358 L709 358 L709 437 ZM399 437 L517 437 L517 358 L399 358 L399 437 Z" /><glyph glyph-name="uni6536" unicode="&#x6536;" d="M287 791 L287 265 Q225 240 164 218 L164 680 L83 680 L83 213 Q83 201 78 190 Q69 177 56 168 L91 89 Q115 104 143 116 Q214 147 287 176 L287 -95 L369 -95 L369 -39 L416 -112 Q495 -62 568 -5 Q623 38 671 89 Q777 -24 910 -106 L965 -32 Q900 7 839 54 Q779 101 727 157 Q781 233 813 322 Q852 436 868 557 L953 557 L953 641 L598 641 Q625 710 644 783 L558 801 Q533 702 489 610 Q440 502 369 409 L369 791 L287 791 ZM430 346 Q463 387 492 433 Q528 281 618 155 Q564 99 502 53 Q438 6 369 -33 L369 397 L430 346 ZM562 557 L784 557 Q772 457 741 363 Q716 288 672 224 Q627 286 598 356 Q564 443 551 535 L562 557 Z" /><glyph glyph-name="uni6539" unicode="&#x6539;" d="M403 412 L459 352 Q483 382 504 416 Q537 278 619 162 Q569 111 511 69 Q431 13 344 -32 L399 -108 Q483 -59 561 -1 Q620 42 671 95 Q723 36 785 -13 Q846 -62 913 -104 L968 -28 Q892 15 823 69 Q771 111 727 161 Q782 237 815 325 Q855 440 870 561 L955 561 L955 645 L622 645 Q648 713 668 784 L580 803 Q555 690 505 586 Q463 493 403 412 L403 721 L84 721 L84 637 L320 637 L320 422 L103 422 L103 54 Q103 40 96 29 Q85 13 70 2 L114 -76 Q145 -53 181 -38 Q310 21 441 80 L427 167 L190 60 L190 338 L403 338 L403 412 ZM586 561 L787 561 Q775 462 744 368 Q719 294 674 230 Q634 288 608 354 Q578 434 565 520 L586 561 Z" /><glyph glyph-name="uni6548" unicode="&#x6548;" d="M474 435 L525 369 Q538 389 551 411 Q579 273 654 155 Q606 96 549 48 Q488 -1 423 -43 L480 -111 Q549 -62 613 -6 Q661 36 703 86 Q742 36 788 -7 Q847 -62 913 -110 L967 -38 Q900 8 840 63 Q793 106 754 157 Q800 233 828 318 Q863 432 876 551 L954 551 L954 634 L658 634 Q684 707 703 783 L621 794 Q601 704 566 619 Q528 523 474 435 ZM126 285 Q187 218 247 151 Q209 99 161 55 Q100 0 31 -45 L84 -112 Q151 -64 212 -7 Q260 38 301 91 L407 -32 L472 23 Q411 94 349 163 Q396 244 425 335 L351 362 Q328 289 293 223 Q239 279 185 335 L126 285 ZM211 777 Q242 715 271 652 L53 652 L53 568 L507 568 L507 652 L301 652 L353 668 Q323 735 288 801 L211 777 ZM624 551 L797 551 Q786 456 761 365 Q740 294 705 230 Q669 288 647 353 Q620 432 608 516 L624 551 ZM30 321 L86 271 Q185 382 258 513 L190 551 Q154 483 110 421 Q73 368 30 321 ZM295 507 Q382 398 464 286 L526 333 Q441 442 356 550 L295 507 Z" /><glyph glyph-name="uni6570" unicode="&#x6570;" d="M96 114 Q172 80 248 44 Q206 23 162 7 Q98 -16 33 -35 L69 -105 Q140 -82 209 -54 Q269 -29 325 6 Q384 -22 443 -54 L449 -43 L497 -104 Q563 -56 624 -1 Q671 39 711 87 Q746 38 789 -4 Q844 -59 905 -107 L957 -39 Q894 7 838 62 Q794 104 759 153 Q806 229 831 314 Q863 431 874 553 L949 553 L949 636 L674 636 Q699 706 717 780 L638 794 Q614 691 573 593 Q537 508 488 430 L545 367 L572 413 Q595 276 664 157 Q627 108 582 67 Q523 15 458 -28 L482 13 Q436 34 391 56 Q454 119 489 202 L489 266 L266 266 Q278 292 288 320 L212 340 Q198 302 180 266 L47 266 L47 199 L146 199 Q122 155 96 114 ZM51 583 L51 515 L240 515 Q146 422 28 366 L62 301 Q173 359 261 449 L261 337 L336 337 L336 439 Q406 382 476 325 L520 377 Q449 435 377 492 L336 444 L336 515 L522 515 L522 583 L336 583 L336 788 L261 788 L261 583 L51 583 ZM627 520 Q634 536 641 553 L797 553 Q787 457 762 364 Q743 294 710 230 Q678 289 660 353 Q636 435 627 520 ZM404 199 Q375 133 320 89 Q261 115 202 140 Q219 168 234 199 L404 199 ZM371 636 L425 598 Q475 663 523 731 L466 767 Q419 700 371 636 ZM78 733 Q124 669 166 603 L223 638 Q177 703 130 768 L78 733 Z" /><glyph glyph-name="uni65AD" unicode="&#x65ad;" d="M472 -76 L547 -111 Q580 -59 606 -4 Q630 50 644 108 Q655 158 660 208 Q667 295 668 382 L780 382 L780 -99 L857 -99 L857 382 L956 382 L956 463 L668 463 L668 626 Q802 645 930 690 L904 770 Q749 719 588 700 L588 398 Q588 319 583 241 Q579 182 566 124 Q544 35 494 -42 L494 24 L170 24 L170 752 L90 752 L90 -57 L484 -57 L472 -76 ZM187 464 L187 385 L323 385 Q268 269 176 181 L217 105 Q284 179 332 269 L332 50 L407 50 L407 254 Q456 196 506 139 L557 187 Q494 259 430 329 L407 309 L407 385 L546 385 L546 464 L407 464 L407 783 L332 783 L332 464 L187 464 ZM417 540 L480 514 Q525 605 566 699 L505 722 Q463 629 417 540 ZM177 694 Q221 605 260 514 L320 541 Q279 630 237 719 L177 694 Z" /><glyph glyph-name="uni65B9" unicode="&#x65b9;" d="M57 662 L57 580 L307 580 Q305 522 302 465 Q297 379 280 295 Q265 226 232 163 Q206 116 171 76 Q112 13 43 -39 L106 -109 Q172 -56 230 4 Q265 44 295 89 Q330 146 351 210 Q372 279 381 351 L730 351 L713 111 Q711 85 703 60 Q695 41 679 30 Q665 22 649 18 Q618 13 587 14 L439 14 L456 -69 L619 -69 Q661 -69 703 -61 Q734 -53 758 -33 Q773 -17 782 3 Q796 41 799 81 Q811 256 822 433 L389 433 Q388 443 390 454 L396 580 L946 580 L946 662 L575 662 Q544 736 512 809 L428 782 Q453 722 479 662 L57 662 Z" /><glyph glyph-name="uni660E" unicode="&#x660e;" d="M322 -61 L389 -114 Q428 -77 464 -37 Q495 -1 519 38 Q561 110 574 193 L813 193 L813 52 Q813 36 809 21 Q807 13 801 7 Q792 0 780 -2 Q762 -5 744 -5 L645 -5 L662 -85 L760 -85 Q793 -85 826 -78 Q849 -73 867 -56 Q878 -43 884 -27 Q892 1 892 32 L892 745 L505 745 L505 418 Q505 328 498 239 Q492 176 470 117 Q451 77 425 42 Q377 -13 322 -61 ZM98 725 L98 10 L175 10 L175 72 L409 72 L409 725 L98 725 ZM587 665 L813 665 L813 502 L587 502 L587 665 ZM587 378 L587 425 L813 425 L813 271 L583 271 Q587 324 587 378 ZM175 152 L175 360 L333 360 L333 152 L175 152 ZM175 644 L333 644 L333 440 L175 440 L175 644 Z" /><glyph glyph-name="uni661F" unicode="&#x661f;" d="M159 757 L159 414 L830 414 L830 757 L159 757 ZM461 391 L461 322 L269 322 Q285 350 301 379 L226 413 Q158 278 52 172 L112 119 Q171 180 222 251 L461 251 L461 171 L185 171 L185 102 L461 102 L461 10 L65 10 L65 -60 L922 -60 L922 10 L548 10 L548 102 L853 102 L853 171 L548 171 L548 251 L889 251 L889 322 L548 322 L548 391 L461 391 ZM243 690 L746 690 L746 619 L243 619 L243 690 ZM243 481 L243 552 L746 552 L746 481 L243 481 Z" /><glyph glyph-name="uni662F" unicode="&#x662f;" d="M172 754 L172 407 L804 407 L804 754 L172 754 ZM22 -57 L86 -116 Q173 -45 229 52 Q277 -14 352 -46 Q397 -63 445 -70 Q503 -77 561 -77 L933 -77 L948 -5 L544 -5 L544 100 L854 100 L854 169 L544 169 L544 261 L925 261 L925 332 L49 332 L49 261 L458 261 L458 2 Q331 21 265 130 Q281 175 292 223 L209 239 Q191 145 140 65 Q90 -4 22 -57 ZM259 688 L718 688 L718 615 L259 615 L259 688 ZM259 475 L259 547 L718 547 L718 475 L259 475 Z" /><glyph glyph-name="uni6635" unicode="&#x6635;" d="M91 728 L91 -24 L165 -24 L165 41 L353 41 L353 728 L91 728 ZM301 -59 L376 -102 Q417 -38 451 30 Q472 76 486 125 Q505 195 512 269 Q520 363 520 458 L912 458 L912 748 L440 748 L440 464 Q440 371 434 278 Q429 211 411 146 Q397 103 377 62 Q342 0 301 -59 ZM587 422 L587 37 Q586 10 594 -15 Q599 -30 609 -43 Q623 -58 644 -65 Q669 -72 696 -72 L814 -72 Q843 -72 872 -66 Q893 -61 910 -47 Q920 -35 926 -21 Q934 4 935 32 Q937 102 942 172 L867 190 Q866 128 864 68 Q863 50 859 34 Q857 25 851 18 Q843 10 832 7 Q817 4 801 5 L722 5 Q707 4 692 8 Q682 11 674 19 Q669 25 667 33 Q663 48 664 64 L664 154 Q803 231 932 326 L890 394 Q843 355 793 322 Q730 279 664 241 L664 422 L587 422 ZM520 670 L834 670 L834 537 L520 537 L520 670 ZM165 126 L165 346 L279 346 L279 126 L165 126 ZM165 644 L279 644 L279 428 L165 428 L165 644 Z" /><glyph glyph-name="uni666F" unicode="&#x666f;" d="M438 455 Q452 435 465 414 L54 414 L54 351 L944 351 L944 414 L557 414 L518 478 L835 478 L835 754 L163 754 L163 478 L493 478 L438 455 ZM303 -13 L323 -88 L421 -88 Q455 -88 488 -82 Q506 -78 521 -69 Q539 -56 546 -36 Q554 -10 554 16 L554 108 L822 108 L822 300 L175 300 L175 108 L465 108 L465 47 Q465 31 461 16 Q458 5 449 -2 Q441 -7 431 -9 Q412 -13 393 -13 L303 -13 ZM256 240 L743 240 L743 168 L256 168 L256 240 ZM241 694 L757 694 L757 644 L241 644 L241 694 ZM241 538 L241 587 L757 587 L757 538 L241 538 ZM52 -18 L86 -86 Q165 -55 241 -18 Q301 8 358 44 L319 103 Q191 28 52 -18 ZM628 40 Q764 -17 895 -86 L934 -20 Q800 44 662 100 L628 40 Z" /><glyph glyph-name="uni6700" unicode="&#x6700;" d="M545 10 L543 42 L541 78 L477 69 L477 367 L955 367 L955 431 L46 431 L46 367 L140 367 L140 27 Q96 21 53 18 L59 -51 Q229 -28 401 -8 L401 -103 L477 -103 L477 1 L545 10 ZM176 766 L176 484 L825 484 L825 766 L176 766 ZM539 227 Q579 132 653 60 Q579 5 496 -30 L532 -99 Q626 -53 709 12 Q757 -22 810 -48 Q867 -76 926 -97 L961 -21 Q858 9 767 65 Q842 143 889 241 L889 312 L516 312 L516 246 L580 246 L539 227 ZM255 546 L255 597 L746 597 L746 546 L255 546 ZM255 703 L746 703 L746 653 L255 653 L255 703 ZM803 246 Q767 169 708 109 Q644 167 608 246 L803 246 ZM217 37 L217 117 L401 117 L401 59 L217 37 ZM217 367 L401 367 L401 300 L217 300 L217 367 ZM217 241 L401 241 L401 175 L217 175 L217 241 Z" /><glyph glyph-name="uni6709" unicode="&#x6709;" d="M34 307 L74 224 Q152 283 221 354 L221 -96 L304 -96 L304 90 L754 90 L754 46 Q754 30 751 16 Q748 5 740 -1 Q732 -6 723 -8 Q704 -11 686 -11 L563 -11 L579 -87 L715 -87 Q746 -87 776 -80 Q792 -75 806 -65 Q823 -51 830 -31 Q838 -5 838 22 L838 507 L347 507 Q381 556 411 610 L951 610 L951 688 L451 688 Q475 737 495 789 L406 805 Q384 744 355 688 L69 688 L69 610 L311 610 Q199 433 34 307 ZM304 264 L754 264 L754 161 L304 161 L304 264 ZM304 434 L754 434 L754 334 L304 334 L304 434 Z" /><glyph glyph-name="uni671F" unicode="&#x671f;" d="M453 -59 L527 -108 Q556 -70 581 -29 Q603 5 618 44 Q645 117 651 195 L830 195 L830 54 Q830 38 826 24 Q824 16 818 10 Q810 2 798 0 Q782 -3 765 -3 L678 -3 L694 -81 L782 -81 Q813 -81 843 -74 Q865 -68 880 -52 Q891 -39 896 -23 Q903 5 903 36 L903 741 L582 741 L582 413 Q582 324 577 235 Q574 174 558 115 Q545 77 526 42 Q493 -11 453 -59 ZM42 219 L42 148 L547 148 L547 219 L465 219 L465 622 L543 622 L543 692 L465 692 L465 789 L391 789 L391 692 L214 692 L214 789 L140 789 L140 692 L68 692 L68 622 L140 622 L140 219 L42 219 ZM657 661 L830 661 L830 503 L657 503 L657 661 ZM657 374 L657 428 L830 428 L830 271 L655 271 Q656 322 657 374 ZM44 -38 L102 -96 Q197 -10 276 91 L215 139 Q140 39 44 -38 ZM214 308 L391 308 L391 219 L214 219 L214 308 ZM214 622 L391 622 L391 533 L214 533 L214 622 ZM214 464 L391 464 L391 376 L214 376 L214 464 ZM317 89 Q381 30 442 -32 L494 24 Q432 83 369 140 L317 89 Z" /><glyph glyph-name="uni672F" unicode="&#x672f;" d="M30 73 L87 -10 Q206 78 308 186 Q390 275 454 379 L454 -99 L541 -99 L541 380 Q604 275 688 187 Q792 80 914 -4 L965 82 Q840 162 736 267 Q629 376 559 511 L926 511 L926 598 L541 598 L541 796 L454 796 L454 598 L75 598 L75 511 L435 511 Q361 375 255 264 Q152 156 30 73 ZM618 736 Q691 672 761 605 L817 664 Q744 728 672 792 L618 736 Z" /><glyph glyph-name="uni673A" unicode="&#x673a;" d="M311 -58 L386 -106 Q432 -56 468 0 Q492 40 507 83 Q528 148 534 216 Q542 307 542 398 L542 647 L712 647 L712 28 Q711 1 717 -23 Q721 -37 729 -48 Q741 -62 757 -67 Q778 -73 801 -73 L849 -73 Q874 -73 898 -68 Q916 -63 929 -51 Q938 -40 943 -27 Q950 -1 951 24 Q953 117 955 211 L876 226 Q874 141 872 58 Q872 37 865 17 Q861 12 855 9 Q847 7 839 8 L830 8 Q820 7 811 9 Q805 11 800 17 Q797 22 796 27 Q794 39 795 52 L795 731 L458 731 L458 399 Q458 314 451 230 Q445 169 426 111 Q411 72 390 38 Q354 -13 311 -58 ZM53 612 L53 532 L191 532 Q161 444 120 361 Q79 278 26 202 L68 126 Q141 226 193 339 L193 -102 L274 -102 L274 366 Q331 304 385 239 L442 291 Q376 367 306 441 L274 412 L274 532 L410 532 L410 612 L274 612 L274 795 L193 795 L193 612 L53 612 Z" /><glyph glyph-name="uni6765" unicode="&#x6765;" d="M40 34 L82 -49 Q197 1 301 71 Q385 127 456 200 L456 -100 L540 -100 L540 208 Q609 134 693 78 Q799 7 916 -43 L957 38 Q834 85 724 157 Q637 214 567 291 L940 291 L940 371 L540 371 L540 607 L901 607 L901 687 L540 687 L540 800 L456 800 L456 687 L97 687 L97 607 L456 607 L456 371 L58 371 L58 291 L430 291 Q359 213 273 155 Q162 83 40 34 ZM627 432 L688 376 Q766 460 836 552 L772 604 Q704 513 627 432 ZM163 549 Q236 466 305 380 L369 436 Q299 520 227 602 L163 549 Z" /><glyph glyph-name="uni677F" unicode="&#x677f;" d="M514 407 Q533 322 568 243 Q597 179 639 122 Q595 81 546 48 Q477 2 404 -36 L453 -112 Q526 -71 596 -23 Q647 13 694 57 Q737 11 787 -26 Q851 -75 921 -116 L966 -38 Q906 -6 851 31 Q796 70 750 118 Q798 179 832 250 Q873 339 897 435 L897 514 L497 514 L497 632 Q710 649 920 689 L903 769 Q661 724 416 708 L416 460 Q416 371 407 282 Q400 228 387 175 Q371 113 343 54 Q313 -3 274 -56 L348 -108 Q431 7 466 144 Q479 200 486 256 Q496 345 497 435 L812 435 Q794 361 763 291 Q736 233 696 183 Q661 232 637 287 Q607 356 589 430 L514 407 ZM57 614 L57 535 L174 535 Q118 360 20 206 L75 142 Q138 240 179 350 L179 -99 L258 -99 L258 377 L350 269 L404 322 L289 455 L258 427 L258 535 L380 535 L380 614 L258 614 L258 796 L179 796 L179 614 L57 614 Z" /><glyph glyph-name="uni6781" unicode="&#x6781;" d="M346 741 L346 662 L454 662 Q451 581 449 501 Q445 419 432 339 Q420 268 395 201 Q376 151 351 103 Q313 34 266 -29 L330 -74 Q407 32 457 153 Q497 255 512 364 Q555 237 641 134 Q593 88 538 51 Q467 2 391 -36 L437 -106 Q515 -63 588 -11 Q644 28 694 76 Q739 31 789 -7 Q854 -55 924 -98 L972 -25 Q904 11 842 55 Q792 91 748 134 Q793 190 828 253 Q871 332 900 417 L900 492 L766 492 L844 665 L844 741 L346 741 ZM24 207 L63 127 Q133 233 181 353 L181 -98 L259 -98 L259 379 Q306 321 353 262 L408 312 Q349 382 289 451 L259 423 L259 535 L384 535 L384 612 L259 612 L259 796 L181 796 L181 612 L53 612 L53 535 L179 535 Q149 438 105 346 Q70 273 24 207 ZM530 662 L759 662 L680 484 L680 416 L819 416 Q776 292 694 192 Q629 270 588 363 Q548 456 527 555 L530 662 Z" /><glyph glyph-name="uni679C" unicode="&#x679c;" d="M43 4 L80 -74 Q183 -35 279 17 Q376 70 460 143 L460 -100 L543 -100 L543 144 Q622 71 717 19 Q815 -34 921 -70 L959 7 Q855 35 759 83 Q666 130 588 200 L931 200 L931 273 L543 273 L543 358 L846 358 L846 747 L155 747 L155 358 L460 358 L460 273 L71 273 L71 200 L412 200 Q332 131 238 83 Q143 35 43 4 ZM238 675 L460 675 L460 588 L238 588 L238 675 ZM238 518 L460 518 L460 431 L238 431 L238 518 ZM764 675 L764 588 L543 588 L543 675 L764 675 ZM543 431 L543 518 L764 518 L764 431 L543 431 Z" /><glyph glyph-name="uni6B21" unicode="&#x6b21;" d="M219 -33 L272 -109 Q379 -50 468 32 Q552 111 597 217 Q637 125 705 52 Q795 -41 909 -106 L960 -26 Q887 11 823 61 Q767 105 722 161 Q649 257 632 377 Q633 395 634 414 L635 510 L548 510 L548 421 Q548 347 528 276 Q507 209 464 154 Q426 109 381 72 Q304 13 219 -33 ZM293 410 L365 362 Q433 456 485 560 L826 560 Q780 473 731 389 L807 354 Q861 458 917 562 L917 641 L522 641 Q550 709 574 780 L489 797 Q423 586 293 410 ZM289 330 L242 344 L204 354 Q180 281 152 209 Q107 86 59 -35 L146 -69 Q216 130 289 330 ZM81 724 Q155 602 223 477 L302 520 Q232 644 154 764 L81 724 Z" /><glyph glyph-name="uni6B4C" unicode="&#x6b4c;" d="M276 -15 L291 -86 L379 -86 Q417 -87 453 -76 Q475 -68 488 -48 L536 -103 Q608 -36 662 46 Q706 115 729 193 Q782 26 909 -94 L967 -35 Q917 8 877 59 Q839 107 812 161 Q766 263 759 376 Q760 401 761 428 Q762 477 762 528 L693 528 Q693 474 692 422 Q691 350 678 280 Q666 217 640 157 Q618 114 591 74 Q548 16 496 -32 Q503 -3 503 26 L503 305 L589 305 L589 375 L41 375 L41 305 L427 305 L427 48 Q427 31 424 15 Q421 3 413 -4 Q405 -9 396 -11 Q379 -15 361 -15 L276 -15 ZM530 449 L587 397 Q642 486 681 585 L866 585 Q832 503 797 423 L868 400 Q908 490 944 583 L944 657 L709 657 Q732 723 750 792 L673 807 Q628 617 530 449 ZM56 753 L56 681 L426 681 L426 400 L502 400 L502 681 L575 681 L575 753 L56 753 ZM96 235 L96 -24 L163 -24 L163 28 L345 28 L345 235 L96 235 ZM100 615 L100 435 L347 435 L347 615 L100 615 ZM163 178 L277 178 L277 86 L163 86 L163 178 ZM167 557 L279 557 L279 493 L167 493 L167 557 Z" /><glyph glyph-name="uni6B62" unicode="&#x6b62;" d="M511 799 L511 32 L297 32 L297 634 L210 634 L210 32 L48 32 L48 -51 L947 -51 L947 32 L598 32 L598 429 L899 429 L899 513 L598 513 L598 799 L511 799 Z" /><glyph glyph-name="uni6B64" unicode="&#x6b64;" d="M330 781 L330 88 Q269 75 210 63 L210 627 L127 627 L127 46 L42 30 L54 -57 Q307 -2 561 50 L558 89 L554 137 Q483 119 412 105 L412 434 L547 434 L547 517 L412 517 L412 781 L330 781 ZM582 797 L582 69 Q581 33 590 0 Q595 -19 608 -34 Q625 -53 650 -61 Q682 -69 716 -69 L790 -69 Q823 -69 856 -61 Q881 -55 900 -37 Q912 -23 919 -6 Q930 25 932 58 Q937 138 941 219 L860 236 Q857 161 854 88 Q853 68 848 49 Q845 36 836 27 Q829 21 820 18 Q802 14 784 15 L736 15 Q718 14 702 18 Q688 22 679 32 Q672 39 669 49 Q664 66 665 84 L665 346 Q740 399 813 456 Q876 505 936 560 L879 629 Q778 532 665 451 L665 797 L582 797 Z" /><glyph glyph-name="uni6B65" unicode="&#x6b65;" d="M75 -21 L105 -109 Q245 -83 382 -44 Q467 -18 547 16 Q643 60 727 123 Q810 188 881 268 L814 331 Q758 263 692 207 Q633 159 567 124 L567 367 L947 367 L947 455 L549 455 L549 591 L877 591 L877 672 L549 672 L549 791 L461 791 L461 455 L296 455 L296 719 L208 719 L208 455 L52 455 L52 367 L479 367 L479 123 L564 123 Q471 75 372 46 Q225 3 75 -21 ZM67 137 L116 63 Q191 118 263 180 Q324 231 380 289 L318 355 Q204 232 67 137 Z" /><glyph glyph-name="uni6BB5" unicode="&#x6bb5;" d="M361 -25 L403 -104 Q483 -71 560 -30 Q617 0 670 36 Q720 -2 775 -32 Q847 -71 923 -102 L961 -21 Q891 2 824 32 Q775 55 731 85 Q837 181 886 316 L886 395 L449 395 L449 319 L516 319 L474 300 Q520 183 608 92 Q551 56 491 29 Q427 0 361 -25 ZM133 734 L133 140 L41 130 L51 50 L133 61 L133 -100 L210 -100 L210 72 L453 103 L453 141 L452 182 Q331 164 210 150 L210 285 L426 285 L426 361 L210 361 L210 479 L426 479 L426 554 L210 554 L210 664 Q337 676 462 707 L441 784 Q372 765 303 754 Q218 740 133 734 ZM435 459 L493 410 Q522 435 547 464 Q562 482 574 503 Q601 556 599 617 L599 674 L756 674 L756 537 Q755 519 759 501 Q763 483 776 469 Q789 457 806 452 Q827 447 850 448 L939 448 L953 524 L877 524 Q864 523 853 526 Q844 528 839 534 Q835 539 834 546 Q831 559 832 572 L832 751 L523 751 L523 644 Q523 613 519 584 Q515 559 504 537 Q495 520 483 505 Q460 480 435 459 ZM553 319 L800 319 Q757 210 668 136 Q591 215 553 319 Z" /><glyph glyph-name="uni6C42" unicode="&#x6c42;" d="M283 -3 L299 -87 L406 -87 Q440 -87 474 -79 Q493 -74 509 -64 Q528 -49 536 -27 Q545 1 545 31 L545 350 Q601 244 684 158 Q788 56 916 -14 L968 69 Q881 110 804 167 Q742 214 691 273 Q798 367 897 471 L833 528 Q743 426 642 336 Q581 424 545 526 L545 560 L933 560 L933 641 L775 641 L815 689 Q743 747 669 802 L620 745 Q687 694 753 641 L545 641 L545 798 L460 798 L460 641 L76 641 L76 560 L460 560 L460 351 Q261 211 52 88 L97 6 L460 251 L460 57 Q460 41 456 26 Q452 14 443 7 Q434 2 424 0 Q404 -3 385 -3 L283 -3 ZM132 480 Q214 388 293 293 L353 348 Q274 442 192 534 L132 480 Z" /><glyph glyph-name="uni6C7D" unicode="&#x6c7d;" d="M285 477 L354 422 Q393 470 428 524 L428 464 L870 464 L870 541 L438 541 Q463 580 486 623 L928 623 L928 700 L523 700 Q541 739 556 780 L472 806 Q408 624 285 477 ZM335 379 L335 304 L720 304 L720 207 Q719 137 730 69 Q739 11 764 -40 Q777 -65 800 -83 Q822 -101 851 -102 Q875 -101 893 -86 Q917 -62 929 -30 Q954 41 970 116 L901 147 Q890 94 877 42 Q873 23 863 7 Q858 -1 849 -3 Q838 -1 832 7 Q823 22 819 39 Q808 74 805 111 Q800 166 801 222 L801 379 L335 379 ZM292 236 L251 256 L215 273 Q148 105 72 -57 L152 -95 Q219 71 292 236 ZM37 487 Q133 416 228 343 L278 412 L86 553 L37 487 ZM99 715 Q189 649 278 581 L326 649 Q237 715 147 781 L99 715 Z" /><glyph glyph-name="uni6CE8" unicode="&#x6ce8;" d="M534 776 Q574 705 611 633 L330 633 L330 551 L574 551 L574 344 L340 344 L340 262 L574 262 L574 25 L276 25 L276 -56 L952 -56 L952 25 L658 25 L658 262 L894 262 L894 344 L658 344 L658 551 L927 551 L927 633 L626 633 L689 663 Q649 738 606 812 L534 776 ZM290 237 L250 253 L209 270 Q173 178 132 89 Q98 12 61 -62 L143 -96 Q217 70 290 237 ZM36 477 Q136 405 236 331 L285 404 Q185 475 84 545 L36 477 ZM92 704 Q184 637 277 571 L324 641 Q231 707 138 772 L92 704 Z" /><glyph glyph-name="uni6D3B" unicode="&#x6d3b;" d="M365 281 L365 -103 L451 -103 L451 -53 L790 -53 L790 -103 L877 -103 L877 281 L664 281 L664 420 L950 420 L950 502 L664 502 L664 653 Q781 662 899 680 L883 759 Q747 738 610 728 Q476 717 343 713 L348 634 Q462 637 576 646 L576 502 L312 502 L312 420 L576 420 L576 281 L365 281 ZM451 199 L790 199 L790 28 L451 28 L451 199 ZM285 241 L241 256 L202 269 Q139 103 73 -60 L155 -89 Q221 75 285 241 ZM32 477 Q132 402 233 328 L283 399 Q182 472 81 545 L32 477 ZM83 701 Q179 635 271 565 L319 634 Q225 701 130 768 L83 701 Z" /><glyph glyph-name="uni6D4F" unicode="&#x6d4f;" d="M269 494 Q341 371 412 248 Q380 176 335 112 Q281 33 214 -34 L280 -86 Q338 -21 388 48 Q428 104 459 166 Q511 71 563 -23 L632 15 Q565 134 497 252 Q521 317 536 386 Q556 477 566 569 L626 569 L626 645 L269 645 L269 569 L491 569 Q480 452 447 340 L334 533 L269 494 ZM669 -7 L684 -84 L782 -84 Q812 -84 842 -77 Q859 -72 872 -62 Q888 -48 894 -27 Q901 -1 901 26 L901 788 L824 788 L824 50 Q824 34 820 19 Q818 11 812 5 Q804 -2 792 -4 Q776 -7 759 -7 L669 -7 ZM660 704 L660 124 L733 124 L733 704 L660 704 ZM244 273 L207 285 L167 298 Q113 114 54 -67 L133 -91 Q186 91 244 273 ZM32 494 Q117 422 201 349 L254 412 Q168 486 80 556 L32 494 ZM67 719 Q144 655 220 591 L270 656 Q193 718 116 778 L67 719 ZM375 786 Q401 719 424 651 L498 671 Q473 738 448 805 L375 786 Z" /><glyph glyph-name="uni6D77" unicode="&#x6d77;" d="M307 45 L762 45 Q760 29 754 15 Q750 6 742 0 Q730 -7 716 -10 Q695 -14 675 -14 L533 -14 L548 -89 L701 -89 Q735 -89 769 -82 Q793 -77 812 -60 Q825 -47 831 -31 Q841 -1 843 30 Q843 37 844 45 L933 45 L933 119 L846 119 Q848 189 851 260 L953 260 L953 333 L854 333 Q857 441 862 549 L388 549 Q418 589 445 633 L929 633 L929 708 L489 708 Q509 745 527 785 L450 808 Q380 653 266 529 L323 470 Q342 491 361 514 L340 333 L258 333 L258 260 L331 260 L307 45 ZM253 250 L220 262 L178 278 Q117 105 52 -66 L132 -95 Q191 77 253 250 ZM498 214 Q562 167 625 119 L394 119 L411 260 L535 260 L498 214 ZM675 171 Q615 216 554 260 L773 260 L766 119 L633 119 L675 171 ZM517 429 Q581 383 643 333 L420 333 L438 475 L552 475 L517 429 ZM690 388 Q633 433 574 475 L783 475 Q779 403 776 333 L647 333 L690 388 ZM79 715 Q171 648 261 578 L307 644 Q218 712 128 778 L79 715 ZM35 494 Q127 427 214 355 L262 424 Q171 490 82 558 L35 494 Z" /><glyph glyph-name="uni6E38" unicode="&#x6e38;" d="M262 644 L262 566 L322 566 Q319 490 319 415 Q316 334 308 253 Q301 190 284 129 Q271 86 252 47 Q222 -10 184 -63 L254 -102 Q290 -53 319 0 Q345 50 361 106 Q374 152 381 200 Q392 278 396 358 L486 358 Q481 210 474 63 Q473 46 470 29 Q468 22 464 17 Q456 9 446 7 Q434 5 423 6 L350 6 L367 -74 L443 -74 Q468 -74 493 -68 Q507 -63 518 -54 Q532 -41 538 -23 Q545 1 547 28 Q554 232 561 438 L398 438 Q398 502 400 566 L584 566 Q563 530 539 498 L606 455 L620 474 L620 431 L818 431 L724 338 L724 276 L583 276 L583 195 L724 195 L724 48 Q724 33 721 18 Q718 8 710 2 Q702 -2 694 -3 Q676 -6 658 -6 L596 -6 L612 -86 L698 -86 Q725 -86 752 -80 Q766 -77 778 -68 Q792 -55 796 -36 Q802 -9 802 18 L802 195 L957 195 L957 276 L802 276 L802 319 L914 429 L914 509 L642 509 Q668 552 691 597 L953 597 L953 678 L728 678 Q749 731 766 786 L687 797 Q649 675 584 566 L584 644 L494 644 Q466 723 437 803 L357 785 L407 644 L262 644 ZM239 265 L212 275 L158 292 Q99 109 36 -71 L118 -96 Q177 84 239 265 ZM32 488 Q115 423 197 355 L248 425 Q167 492 82 554 L32 488 ZM66 709 Q142 649 216 586 L266 652 Q191 712 115 772 L66 709 Z" /><glyph glyph-name="uni6ED1" unicode="&#x6ed1;" d="M280 488 L280 303 L358 303 L358 425 L850 425 L850 303 L929 303 L929 488 L845 488 L845 756 L354 756 L354 488 L280 488 ZM365 360 L365 -91 L447 -91 L447 57 L760 57 L760 35 Q760 21 757 7 Q754 0 750 -4 Q743 -11 733 -13 Q720 -16 707 -16 L623 -16 L639 -87 L730 -87 Q759 -87 788 -81 Q803 -77 816 -68 Q831 -54 836 -35 Q842 -9 842 17 L842 360 L365 360 ZM439 691 L761 691 L761 488 L657 488 L657 623 L439 623 L439 691 ZM248 261 L212 271 L163 283 Q144 202 121 123 Q95 29 66 -63 L153 -86 Q199 87 248 261 ZM447 299 L760 299 L760 236 L447 236 L447 299 ZM27 484 Q119 417 206 344 L257 416 Q167 485 75 551 L27 484 ZM447 177 L760 177 L760 116 L447 116 L447 177 ZM72 708 Q163 640 251 567 L301 636 Q212 705 123 773 L72 708 ZM585 561 L585 488 L439 488 L439 561 L585 561 Z" /><glyph glyph-name="uni7167" unicode="&#x7167;" d="M105 744 L105 177 L388 177 L388 744 L105 744 ZM471 424 L471 161 L887 161 L887 424 L471 424 ZM399 489 L437 420 Q479 442 518 470 Q549 493 574 522 Q614 571 627 634 Q632 656 636 679 L822 679 Q817 640 815 601 Q814 585 809 570 Q806 562 799 557 Q789 549 776 547 Q757 544 739 545 L644 545 L657 478 L760 478 Q790 477 820 483 Q842 487 859 501 Q870 512 877 526 Q887 551 889 578 L901 750 L444 750 L444 679 L557 679 L554 664 Q547 637 537 611 Q526 586 508 565 Q486 540 457 521 Q429 503 399 489 ZM547 357 L813 357 L813 233 L547 233 L547 357 ZM181 670 L312 670 L312 496 L181 496 L181 670 ZM181 252 L181 425 L312 425 L312 252 L181 252 ZM47 -76 L127 -113 Q194 -3 237 117 L164 143 Q116 27 47 -76 ZM747 114 Q788 48 827 -18 Q851 -59 872 -103 L949 -63 Q888 46 816 150 L747 114 ZM316 108 Q342 7 359 -96 L441 -80 Q418 21 392 122 L316 108 ZM535 110 Q577 13 608 -88 L687 -66 Q651 34 607 131 L535 110 Z" /><glyph glyph-name="uni71C3" unicode="&#x71c3;" d="M298 -77 L370 -106 Q420 7 454 128 L391 145 Q446 200 494 261 Q525 303 551 349 Q584 410 606 475 Q630 547 646 622 L646 695 L500 695 Q513 735 524 777 L459 792 Q430 683 383 581 Q339 489 279 408 L328 357 Q342 375 356 395 L437 332 L473 384 L391 449 Q409 478 425 509 L499 456 L534 510 L452 568 Q464 594 475 622 L575 622 Q551 488 481 372 Q414 266 318 186 L375 130 L384 138 Q350 26 298 -77 ZM34 -50 L106 -94 Q144 -27 174 42 Q198 101 214 163 Q258 96 302 29 L359 71 Q305 155 244 235 L226 222 Q244 347 244 474 L277 453 Q327 543 368 639 L315 665 Q282 593 244 526 L244 792 L170 792 L170 430 Q170 353 162 277 Q156 230 144 184 Q128 126 102 71 Q71 9 34 -50 ZM538 201 L583 143 Q651 193 703 261 Q742 314 761 377 Q808 238 917 141 L969 202 Q907 251 864 317 Q817 393 796 480 L949 480 L949 554 L785 554 Q785 567 786 581 Q785 686 784 792 L715 792 Q715 685 716 579 L716 554 L633 554 L633 480 L711 480 Q704 397 661 327 Q635 288 602 256 Q571 227 538 201 ZM37 622 Q65 484 91 346 L155 360 Q127 497 98 634 L37 622 ZM793 131 Q843 22 881 -92 L954 -68 Q911 45 861 155 L793 131 ZM644 133 Q674 30 691 -74 L762 -62 Q740 41 711 144 L644 133 ZM495 130 Q512 26 521 -78 L592 -72 Q578 33 561 138 L495 130 ZM796 734 Q836 659 876 584 L935 614 L852 762 L796 734 Z" /><glyph glyph-name="uni7247" unicode="&#x7247;" d="M602 795 L602 543 L274 543 L274 779 L191 779 L191 467 Q191 373 184 279 Q178 208 158 139 Q144 93 122 51 Q87 -9 43 -63 L124 -109 Q186 -32 224 57 Q255 139 264 226 L640 226 L640 -96 L724 -96 L724 307 L270 307 Q274 384 274 462 L941 462 L941 543 L684 543 L684 795 L602 795 Z" /><glyph glyph-name="uni724C" unicode="&#x724c;" d="M442 177 L468 140 L380 140 L380 66 L656 66 L656 -101 L738 -101 L738 66 L956 66 L956 140 L738 140 L738 242 L656 242 L656 140 L516 140 Q562 167 600 205 Q631 235 653 273 L898 273 L898 702 L677 702 Q695 744 710 789 L627 807 Q609 753 587 702 L435 702 L435 273 L570 273 Q547 247 520 227 Q482 199 442 177 ZM30 -74 L106 -109 Q143 -30 161 53 Q177 141 180 230 L279 230 L279 -97 L350 -97 L350 310 L182 310 L182 423 L412 423 L412 503 L343 503 L343 775 L272 775 L272 503 L182 503 L182 756 L108 756 L108 372 Q108 291 104 211 Q101 166 94 122 Q86 73 70 25 Q52 -25 30 -74 ZM683 345 Q698 397 701 452 L823 452 L823 345 L683 345 ZM823 629 L823 523 L703 523 L703 629 L823 629 ZM511 629 L631 629 L631 523 L511 523 L511 629 ZM610 345 L511 345 L511 452 L629 452 Q627 396 610 345 Z" /><glyph glyph-name="uni7406" unicode="&#x7406;" d="M388 190 L388 115 L610 115 L610 14 L327 14 L327 -62 L955 -62 L955 14 L689 14 L689 115 L916 115 L916 190 L689 190 L689 291 L895 291 L895 744 L404 744 L404 291 L610 291 L610 190 L388 190 ZM54 713 L54 636 L176 636 L176 417 L62 417 L62 340 L176 340 L176 81 Q109 65 42 54 L54 -24 Q214 13 377 46 L374 83 L370 125 Q312 110 255 98 L255 340 L363 340 L363 417 L255 417 L255 636 L370 636 L370 713 L54 713 ZM816 668 L816 553 L689 553 L689 668 L816 668 ZM689 365 L689 480 L816 480 L816 365 L689 365 ZM485 668 L610 668 L610 553 L485 553 L485 668 ZM485 480 L610 480 L610 365 L485 365 L485 480 Z" /><glyph glyph-name="uni751F" unicode="&#x751f;" d="M476 796 L476 607 L275 607 Q300 672 320 740 L235 759 Q182 552 55 381 L132 336 Q194 425 241 524 L476 524 L476 333 L162 333 L162 251 L476 251 L476 30 L73 30 L73 -53 L947 -53 L947 30 L564 30 L564 251 L875 251 L875 333 L564 333 L564 524 L909 524 L909 607 L564 607 L564 796 L476 796 Z" /><glyph glyph-name="uni7528" unicode="&#x7528;" d="M41 -70 L119 -113 Q165 -41 193 38 Q215 108 221 181 L469 181 L469 -81 L552 -81 L552 181 L797 181 L797 54 Q797 38 794 22 Q791 11 782 4 Q775 0 765 -2 Q747 -5 728 -5 L627 -5 L643 -89 L756 -89 Q787 -89 819 -82 Q835 -77 850 -67 Q866 -53 873 -32 Q880 -3 880 26 L880 741 L141 741 L141 342 Q141 268 137 195 Q133 142 120 91 Q110 57 95 25 Q71 -24 41 -70 ZM797 659 L797 498 L552 498 L552 659 L797 659 ZM226 659 L469 659 L469 498 L226 498 L226 659 ZM552 416 L797 416 L797 264 L552 264 L552 416 ZM226 312 L226 416 L469 416 L469 264 L225 264 Q226 287 226 312 Z" /><glyph glyph-name="uni7537" unicode="&#x7537;" d="M142 758 L142 353 L857 353 L857 758 L142 758 ZM81 255 L81 176 L368 176 Q356 141 334 113 Q307 81 272 58 Q223 28 169 8 Q115 -11 60 -28 L96 -109 Q176 -80 253 -45 Q311 -17 361 21 Q434 83 457 176 L782 176 L772 89 Q770 68 763 49 Q757 34 743 26 Q731 19 717 17 Q689 13 661 14 L506 14 L521 -67 L692 -67 Q731 -67 770 -59 Q791 -54 809 -43 Q830 -28 841 -4 Q853 24 857 55 Q866 154 874 255 L470 255 Q475 296 478 339 L391 339 Q388 296 383 255 L81 255 ZM226 522 L458 522 L458 425 L226 425 L226 522 ZM541 425 L541 522 L772 522 L772 425 L541 425 ZM226 687 L458 687 L458 592 L226 592 L226 687 ZM772 687 L772 592 L541 592 L541 687 L772 687 Z" /><glyph glyph-name="uni753B" unicode="&#x753b;" d="M277 582 L277 124 L722 124 L722 582 L277 582 ZM809 593 L809 33 L190 33 L190 592 L108 592 L108 -46 L809 -46 L809 -95 L891 -95 L891 593 L809 593 ZM55 742 L55 665 L945 665 L945 742 L55 742 ZM354 321 L463 321 L463 196 L354 196 L354 321 ZM537 196 L537 321 L645 321 L645 196 L537 196 ZM354 510 L463 510 L463 389 L354 389 L354 510 ZM645 510 L645 389 L537 389 L537 510 L645 510 Z" /><glyph glyph-name="uni7565" unicode="&#x7565;" d="M83 721 L83 -45 L152 -45 L152 17 L424 17 L424 313 L445 263 Q512 287 575 318 Q640 351 698 394 Q745 358 798 332 Q865 299 938 278 L962 353 Q899 370 840 396 Q795 415 755 443 Q845 528 896 642 L896 716 L644 716 Q662 749 677 785 L604 809 Q569 725 520 650 Q478 583 424 527 L424 721 L83 721 ZM506 270 L506 -91 L580 -91 L580 -40 L802 -40 L802 -91 L876 -91 L876 270 L506 270 ZM580 197 L802 197 L802 32 L580 32 L580 197 ZM474 472 Q513 515 548 563 Q586 498 639 446 Q539 376 424 336 L424 519 L474 472 ZM593 628 Q597 634 601 642 L815 642 Q766 557 695 491 Q633 551 593 628 ZM287 95 L287 332 L356 332 L356 95 L287 95 ZM152 332 L220 332 L220 95 L152 95 L152 332 ZM356 643 L356 411 L287 411 L287 643 L356 643 ZM152 643 L220 643 L220 411 L152 411 L152 643 Z" /><glyph glyph-name="uni7684" unicode="&#x7684;" d="M93 653 L93 -100 L174 -100 L174 -40 L451 -40 L451 653 L293 653 Q314 723 330 796 L242 811 Q225 731 202 653 L93 653 ZM456 476 L530 430 Q570 495 602 565 L829 565 L815 91 Q814 68 808 46 Q804 35 796 26 Q782 15 765 11 Q741 7 716 8 L597 8 L614 -76 L744 -76 Q780 -76 817 -68 Q843 -62 864 -44 Q877 -31 885 -13 Q896 17 897 50 L916 650 L638 650 Q665 723 686 799 L603 817 Q578 722 539 632 Q504 550 456 476 ZM174 44 L174 268 L369 268 L369 44 L174 44 ZM174 569 L369 569 L369 352 L174 352 L174 569 ZM519 408 Q600 304 674 196 L746 245 Q666 352 582 457 L519 408 Z" /><glyph glyph-name="uni76D8" unicode="&#x76d8;" d="M400 380 Q472 327 543 271 L588 329 Q523 375 460 423 L732 423 L732 369 Q733 346 718 331 Q708 325 696 323 Q680 320 664 321 L592 321 L606 255 L708 255 Q736 254 763 261 Q777 266 790 275 Q804 289 810 308 Q816 334 816 360 L816 423 L945 423 L945 497 L816 497 L816 722 L511 722 Q525 756 538 791 L452 803 Q437 762 421 722 L217 722 L217 525 Q216 510 216 497 L60 497 L60 423 L209 423 Q200 379 172 344 Q154 321 131 301 Q101 275 70 252 L126 189 L148 207 L148 4 L46 4 L46 -68 L954 -68 L954 4 L851 4 L851 225 L169 225 Q221 268 258 324 Q286 370 295 423 L433 423 L400 380 ZM601 548 Q533 598 466 649 L732 649 L732 497 L560 497 L601 548 ZM417 602 Q485 550 552 497 L301 497 L301 649 L457 649 L417 602 ZM769 155 L769 4 L640 4 L640 155 L769 155 ZM231 155 L360 155 L360 4 L231 4 L231 155 ZM438 155 L562 155 L562 4 L438 4 L438 155 Z" /><glyph glyph-name="uni7701" unicode="&#x7701;" d="M39 400 L62 322 Q129 335 196 351 L196 -102 L281 -102 L281 -46 L756 -46 L756 -101 L841 -101 L841 422 L444 422 Q608 475 758 562 L715 628 Q565 541 400 488 Q222 432 39 400 ZM281 222 L756 222 L756 151 L281 151 L281 222 ZM281 354 L756 354 L756 285 L281 285 L281 354 ZM281 88 L756 88 L756 20 L281 20 L281 88 ZM50 557 L92 487 Q240 573 371 686 L322 747 Q195 638 50 557 ZM636 689 Q780 598 922 503 L965 574 Q822 662 679 751 L636 689 ZM453 797 L453 549 L540 549 L540 797 L453 797 Z" /><glyph glyph-name="uni77E5" unicode="&#x77e5;" d="M525 709 L525 -73 L605 -74 L605 14 L809 14 L809 -74 L889 -74 L889 709 L525 709 ZM40 -47 L105 -105 Q165 -43 214 27 Q251 82 277 143 Q352 58 425 -30 L493 22 Q407 124 318 223 L297 202 Q313 261 320 323 L482 323 L482 406 L324 406 Q323 498 325 591 L465 591 L465 673 L216 673 Q234 725 251 779 L172 796 Q127 636 48 490 L118 451 Q155 518 184 591 L245 591 Q244 498 244 406 L44 406 L44 323 L240 323 Q230 228 187 143 Q161 93 126 48 Q86 -1 40 -47 ZM605 627 L809 627 L809 96 L605 96 L605 627 Z" /><glyph glyph-name="uni795E" unicode="&#x795e;" d="M26 237 L68 160 Q127 216 179 280 L179 -97 L258 -97 L258 320 Q309 277 359 233 L395 276 L395 68 L470 68 L470 128 L614 128 L614 -99 L692 -99 L692 128 L834 128 L834 68 L909 68 L909 659 L692 659 L692 798 L614 798 L614 659 L395 659 L395 305 Q339 353 282 400 L258 371 L258 390 Q302 461 338 539 L338 622 L210 622 L282 647 Q252 725 220 803 L144 779 Q177 701 206 622 L66 622 L66 538 L248 538 Q206 451 149 374 Q93 300 26 237 ZM470 582 L614 582 L614 432 L470 432 L470 582 ZM470 355 L614 355 L614 206 L470 206 L470 355 ZM834 582 L834 432 L692 432 L692 582 L834 582 ZM692 355 L834 355 L834 206 L692 206 L692 355 Z" /><glyph glyph-name="uni79F0" unicode="&#x79f0;" d="M52 708 L60 632 Q120 639 180 648 L180 524 L49 524 L49 447 L180 447 Q122 287 28 147 L74 77 Q136 172 180 279 L180 -98 L255 -98 L255 292 Q297 250 339 208 L391 266 L255 394 L255 447 L367 447 L367 450 L437 415 Q485 498 523 587 L838 587 L772 452 L847 425 L927 587 L927 666 L554 666 Q573 721 590 779 L510 792 Q462 613 367 456 L367 524 L255 524 L255 661 Q319 671 384 687 L371 763 Q213 726 52 708 ZM464 -6 L480 -86 L578 -86 Q605 -86 631 -79 Q651 -74 666 -60 Q676 -48 682 -34 Q689 -9 689 16 L689 512 L609 512 L609 46 Q609 32 605 19 Q602 9 594 3 Q586 -1 578 -3 Q562 -6 546 -6 L464 -6 ZM304 20 L378 -11 Q478 160 538 350 L465 372 Q405 186 304 20 ZM741 339 Q820 167 896 -7 L966 26 L809 371 L741 339 Z" /><glyph glyph-name="uni7A97" unicode="&#x7a97;" d="M135 461 L135 -98 L216 -98 L216 -54 L786 -54 L786 -98 L867 -98 L867 461 L508 461 Q528 495 545 533 L464 557 Q443 507 416 461 L135 461 ZM216 393 L786 393 L786 14 L216 14 L216 393 ZM238 214 L276 161 Q343 206 400 265 L628 265 Q586 221 536 189 Q474 217 414 247 L378 197 Q424 173 471 152 Q369 103 260 77 L286 19 Q360 39 432 67 Q488 88 541 118 Q614 82 689 48 L718 104 L603 158 Q667 203 716 266 L716 323 L452 323 L478 355 L423 391 Q390 343 348 304 Q297 254 238 214 ZM95 713 L95 570 L178 570 L178 646 L822 646 L822 570 L905 570 L905 713 L558 713 Q534 761 511 811 L429 790 Q449 751 468 713 L95 713 ZM63 517 L82 449 Q259 500 432 569 L403 632 Q235 565 63 517 ZM572 569 Q745 512 918 454 L938 520 L596 632 L572 569 Z" /><glyph glyph-name="uni7B26" unicode="&#x7b26;" d="M521 -8 L538 -90 L665 -90 Q701 -90 736 -83 Q754 -78 770 -68 Q788 -54 796 -31 Q803 -2 803 28 L803 309 L947 309 L947 389 L803 389 L803 489 L720 489 L720 389 L327 389 L327 309 L720 309 L720 52 Q720 35 716 19 Q713 8 703 1 Q694 -3 684 -5 Q663 -8 642 -8 L521 -8 ZM33 218 L74 145 Q138 201 194 267 L194 -96 L278 -96 L278 388 Q305 435 329 485 L256 516 Q172 346 33 218 ZM39 520 L109 473 Q170 544 221 624 L294 624 L270 610 Q308 558 342 503 L410 540 L354 624 L516 624 L516 700 L265 700 Q287 739 305 782 L226 803 Q190 724 143 652 Q97 581 39 520 ZM460 522 L533 484 Q581 550 619 624 L708 624 L688 611 Q730 558 771 505 L834 548 Q803 586 773 624 L943 624 L943 700 L655 700 L688 782 L613 804 Q556 651 460 522 ZM385 248 Q464 163 537 73 L602 130 Q526 217 448 302 L385 248 Z" /><glyph glyph-name="uni7C89" unicode="&#x7c89;" d="M47 458 L47 377 L189 377 Q163 310 127 250 Q85 178 32 114 L74 38 Q152 128 202 238 L202 -94 L282 -94 L282 243 Q336 182 393 124 L448 172 Q381 243 312 312 L282 283 L282 377 L400 377 L400 418 L457 379 L457 329 L534 329 Q532 317 533 306 Q529 245 517 185 Q506 137 482 94 Q463 63 437 35 Q394 -9 345 -47 L405 -106 Q457 -62 503 -10 Q531 22 552 59 Q578 110 591 167 Q605 235 610 305 Q609 317 611 329 L791 329 L778 85 Q777 64 771 44 Q767 34 759 25 Q748 15 733 11 Q712 7 691 8 L601 8 L618 -73 L722 -73 Q753 -73 783 -66 Q806 -60 824 -43 Q836 -29 843 -12 Q853 18 855 52 Q863 218 870 386 Q886 365 905 346 L968 400 Q896 470 847 559 Q788 671 761 796 L687 779 Q709 680 748 587 Q787 494 849 413 L493 413 Q597 567 647 747 L571 766 Q518 578 400 424 L400 458 L282 458 L282 801 L202 801 L202 458 L47 458 ZM298 524 L366 500 Q407 602 444 707 L377 727 Q341 623 298 524 ZM41 702 L111 498 L178 521 Q143 623 107 725 L41 702 Z" /><glyph glyph-name="uni7CFB" unicode="&#x7cfb;" d="M124 493 L141 419 Q179 422 219 425 L461 432 Q389 386 313 348 Q253 318 189 297 Q148 288 108 286 L125 201 Q170 208 217 210 Q343 214 471 218 L471 45 Q471 31 467 19 Q463 9 454 3 Q445 0 436 -2 Q417 -5 399 -5 L307 -5 L324 -85 L428 -85 Q461 -85 494 -79 Q511 -75 526 -66 Q542 -53 549 -33 Q556 -6 556 21 L556 220 L818 226 Q844 198 871 171 L931 226 L719 443 L656 391 L741 305 Q554 298 368 292 Q594 407 785 576 L730 638 Q652 567 569 505 L317 498 Q408 553 487 627 L464 653 Q680 664 896 683 L882 764 Q493 728 104 719 L112 638 Q255 642 398 650 Q308 572 206 512 Q190 504 174 501 Q149 495 124 493 ZM626 109 Q771 21 915 -69 L959 2 Q813 89 670 180 L626 109 ZM43 -1 L87 -71 Q234 12 367 118 L315 183 Q265 139 210 102 Q128 47 43 -1 Z" /><glyph glyph-name="uni7ECF" unicode="&#x7ecf;" d="M361 390 L404 316 Q544 374 666 466 Q793 393 919 318 L967 390 Q850 457 732 520 Q804 582 863 659 L863 734 L420 734 L420 654 L751 654 Q723 621 692 592 Q644 550 591 515 Q482 441 361 390 ZM425 289 L425 210 L619 210 L619 24 L365 24 L365 -54 L949 -54 L949 24 L699 24 L699 210 L894 210 L894 289 L425 289 ZM67 248 L86 169 Q114 175 144 180 Q261 196 379 211 L378 293 Q289 279 201 267 Q320 419 415 589 L346 625 Q313 567 279 512 Q218 509 158 507 Q197 559 229 615 Q270 686 304 762 L231 792 Q199 720 161 652 Q125 585 81 525 Q66 504 43 498 L62 422 Q83 425 106 428 L231 436 Q180 356 121 283 Q112 269 98 260 Q83 252 67 248 ZM353 10 L350 60 L348 93 Q191 65 35 42 L45 -38 Q198 -13 353 10 Z" /><glyph glyph-name="uni7ED8" unicode="&#x7ed8;" d="M383 14 L402 -55 Q432 -48 464 -48 Q642 -38 822 -31 L861 -91 L925 -47 Q848 72 770 190 L705 152 L777 38 L498 28 Q528 63 553 103 Q587 156 618 213 L928 213 L928 286 L383 286 L383 213 L531 213 Q481 127 423 47 Q407 25 383 14 ZM354 479 L401 412 Q431 434 461 460 L461 396 L825 396 L825 469 L471 469 Q581 566 653 695 Q746 523 912 417 L955 487 Q781 598 691 784 L614 784 Q522 598 354 479 ZM69 259 L88 174 Q116 180 145 185 Q252 201 360 216 L358 293 Q276 280 195 268 Q255 346 307 430 Q360 513 407 600 L340 636 Q309 577 275 521 Q214 519 155 516 Q191 563 221 615 Q264 688 301 766 L228 797 Q195 722 157 651 Q124 589 82 533 Q66 514 44 508 L62 429 Q83 433 106 436 L226 444 Q178 367 125 296 Q115 282 102 273 Q86 264 69 259 ZM383 20 L377 66 L372 105 Q206 67 39 36 L52 -48 Q217 -15 383 20 Z" /><glyph glyph-name="uni7ED9" unicode="&#x7ed9;" d="M425 301 L425 -89 L502 -89 L502 -42 L787 -42 L787 -90 L864 -90 L864 301 L425 301 ZM333 465 L383 399 Q430 433 473 475 L473 414 L815 414 L815 485 Q867 435 926 394 L969 466 Q868 535 788 628 Q724 704 682 796 L608 796 Q560 692 486 606 Q417 526 333 465 ZM57 248 L81 168 Q108 176 137 182 Q252 200 369 213 L367 292 L199 268 Q250 336 295 410 Q358 510 418 614 L348 653 Q309 584 268 517 Q212 514 156 513 Q190 562 220 615 Q264 693 305 773 L233 806 Q199 731 160 661 Q125 596 83 536 Q66 515 42 506 L61 429 Q84 434 109 437 Q166 441 224 445 Q174 364 117 289 Q107 275 93 266 Q76 255 57 248 ZM502 226 L787 226 L787 31 L502 31 L502 226 ZM645 704 Q710 582 811 489 L487 489 Q582 584 645 704 ZM388 23 L384 64 L379 109 Q206 72 32 44 L48 -39 Q217 -5 388 23 Z" /><glyph glyph-name="uni7EDF" unicode="&#x7edf;" d="M357 387 L379 315 L456 324 Q472 324 489 326 L489 276 Q487 215 477 155 Q467 109 442 70 Q421 41 394 17 Q344 -20 289 -51 L339 -118 Q401 -81 455 -34 Q486 -3 511 32 Q541 80 554 135 Q567 201 569 268 Q569 298 570 329 L671 334 L671 25 Q670 -2 677 -29 Q682 -43 692 -55 Q706 -69 725 -74 Q749 -80 775 -80 L828 -80 Q856 -80 883 -74 Q898 -70 910 -61 Q925 -50 932 -32 Q939 -11 940 12 L945 151 L874 167 Q873 103 871 41 Q871 20 860 4 Q853 -1 844 -3 Q831 -5 818 -5 L790 -5 Q778 -5 768 -3 Q760 -1 755 3 Q751 8 750 14 Q747 26 748 39 L748 337 Q788 338 829 340 Q849 312 869 284 L932 327 L761 561 L698 520 L778 411 Q634 404 491 400 Q526 439 557 482 Q601 541 643 603 L934 603 L934 680 L651 680 L699 696 Q667 757 636 818 L558 790 Q587 735 614 680 L373 680 L373 603 L550 603 Q509 543 465 486 Q436 446 402 411 Q383 392 357 387 ZM60 244 L80 167 L139 179 L367 212 L366 291 Q284 279 203 268 Q257 342 303 421 Q352 502 394 587 L321 621 Q294 568 265 517 Q208 513 151 511 Q187 561 217 616 Q259 690 294 768 L217 798 Q186 723 149 652 Q116 587 75 528 Q62 508 40 503 L58 425 Q80 431 104 433 L219 440 Q168 357 112 279 Q92 252 60 244 ZM387 25 L383 63 L377 110 Q206 70 33 42 L47 -43 L387 25 Z" /><glyph glyph-name="uni8054" unicode="&#x8054;" d="M454 75 L453 116 L452 155 Q413 147 375 142 L375 663 L436 663 L436 740 L46 740 L46 663 L97 663 L97 103 Q64 97 31 95 L39 13 Q169 35 300 54 L300 -99 L375 -99 L375 64 Q414 70 454 75 ZM383 -33 L434 -102 Q511 -53 574 12 Q636 76 671 159 Q709 70 776 0 Q834 -59 909 -98 L955 -23 Q867 17 803 89 Q731 172 704 279 L939 279 L939 361 L708 361 L708 521 L919 521 L919 602 L776 602 Q828 684 878 769 L805 803 Q749 700 686 602 L439 602 L439 521 L628 521 L628 361 L415 361 L415 279 L622 279 Q608 189 556 114 Q524 71 483 36 Q436 -2 383 -33 ZM168 112 L168 260 L300 260 L300 131 L168 112 ZM168 663 L300 663 L300 532 L168 532 L168 663 ZM168 460 L300 460 L300 332 L168 332 L168 460 ZM468 771 Q519 689 566 604 L634 642 Q584 725 531 806 L468 771 Z" /><glyph glyph-name="uni80CC" unicode="&#x80cc;" d="M171 394 L171 -96 L256 -96 L256 70 L743 70 L743 47 Q743 30 739 14 Q736 2 726 -5 Q718 -11 709 -13 Q691 -17 673 -17 L520 -17 L535 -92 L693 -92 Q727 -92 761 -85 Q785 -79 803 -61 Q815 -47 821 -30 Q829 1 829 35 L829 394 L171 394 ZM551 797 L551 547 Q550 520 557 495 Q563 476 578 463 Q590 454 605 450 Q633 443 661 444 L803 444 Q835 443 867 449 Q889 453 906 466 Q917 477 923 491 Q932 516 934 543 Q936 581 937 621 L858 639 Q857 603 856 568 Q855 555 851 543 Q847 533 839 527 Q827 520 813 518 Q799 516 784 517 L696 517 Q679 516 664 519 Q655 521 649 526 Q640 533 638 543 Q634 557 635 571 L635 611 Q774 647 911 695 L887 765 Q763 717 635 681 L635 797 L551 797 ZM337 797 L337 714 L81 714 L81 640 L337 640 L337 572 Q242 552 147 534 Q102 525 58 520 L68 442 Q202 470 337 498 L337 435 L423 435 L423 797 L337 797 ZM256 198 L743 198 L743 136 L256 136 L256 198 ZM256 323 L743 323 L743 262 L256 262 L256 323 Z" /><glyph glyph-name="uni80FD" unicode="&#x80fd;" d="M109 459 L109 -92 L187 -92 L187 99 L402 99 L402 38 Q402 25 401 13 Q400 5 395 -1 Q391 -5 385 -6 Q373 -9 361 -9 L285 -9 L301 -86 L374 -86 Q401 -86 427 -81 Q446 -77 461 -64 Q470 -54 474 -41 Q481 -17 481 7 L481 459 L109 459 ZM565 349 L565 31 Q564 12 568 -5 Q573 -25 585 -41 Q597 -55 615 -62 Q636 -69 659 -69 L818 -69 Q845 -69 873 -63 Q893 -58 909 -44 Q920 -34 927 -20 Q936 2 939 27 Q944 86 948 146 L870 166 Q868 113 864 62 Q862 46 857 32 Q853 21 843 14 Q835 9 826 7 Q809 3 792 4 L701 4 Q687 3 673 7 Q663 9 655 17 Q642 35 644 58 L644 118 Q790 175 929 248 L889 319 Q770 251 644 201 L644 349 L565 349 ZM564 792 L564 476 Q563 457 567 439 Q571 420 583 404 Q594 390 611 384 Q631 377 653 378 L821 378 Q847 377 873 383 Q893 388 908 401 Q918 411 924 424 Q933 447 935 472 L942 573 L864 596 Q862 551 860 508 Q859 491 854 475 Q851 468 846 462 Q837 455 826 454 Q810 452 794 453 L693 453 Q680 452 668 455 Q659 458 653 464 Q642 482 644 503 L644 554 Q722 583 800 616 Q860 641 918 672 L881 745 Q833 717 782 695 Q714 663 644 636 L644 792 L564 792 ZM328 683 Q360 641 392 599 Q292 592 193 589 Q269 672 327 769 L249 804 Q189 694 101 606 Q83 590 61 586 L81 510 Q113 516 147 519 Q293 527 441 534 L480 480 L545 528 Q467 628 387 726 L328 683 ZM187 242 L402 242 L402 169 L187 169 L187 242 ZM187 383 L402 383 L402 311 L187 311 L187 383 Z" /><glyph glyph-name="uni81EA" unicode="&#x81ea;" d="M150 681 L150 -96 L237 -96 L237 -37 L765 -37 L765 -93 L852 -93 L852 681 L497 681 Q521 737 542 795 L442 809 Q420 743 394 681 L150 681 ZM237 178 L765 178 L765 44 L237 44 L237 178 ZM237 600 L765 600 L765 467 L237 467 L237 600 ZM237 388 L765 388 L765 258 L237 258 L237 388 Z" /><glyph glyph-name="uni821E" unicode="&#x821e;" d="M54 628 L109 570 Q159 610 203 658 L225 658 L225 561 L96 561 L96 497 L225 497 L225 401 L52 401 L52 334 L952 334 L952 401 L805 401 L805 497 L920 497 L920 561 L805 561 L805 658 L932 658 L932 725 L257 725 L300 786 L232 821 Q161 708 54 628 ZM496 68 L496 18 L709 18 L709 -102 L784 -102 L784 18 L955 18 L955 83 L784 83 L784 183 L944 183 L944 246 L784 246 L784 318 L709 318 L709 246 L509 246 L509 183 L709 183 L709 83 L572 83 L591 156 L522 163 L496 68 ZM43 117 L89 65 Q126 95 160 131 Q208 95 257 58 L302 103 L201 176 Q207 183 214 192 L396 192 Q355 118 289 67 Q243 31 193 2 Q134 -30 72 -58 L122 -117 Q233 -64 328 13 Q418 88 472 192 L472 257 L260 257 Q275 278 288 302 L220 324 Q151 203 43 117 ZM633 658 L738 658 L738 561 L633 561 L633 658 ZM292 658 L396 658 L396 561 L292 561 L292 658 ZM633 497 L738 497 L738 401 L633 401 L633 497 ZM463 658 L566 658 L566 561 L463 561 L463 658 ZM292 497 L396 497 L396 401 L292 401 L292 497 ZM463 497 L566 497 L566 401 L463 401 L463 497 Z" /><glyph glyph-name="uni827A" unicode="&#x827a;" d="M795 405 L795 484 L158 484 L158 405 L633 405 Q525 351 420 293 Q324 241 234 179 Q204 158 177 134 Q156 116 139 95 Q127 79 119 60 Q113 45 113 29 Q112 5 121 -15 Q130 -34 148 -46 Q170 -60 195 -64 Q221 -68 247 -69 L730 -69 Q772 -69 815 -62 Q837 -57 857 -46 Q880 -31 892 -7 Q904 23 907 57 L916 193 L827 213 L820 88 Q818 66 812 46 Q806 31 793 21 Q781 15 768 12 Q742 8 716 9 L275 9 Q251 7 229 17 Q216 25 217 41 Q217 49 221 56 Q228 68 238 77 Q281 116 330 146 Q432 209 538 267 Q665 337 795 405 ZM54 695 L54 615 L302 615 L302 527 L385 527 L385 615 L613 615 L613 527 L695 527 L695 615 L942 615 L942 695 L695 695 L695 798 L613 798 L613 695 L385 695 L385 798 L302 798 L302 695 L54 695 Z" /><glyph glyph-name="uni82F1" unicode="&#x82f1;" d="M49 -33 L89 -114 Q149 -98 208 -78 Q275 -54 339 -22 Q391 4 436 41 Q474 72 502 113 Q555 32 640 -14 Q697 -45 759 -67 Q833 -92 911 -110 L951 -27 Q890 -15 831 1 Q766 20 704 48 Q655 72 613 106 Q577 136 553 176 L953 176 L953 253 L833 253 L833 485 L539 485 L539 574 L455 574 L455 485 L165 485 L165 253 L43 253 L43 176 L438 176 Q420 137 389 108 Q350 73 304 50 Q241 20 175 0 Q113 -18 49 -33 ZM628 785 L628 697 L368 697 L368 785 L286 785 L286 697 L55 697 L55 619 L286 619 L286 548 L368 548 L368 619 L628 619 L628 548 L711 548 L711 619 L940 619 L940 697 L711 697 L711 785 L628 785 ZM749 408 L749 253 L539 253 L539 408 L749 408 ZM455 253 L248 253 L248 408 L455 408 L455 253 Z" /><glyph glyph-name="uni83B7" unicode="&#x83b7;" d="M96 537 Q147 490 192 437 Q126 393 58 355 L86 287 Q162 328 235 376 Q254 342 268 306 Q170 201 47 128 L73 55 Q192 127 288 230 Q299 163 299 96 Q299 67 293 40 Q289 25 280 14 Q266 0 247 -4 Q220 -10 193 -10 L108 -10 L124 -86 L214 -86 Q257 -87 299 -76 Q326 -67 346 -47 L400 -109 Q484 -51 551 24 Q611 94 640 182 Q682 86 755 11 Q822 -56 906 -104 L956 -28 Q856 22 780 105 Q702 196 675 313 L937 313 L937 389 L665 389 L665 561 L586 561 L585 389 L385 389 L385 313 L582 313 Q573 208 516 121 Q482 75 440 36 Q401 2 359 -27 Q369 -6 373 16 Q378 51 378 87 Q380 186 358 283 Q340 357 299 422 Q356 465 410 514 L360 566 Q310 519 256 480 Q208 534 155 583 L96 537 ZM61 708 L61 632 L311 632 L311 576 L394 576 L394 632 L615 632 L615 577 L697 577 L697 632 L942 632 L942 708 L697 708 L697 798 L615 798 L615 708 L394 708 L394 798 L311 798 L311 708 L61 708 ZM726 540 Q789 476 850 410 L904 460 Q841 526 776 589 L726 540 Z" /><glyph glyph-name="uni840C" unicode="&#x840c;" d="M333 -59 L392 -116 Q431 -86 467 -53 Q496 -25 519 6 Q556 62 567 129 L802 129 L802 42 Q802 27 798 12 Q796 5 791 0 Q782 -8 771 -10 Q754 -13 738 -13 L631 -13 L646 -85 L755 -85 Q786 -85 817 -78 Q833 -74 847 -64 Q863 -50 869 -30 Q876 -3 876 24 L876 546 L502 546 L502 297 Q502 230 496 163 Q491 116 471 73 Q454 43 430 19 Q384 -23 333 -59 ZM117 534 L117 -17 L192 -17 L192 37 L411 37 L411 534 L117 534 ZM52 714 L52 639 L302 639 L302 581 L384 581 L384 639 L620 639 L620 581 L701 581 L701 639 L950 639 L950 714 L701 714 L701 799 L620 799 L620 714 L384 714 L384 799 L302 799 L302 714 L52 714 ZM576 474 L802 474 L802 368 L576 368 L576 474 ZM576 267 L576 300 L802 300 L802 197 L574 197 Q575 231 576 267 ZM192 110 L192 252 L337 252 L337 110 L192 110 ZM192 462 L337 462 L337 323 L192 323 L192 462 Z" /><glyph glyph-name="uni85CF" unicode="&#x85cf;" d="M57 728 L57 660 L322 660 L322 599 L399 599 L399 660 L601 660 L601 601 L678 601 L678 660 L805 660 L773 628 Q810 595 845 560 L755 560 L755 621 L682 621 Q681 590 683 560 L246 560 L246 436 L172 436 L172 594 L103 594 L103 367 L246 367 L246 291 L44 291 L44 223 L110 223 Q110 160 90 102 Q67 45 29 -3 L88 -41 Q130 13 154 77 Q177 148 179 223 L245 223 Q244 175 239 127 Q234 88 222 51 Q196 -16 151 -74 L215 -116 Q267 -40 291 47 Q304 102 309 158 Q314 230 314 303 L314 492 L685 492 L692 374 Q697 271 714 170 Q672 121 625 79 L670 28 Q701 56 731 88 Q746 27 774 -29 Q787 -56 811 -75 Q833 -91 861 -93 Q885 -93 904 -79 Q928 -59 938 -30 Q961 34 971 103 L907 126 Q900 82 891 40 Q887 21 879 3 Q873 -6 861 -6 Q849 -4 842 5 Q828 26 820 51 Q799 102 790 158 Q827 208 857 263 Q893 332 921 405 L859 430 Q826 337 775 254 Q765 332 762 411 Q759 451 758 492 L945 492 L945 560 L871 560 L903 592 Q868 627 830 660 L950 660 L950 728 L678 728 L678 801 L601 801 L601 728 L399 728 L399 801 L322 801 L322 728 L57 728 ZM366 441 L366 -50 L680 -50 L680 12 L580 12 L580 105 L647 105 L647 295 L580 295 L580 380 L658 380 L658 441 L366 441 ZM585 237 L585 163 L431 163 L431 237 L585 237 ZM431 105 L519 105 L519 12 L431 12 L431 105 ZM431 380 L519 380 L519 295 L431 295 L431 380 Z" /><glyph glyph-name="uni8857" unicode="&#x8857;" d="M293 473 L293 396 L664 396 L664 473 L522 473 L522 597 L654 597 L654 672 L522 672 L522 798 L443 798 L443 672 L309 672 L309 597 L443 597 L443 473 L293 473 ZM270 60 L278 -17 Q482 2 688 19 L684 93 L522 79 L522 195 L661 195 L661 270 L522 270 L522 361 L443 361 L443 270 L305 270 L305 195 L443 195 L443 73 Q356 66 270 60 ZM657 -20 L673 -96 L750 -96 Q780 -96 810 -90 Q831 -85 847 -71 Q857 -59 862 -45 Q869 -19 869 8 L869 407 L954 407 L954 486 L685 486 L685 407 L787 407 L787 41 Q787 25 784 10 Q781 0 773 -8 Q765 -14 757 -16 Q739 -20 722 -20 L657 -20 ZM27 271 L57 184 Q103 232 146 285 L146 -103 L225 -103 L225 391 Q269 455 306 524 L242 567 Q201 492 151 424 Q94 343 27 271 ZM42 567 L70 481 Q132 533 185 594 Q247 664 299 743 L233 789 Q152 665 42 567 ZM688 725 L688 645 L938 645 L938 725 L688 725 Z" /><glyph glyph-name="uni88C5" unicode="&#x88c5;" d="M33 67 L65 -10 Q186 35 301 96 L301 -2 Q301 -16 295 -28 Q283 -43 266 -51 L293 -113 Q327 -99 363 -88 L586 -22 L580 55 Q480 22 380 -9 L380 143 Q431 176 477 216 Q513 155 560 104 Q607 54 664 17 Q710 -12 761 -35 Q840 -68 924 -91 L961 -13 Q885 4 813 32 Q759 53 710 83 Q786 127 861 177 L814 236 Q732 178 647 129 Q585 182 542 252 L936 252 L936 325 L570 325 L519 424 L442 398 Q461 361 481 325 L65 325 L65 252 L405 252 Q323 190 231 146 Q134 100 33 67 ZM439 495 L439 428 L905 428 L905 495 L708 495 L708 614 L937 614 L937 681 L708 681 L708 798 L630 798 L630 681 L418 681 L418 614 L630 614 L630 495 L439 495 ZM310 798 L310 593 Q187 534 64 479 L98 410 Q203 463 310 515 L310 384 L388 384 L388 798 L310 798 ZM91 717 Q158 651 222 582 L276 629 Q210 698 142 764 L91 717 Z" /><glyph glyph-name="uni89C6" unicode="&#x89c6;" d="M297 -43 L350 -115 Q405 -81 456 -42 Q500 -9 540 29 Q600 90 636 169 L636 28 Q635 1 642 -24 Q646 -38 656 -50 Q669 -65 689 -70 Q714 -77 740 -77 L822 -77 Q851 -77 881 -71 Q901 -66 917 -52 Q927 -40 933 -26 Q941 0 942 28 L947 169 L869 187 Q869 121 868 57 Q867 41 864 27 Q861 19 856 13 Q848 6 837 4 Q821 1 805 2 L774 2 Q758 1 743 4 Q732 6 725 14 Q720 20 718 27 Q715 42 716 58 L716 265 L666 265 Q680 336 681 410 Q683 511 684 613 L601 613 Q600 516 597 420 Q594 340 577 261 Q560 195 522 139 Q490 95 450 59 Q378 1 297 -43 ZM415 749 L415 190 L495 190 L495 669 L799 669 L799 192 L878 192 L878 749 L415 749 ZM24 247 L62 167 Q120 219 172 278 L172 -100 L250 -100 L250 317 Q306 268 361 219 L411 282 L266 402 Q309 469 343 543 L343 626 L57 626 L57 543 L252 543 Q172 368 24 247 ZM138 784 Q171 713 201 641 L278 665 Q247 737 214 809 L138 784 Z" /><glyph glyph-name="uni89C8" unicode="&#x89c8;" d="M52 -29 L77 -116 Q164 -94 249 -65 Q314 -43 374 -11 Q410 9 441 37 Q476 71 498 116 L498 42 Q497 11 505 -17 Q511 -33 523 -46 Q539 -62 562 -68 Q592 -75 624 -75 L783 -75 Q818 -75 852 -69 Q877 -64 897 -48 Q910 -36 917 -20 Q927 8 929 39 L936 151 L846 167 Q847 115 842 65 Q841 48 836 32 Q832 20 822 13 Q813 7 802 5 Q780 2 759 3 L653 3 Q634 2 616 6 Q603 8 593 17 Q587 24 584 33 Q580 50 581 67 L581 197 L523 197 Q533 246 538 297 L451 297 Q447 240 432 185 Q418 144 390 112 Q355 76 311 53 Q267 31 221 15 Q137 -11 52 -29 ZM178 410 L178 101 L265 101 L265 331 L729 331 L729 101 L813 101 L813 410 L178 410 ZM426 513 L496 461 Q555 538 601 625 L948 625 L948 706 L640 706 Q655 741 669 777 L585 804 Q529 645 426 513 ZM323 796 L323 446 L410 446 L410 796 L323 796 ZM113 759 L113 452 L200 452 L200 759 L113 759 ZM628 559 Q730 493 830 423 L882 491 Q780 560 675 623 L628 559 Z" /><glyph glyph-name="uni8BA1" unicode="&#x8ba1;" d="M613 796 L613 464 L359 464 L359 380 L613 380 L613 -98 L698 -98 L698 380 L955 380 L955 464 L698 464 L698 796 L613 796 ZM44 487 L44 404 L184 404 L184 50 Q184 32 177 17 Q168 1 154 -10 L207 -72 Q234 -45 264 -23 L470 124 L440 206 Q356 142 271 81 L271 487 L44 487 ZM123 743 Q202 645 279 546 L350 600 Q272 698 190 794 L123 743 Z" /><glyph glyph-name="uni8BA4" unicode="&#x8ba4;" d="M278 -40 L344 -105 Q392 -59 436 -11 Q487 45 529 109 Q601 223 631 356 Q661 231 724 119 Q796 -2 901 -99 L964 -32 Q891 29 833 103 Q778 178 740 263 Q701 354 682 452 Q667 535 662 619 L664 652 L664 793 L583 793 L583 673 Q584 546 564 420 Q549 343 522 269 Q486 179 425 103 Q359 23 278 -40 ZM46 478 L46 395 L176 395 L176 82 Q178 39 147 12 L203 -48 Q227 -20 255 3 Q327 68 401 133 L371 214 L260 107 L260 478 L46 478 ZM104 730 Q186 636 266 541 L329 598 Q247 691 163 782 L104 730 Z" /><glyph glyph-name="uni8BBA" unicode="&#x8bba;" d="M289 457 L344 385 Q380 410 416 439 L416 74 Q415 34 425 -3 Q431 -24 445 -40 Q466 -60 493 -66 Q531 -74 569 -74 L724 -74 Q759 -74 793 -67 Q819 -61 840 -45 Q853 -33 861 -17 Q872 8 875 38 Q880 105 885 173 L798 194 L793 83 Q792 62 786 42 Q781 27 768 18 Q758 12 745 9 Q722 5 698 6 L582 6 Q560 5 539 9 Q528 11 520 17 Q510 26 507 39 Q503 58 504 78 L504 192 Q598 233 691 280 Q765 317 836 360 L794 439 Q654 349 504 282 L504 469 L450 469 Q559 567 634 694 Q686 597 761 518 Q833 442 921 387 L972 460 Q868 526 787 617 Q717 695 671 789 L595 789 Q544 695 472 617 Q389 526 289 457 ZM42 479 L42 394 L167 394 L167 55 Q167 20 141 -1 L195 -63 Q216 -42 240 -26 Q313 32 388 90 L358 169 Q304 126 251 84 L251 479 L42 479 ZM103 734 Q177 644 247 551 L316 609 Q245 698 171 785 L103 734 Z" /><glyph glyph-name="uni8BF7" unicode="&#x8bf7;" d="M380 350 L380 -91 L457 -91 L457 49 L793 49 L793 21 Q793 9 791 -1 Q789 -10 783 -15 Q777 -19 770 -21 Q755 -24 740 -24 L648 -24 L661 -85 L765 -85 Q791 -85 817 -79 Q836 -75 850 -62 Q859 -52 863 -39 Q870 -16 870 8 L870 350 L380 350 ZM586 793 L586 707 L336 707 L336 645 L586 645 L586 589 L367 589 L367 529 L586 529 L586 470 L304 470 L304 410 L955 410 L955 470 L664 470 L664 529 L900 529 L900 589 L664 589 L664 645 L924 645 L924 707 L664 707 L664 793 L586 793 ZM45 480 L45 402 L162 402 L162 48 Q162 12 135 -11 L186 -72 Q207 -50 230 -31 Q291 23 356 75 L324 151 L241 78 L241 480 L45 480 ZM457 287 L793 287 L793 230 L457 230 L457 287 ZM457 169 L793 169 L793 112 L457 112 L457 169 ZM104 730 Q167 641 227 551 L297 597 Q236 686 171 774 L104 730 Z" /><glyph glyph-name="uni8BFB" unicode="&#x8bfb;" d="M292 -38 L327 -112 Q430 -84 526 -39 Q587 -9 634 39 Q772 -29 910 -101 L953 -34 Q813 33 675 102 Q681 114 686 128 L949 128 L949 201 L704 201 Q711 254 713 308 L717 452 L639 452 Q637 376 635 301 Q634 250 625 201 L294 201 L294 128 L599 128 Q564 71 506 40 Q463 16 416 0 Q355 -21 292 -38 ZM319 547 L319 476 L853 476 L796 349 L868 326 L933 479 L933 547 L667 547 L667 638 L910 638 L910 705 L667 705 L667 798 L588 798 L588 705 L357 705 L357 638 L588 638 L588 547 L319 547 ZM42 476 L42 397 L158 397 L158 29 Q158 14 151 1 Q142 -12 130 -23 L181 -84 Q200 -64 222 -47 Q283 2 343 54 L305 123 Q270 93 236 64 L236 476 L42 476 ZM87 730 Q157 641 226 552 L293 602 Q222 690 151 778 L87 730 ZM326 302 Q423 256 519 208 L547 264 Q449 311 352 358 L326 302 ZM376 405 Q469 362 562 317 L590 377 Q496 421 401 462 L376 405 Z" /><glyph glyph-name="uni8D5B" unicode="&#x8d5b;" d="M68 366 L68 309 L295 309 Q241 259 176 225 Q108 188 35 163 L71 96 Q152 129 227 175 L227 46 L301 46 L301 188 L695 188 L695 47 L771 47 L771 177 Q848 132 933 103 L962 173 Q887 194 817 228 Q751 259 699 309 L930 309 L930 366 L673 366 L673 416 L838 416 L838 472 L673 472 L673 521 L822 521 L822 579 L673 579 L673 621 L595 621 L595 579 L403 579 L403 621 L325 621 L325 579 L176 579 L176 521 L325 521 L325 472 L161 472 L161 416 L325 416 L325 366 L68 366 ZM88 714 L88 553 L165 553 L165 652 L833 652 L833 553 L910 553 L910 714 L566 714 Q540 762 512 810 L430 787 Q450 750 472 714 L88 714 ZM92 -37 L126 -110 Q238 -88 346 -52 Q388 -37 428 -16 Q458 0 484 23 Q675 -37 863 -111 L896 -36 Q711 25 526 81 Q542 118 548 159 L458 159 Q454 124 436 94 Q411 60 373 40 Q311 10 244 -5 Q169 -23 92 -37 ZM390 309 L606 309 Q634 275 669 248 L328 248 Q361 276 390 309 ZM403 416 L595 416 L595 366 L403 366 L403 416 ZM403 521 L595 521 L595 472 L403 472 L403 521 Z" /><glyph glyph-name="uni8D77" unicode="&#x8d77;" d="M50 470 L50 393 L263 393 L263 58 Q234 78 214 107 Q189 147 177 193 Q182 263 182 335 L106 335 Q106 268 101 201 Q97 148 87 96 Q65 6 24 -76 L95 -102 Q137 -18 159 72 Q195 1 266 -34 Q310 -54 357 -61 Q414 -70 473 -70 L944 -70 L958 9 L483 9 Q411 7 341 23 L341 176 L487 176 L487 253 L341 253 L341 393 L497 393 L497 470 L322 470 L322 596 L472 596 L472 673 L322 673 L322 792 L244 792 L244 673 L85 673 L85 596 L244 596 L244 470 L50 470 ZM514 737 L514 659 L796 659 L796 498 L527 498 L527 223 Q526 189 533 156 Q539 132 557 115 Q570 103 587 98 Q617 90 649 91 L774 91 Q807 90 841 96 Q858 101 873 110 Q891 125 898 146 Q907 176 910 207 L916 301 L838 319 Q837 275 835 232 Q834 214 829 198 Q825 186 815 179 Q805 173 795 171 Q773 168 751 169 L673 169 Q654 168 636 172 Q627 174 619 180 Q610 189 608 202 Q604 221 605 241 L605 420 L874 420 L874 737 L514 737 Z" /><glyph glyph-name="uni8DF3" unicode="&#x8df3;" d="M396 14 L394 53 L393 91 Q347 82 301 75 L301 253 L375 253 L404 197 L531 287 Q527 230 514 176 Q504 141 488 109 Q465 67 431 32 Q390 -8 343 -43 L404 -103 Q460 -58 507 -4 Q547 42 570 100 Q587 147 596 196 Q607 280 607 366 L607 788 L533 788 L533 455 L443 667 L383 644 Q429 534 474 424 L533 449 L533 375 L382 271 L382 328 L301 328 L301 444 L368 444 L368 747 L95 747 L95 444 L229 444 L229 63 Q191 56 153 50 L153 383 L82 383 L82 39 L36 33 L45 -43 L396 14 ZM684 791 L684 32 Q683 4 690 -22 Q695 -36 705 -48 Q718 -62 737 -67 Q762 -73 788 -73 L832 -73 Q859 -73 886 -68 Q906 -63 921 -49 Q931 -37 936 -23 Q944 4 946 34 Q946 86 950 138 L885 154 Q883 107 882 60 Q881 45 878 30 Q876 20 869 12 Q864 7 856 5 Q842 1 828 2 L802 2 Q790 1 778 4 Q772 5 767 9 Q761 15 759 23 Q757 35 758 48 L758 320 Q828 252 898 184 L949 235 Q863 318 776 399 L758 381 L758 455 L815 423 Q876 530 930 643 L867 673 Q816 565 758 463 L758 791 L684 791 ZM168 673 L297 673 L297 519 L168 519 L168 673 Z" /><glyph glyph-name="uni8F66" unicode="&#x8f66;" d="M165 376 L165 297 L476 297 L476 148 L55 148 L55 68 L476 68 L476 -103 L564 -103 L564 68 L941 68 L941 148 L564 148 L564 297 L856 297 L856 376 L564 376 L564 531 L476 531 L476 376 L270 376 Q335 476 389 585 L909 585 L909 664 L428 664 Q456 724 481 787 L391 810 Q364 735 329 664 L89 664 L89 585 L290 585 Q234 476 165 376 Z" /><glyph glyph-name="uni8F6F" unicode="&#x8f6f;" d="M53 677 L53 598 L155 598 Q120 488 73 383 L73 305 L248 305 L248 161 Q142 146 37 134 L45 55 L248 84 L248 -101 L325 -101 L325 94 L480 115 L480 160 L481 194 Q403 181 325 171 L325 305 L457 305 L457 382 L325 382 L325 546 L250 546 L250 382 L156 382 Q202 487 236 598 L466 598 L466 677 L260 677 Q275 732 289 788 L208 799 Q195 737 178 677 L53 677 ZM358 -37 L412 -104 Q495 -42 563 35 Q629 111 666 206 Q698 122 753 50 Q819 -34 907 -99 L964 -28 Q862 39 791 137 Q718 244 702 373 Q703 394 704 417 Q705 469 705 523 L626 523 Q626 470 625 419 Q623 347 607 277 Q589 212 553 155 Q524 110 487 71 Q427 11 358 -37 ZM419 432 L486 390 Q539 480 580 577 L854 577 L777 405 L846 376 L933 578 L933 656 L609 656 Q632 720 649 787 L572 801 Q522 605 419 432 Z" /><glyph glyph-name="uni8F91" unicode="&#x8f91;" d="M399 480 L399 415 L461 415 L461 62 L361 58 L363 -10 L789 8 L789 -100 L866 -100 L866 12 L954 16 L954 84 L866 80 L866 415 L942 415 L942 480 L399 480 ZM49 665 L49 593 L139 593 Q109 481 66 374 L66 296 L229 296 L229 156 Q133 139 37 126 L44 48 Q136 65 229 81 L229 -103 L298 -103 L298 93 L418 113 L417 152 L415 188 L298 168 L298 296 L407 296 L407 369 L298 369 L298 537 L229 537 L229 369 L143 369 Q183 479 214 593 L409 593 L409 665 L234 665 Q250 725 265 786 L189 792 Q175 728 159 665 L49 665 ZM463 754 L463 539 L883 539 L883 754 L463 754 ZM541 688 L805 688 L805 602 L541 602 L541 688 ZM539 146 L789 146 L789 77 L539 66 L539 146 ZM539 415 L789 415 L789 341 L539 341 L539 415 ZM539 276 L789 276 L789 210 L539 210 L539 276 Z" /><glyph glyph-name="uni8FC7" unicode="&#x8fc7;" d="M36 8 L69 -82 Q144 -13 221 53 Q246 18 279 -8 Q302 -26 327 -38 Q364 -55 404 -60 Q453 -67 503 -67 L945 -67 L962 15 L516 15 Q468 14 421 21 Q385 26 352 42 Q329 53 311 70 Q283 96 263 129 L263 464 L47 464 L47 383 L179 383 L179 128 L36 8 ZM491 167 L508 86 L653 86 Q692 85 731 92 Q751 97 768 109 Q787 126 794 152 Q801 188 801 225 L801 548 L941 548 L941 630 L801 630 L801 795 L717 795 L717 630 L352 630 L352 548 L717 548 L717 246 Q717 225 713 204 Q711 190 700 180 Q690 173 679 170 Q656 166 632 167 L491 167 ZM383 462 Q462 360 536 255 L603 305 Q524 406 444 508 L383 462 ZM107 723 Q180 630 253 538 L320 590 Q245 682 169 773 L107 723 Z" /><glyph glyph-name="uni8FD0" unicode="&#x8fd0;" d="M342 191 L364 116 Q399 124 436 125 Q625 136 815 149 Q835 110 858 72 L932 116 Q850 255 768 394 L697 355 Q734 290 772 226 Q623 217 475 209 Q511 255 542 306 Q582 371 617 439 L948 439 L948 516 L313 516 L313 439 L519 439 Q465 329 393 231 Q373 203 342 191 ZM36 0 L81 -79 L221 50 Q250 15 286 -11 Q311 -28 338 -39 Q376 -54 417 -59 Q468 -64 519 -64 L944 -64 L954 15 L532 15 Q484 14 436 20 Q398 25 362 40 Q337 51 315 68 Q283 95 258 129 L258 463 L46 463 L46 385 L176 385 L176 123 L36 0 ZM366 739 L366 662 L895 662 L895 739 L366 739 ZM95 730 Q171 638 246 545 L312 604 Q237 696 158 786 L95 730 Z" /><glyph glyph-name="uni8FD9" unicode="&#x8fd9;" d="M364 465 Q465 381 566 295 Q509 243 444 202 Q377 161 307 128 L355 55 Q439 97 518 149 Q577 190 630 240 Q737 147 842 51 L898 119 Q792 210 685 301 Q728 355 760 416 Q799 492 822 574 L934 574 L934 653 L610 653 L671 673 Q638 740 604 808 L530 781 Q563 718 593 653 L329 653 L329 574 L736 574 Q702 451 622 354 Q519 439 416 524 L364 465 ZM31 0 L75 -78 Q141 -12 210 52 Q234 17 267 -9 Q290 -27 316 -40 Q355 -57 397 -63 Q449 -70 503 -70 L943 -70 L958 11 L516 11 Q467 10 419 17 Q381 22 346 38 Q322 49 302 66 Q273 92 252 125 L252 458 L48 458 L48 379 L170 379 L170 125 L31 0 ZM83 731 Q150 635 216 538 L287 587 Q218 682 150 777 L83 731 Z" /><glyph glyph-name="uni90E8" unicode="&#x90e8;" d="M605 739 L605 -101 L686 -101 L686 658 L848 658 L766 396 Q808 349 838 294 Q863 247 865 194 Q865 170 858 147 Q853 134 844 123 Q830 110 811 105 Q786 99 760 100 L711 100 L728 22 L785 22 Q824 21 863 32 Q885 39 903 54 Q926 74 935 104 Q946 141 946 180 Q946 233 927 284 Q897 353 850 413 L933 657 L933 739 L605 739 ZM112 289 L112 -81 L190 -81 L190 -24 L500 -24 L500 289 L112 289 ZM133 574 Q167 513 196 449 L44 449 L44 370 L565 370 L565 449 L418 449 Q450 512 479 578 L407 605 Q374 525 334 449 L215 449 L271 473 Q239 541 204 607 L133 574 ZM233 782 Q259 735 282 688 L73 688 L73 611 L539 611 L539 688 L348 688 L371 697 Q344 757 311 814 L233 782 ZM190 212 L421 212 L421 53 L190 53 L190 212 Z" /><glyph glyph-name="uni90FD" unicode="&#x90fd;" d="M51 496 L51 425 L279 425 Q229 379 173 341 Q102 291 26 248 L63 179 Q103 202 143 229 L143 -90 L216 -90 L216 -41 L502 -41 L502 336 L292 336 Q342 377 388 425 L575 425 L575 496 L448 496 Q520 592 571 703 L497 734 Q442 603 350 496 L310 496 L310 614 L435 614 L435 684 L310 684 L310 795 L234 795 L234 684 L84 684 L84 614 L234 614 L234 496 L51 496 ZM610 747 L610 -99 L690 -99 L690 671 L854 671 L763 394 Q809 342 842 280 Q865 233 866 181 Q866 159 860 139 Q856 128 849 119 Q836 108 819 105 Q795 100 771 101 L711 101 L729 20 L784 20 Q824 19 863 28 Q892 36 914 57 Q929 74 936 95 Q947 131 947 170 Q947 231 923 287 Q893 353 849 410 L935 665 L935 747 L610 747 ZM216 26 L216 115 L430 115 L430 26 L216 26 ZM216 267 L430 267 L430 181 L216 181 L216 267 Z" /><glyph glyph-name="uni91CC" unicode="&#x91cc;" d="M120 200 L120 122 L457 122 L457 15 L51 15 L51 -61 L947 -61 L947 15 L541 15 L541 122 L879 122 L879 200 L541 200 L541 300 L860 300 L860 751 L138 751 L138 300 L457 300 L457 200 L120 200 ZM776 676 L776 562 L541 562 L541 676 L776 676 ZM222 490 L457 490 L457 376 L222 376 L222 490 ZM541 376 L541 490 L776 490 L776 376 L541 376 ZM222 676 L457 676 L457 562 L222 562 L222 676 Z" /><glyph glyph-name="uni91CD" unicode="&#x91cd;" d="M124 121 L124 60 L460 60 L460 -4 L58 -4 L58 -70 L944 -70 L944 -4 L542 -4 L542 60 L879 60 L879 121 L542 121 L542 182 L848 182 L848 489 L542 489 L542 552 L957 552 L957 615 L542 615 L542 687 Q707 694 872 705 L862 776 Q493 753 124 746 L128 675 Q294 677 460 684 L460 615 L46 615 L46 552 L460 552 L460 489 L155 489 L155 182 L460 182 L460 121 L124 121 ZM542 245 L542 306 L764 306 L764 245 L542 245 ZM238 306 L460 306 L460 245 L238 245 L238 306 ZM764 426 L764 366 L542 366 L542 426 L764 426 ZM238 426 L460 426 L460 366 L238 366 L238 426 Z" /><glyph glyph-name="uni91D1" unicode="&#x91d1;" d="M37 489 L76 412 Q157 447 234 492 L234 431 L459 431 L459 319 L119 319 L119 240 L459 240 L459 13 L64 13 L64 -63 L938 -63 L938 13 L543 13 L543 240 L883 240 L883 319 L543 319 L543 431 L766 431 L766 498 Q844 452 929 420 L965 498 Q841 543 731 615 Q622 687 542 789 L464 789 Q384 686 276 614 Q163 539 37 489 ZM502 708 Q547 653 602 609 Q672 552 749 508 L262 508 Q337 554 406 611 Q458 655 502 708 ZM625 76 L684 22 Q758 103 828 191 L762 239 Q697 154 625 76 ZM177 185 Q247 106 313 24 L374 74 Q305 156 234 236 L177 185 Z" /><glyph glyph-name="uni9500" unicode="&#x9500;" d="M398 525 L398 -91 L477 -91 L477 100 L821 100 L821 52 Q821 36 818 20 Q815 12 810 6 Q802 -1 791 -3 Q774 -6 757 -6 L661 -6 L678 -86 L782 -86 Q812 -86 843 -80 Q864 -75 880 -60 Q890 -48 895 -33 Q902 -5 902 23 L902 525 L689 525 L689 798 L610 798 L610 525 L398 525 ZM21 500 L72 443 L91 467 L91 424 L164 424 L164 308 L49 308 L49 234 L164 234 L164 30 Q164 15 158 1 Q147 -15 132 -28 L177 -94 Q197 -74 221 -59 Q292 -7 365 43 L344 125 Q293 84 241 45 L241 234 L370 234 L370 308 L241 308 L241 424 L352 424 L352 500 L114 500 Q146 548 176 600 L369 600 L369 676 L216 676 Q238 721 257 769 L185 796 Q121 637 21 500 ZM477 276 L821 276 L821 175 L477 175 L477 276 ZM477 450 L821 450 L821 350 L477 350 L477 450 ZM366 714 Q439 634 506 549 L566 603 Q497 686 425 766 L366 714 ZM733 599 L793 548 Q866 628 934 715 L873 762 Q806 677 733 599 Z" /><glyph glyph-name="uni952E" unicode="&#x952e;" d="M550 441 L550 379 L666 379 L666 307 L545 307 L545 246 L666 246 L666 175 L511 175 L511 114 L666 114 L666 30 L733 30 L733 114 L933 114 L933 175 L733 175 L733 246 L907 246 L907 307 L733 307 L733 379 L893 379 L893 515 L948 515 L948 576 L893 576 L893 712 L733 712 L733 798 L666 798 L666 712 L551 712 L551 651 L666 651 L666 576 L523 576 L523 515 L666 515 L666 441 L550 441 ZM263 -46 L322 -95 Q374 -29 416 44 Q457 -7 517 -33 Q587 -61 663 -60 L936 -60 L949 7 L670 7 Q605 6 545 32 Q487 61 450 115 Q472 171 486 230 Q503 307 512 387 L512 456 L397 456 L514 658 L514 727 L335 727 L335 659 L440 659 L321 456 L321 390 L446 390 Q439 289 409 193 Q384 252 371 316 L310 294 Q330 197 374 110 Q328 24 263 -46 ZM23 508 L79 458 L86 470 L86 432 L134 432 L134 310 L40 310 L40 240 L134 240 L134 38 Q133 5 105 -12 L148 -77 Q167 -60 188 -45 Q252 -1 317 44 L297 119 Q251 82 204 48 L204 240 L303 240 L303 310 L204 310 L204 432 L295 432 L295 502 L103 502 Q131 555 155 611 L317 611 L317 681 L184 681 Q203 734 219 790 L149 804 Q106 647 23 508 ZM828 651 L828 576 L733 576 L733 651 L828 651 ZM733 441 L733 515 L828 515 L828 441 L733 441 Z" /><glyph glyph-name="uni95E8" unicode="&#x95e8;" d="M371 731 L371 650 L813 650 L813 78 Q813 56 809 35 Q806 25 799 16 Q787 6 772 3 Q749 0 727 0 L606 0 L624 -85 L755 -85 Q792 -85 828 -78 Q854 -73 873 -55 Q885 -40 891 -22 Q899 12 899 49 L899 731 L371 731 ZM99 618 L99 -89 L184 -89 L184 618 L99 618 ZM122 745 Q203 668 280 586 L342 651 Q263 729 180 803 L122 745 Z" /><glyph glyph-name="uni963B" unicode="&#x963b;" d="M446 749 L446 17 L315 17 L315 -64 L960 -64 L960 17 L871 17 L871 749 L446 749 ZM88 749 L88 -100 L167 -100 L167 668 L303 668 L220 425 Q258 376 282 320 Q302 273 304 224 Q304 202 299 182 Q296 171 289 162 Q278 151 263 147 Q242 143 220 144 L185 144 L200 66 L244 66 Q278 65 312 73 Q337 81 355 101 Q368 117 374 137 Q383 174 383 212 Q382 273 360 330 Q337 388 301 441 L380 670 L380 749 L88 749 ZM529 185 L788 185 L788 17 L529 17 L529 185 ZM529 670 L788 670 L788 505 L529 505 L529 670 ZM529 426 L788 426 L788 264 L529 264 L529 426 Z" /><glyph glyph-name="uni9650" unicode="&#x9650;" d="M393 -32 L430 -105 Q456 -89 485 -78 Q581 -36 679 0 L667 80 Q586 42 504 9 L504 319 L579 319 Q599 246 633 179 Q656 135 687 95 Q730 43 783 3 Q844 -40 912 -74 L963 -5 Q899 21 842 58 Q798 87 763 126 Q844 180 922 241 L874 297 Q800 233 719 181 Q677 245 653 319 L876 319 L876 748 L426 748 L426 14 Q427 -1 419 -14 Q407 -25 393 -32 ZM87 755 L87 -88 L162 -88 L162 681 L293 681 L216 441 Q250 393 273 339 Q294 293 297 243 Q297 220 292 199 Q289 188 282 178 Q271 167 256 163 Q235 158 214 159 L177 159 L192 84 L237 84 Q271 83 303 92 Q329 100 346 120 Q358 136 364 156 Q373 191 373 228 Q371 288 350 345 Q328 403 295 455 L371 682 L371 755 L87 755 ZM504 677 L798 677 L798 568 L504 568 L504 677 ZM504 390 L504 496 L798 496 L798 390 L504 390 Z" /><glyph glyph-name="uni9690" unicode="&#x9690;" d="M384 281 L384 214 L624 214 L577 190 Q615 123 650 54 L708 84 L637 214 L885 214 L885 555 L735 555 L821 657 L821 719 L569 719 Q589 750 608 784 L530 806 Q450 662 330 551 L383 499 L415 530 L415 487 L811 487 L811 416 L395 416 L395 352 L811 352 L811 281 L384 281 ZM81 744 L81 -101 L155 -101 L155 671 L280 671 L203 432 Q237 384 260 330 Q279 283 281 232 Q281 211 277 191 Q273 177 263 166 Q255 160 244 157 Q225 152 205 153 L165 153 L179 82 L225 82 Q256 81 287 90 Q310 98 327 117 Q339 133 344 153 Q353 188 353 225 Q352 282 332 336 Q311 393 278 443 L355 671 L355 744 L81 744 ZM470 166 L470 18 Q469 -7 476 -32 Q481 -46 491 -58 Q505 -72 524 -77 Q549 -83 576 -83 L682 -83 Q710 -83 738 -77 Q753 -74 766 -65 Q781 -54 788 -37 Q796 -14 797 9 Q799 57 800 106 L733 118 Q731 75 731 33 Q732 12 721 -4 Q713 -11 703 -13 Q689 -16 675 -16 L593 -16 Q579 -16 566 -13 Q559 -11 554 -7 Q547 0 544 8 Q541 21 542 34 L542 166 L470 166 ZM523 654 L729 654 L643 555 L439 555 Q483 602 523 654 ZM804 152 Q855 46 901 -61 L964 -34 Q916 73 864 179 L804 152 ZM287 -35 L350 -65 Q402 37 439 147 L378 169 Q340 63 287 -35 Z" /><glyph glyph-name="uni96C4" unicode="&#x96c4;" d="M668 770 L747 634 L573 634 Q601 710 624 789 L546 803 Q517 688 469 580 Q430 491 373 412 L415 344 Q451 392 482 444 L482 -96 L556 -96 L556 -35 L955 -35 L955 42 L780 42 L780 173 L926 173 L926 244 L780 244 L780 366 L926 366 L926 438 L780 438 L780 558 L939 558 L939 634 L764 634 L817 661 Q774 732 730 802 L668 770 ZM309 243 Q337 152 365 62 Q280 57 196 53 Q299 240 360 447 L286 467 Q256 364 216 265 Q179 170 131 80 Q117 51 87 41 L109 -37 Q142 -27 177 -24 Q281 -16 386 -11 Q395 -39 403 -69 L472 -48 Q428 110 377 267 L309 243 ZM24 247 L68 178 Q127 256 172 344 Q225 449 260 563 L447 563 L447 645 L282 645 Q299 716 311 790 L232 797 Q220 720 202 645 L59 645 L59 563 L179 563 Q123 394 24 247 ZM556 173 L706 173 L706 42 L556 42 L556 173 ZM556 366 L706 366 L706 244 L556 244 L556 366 ZM556 558 L706 558 L706 438 L556 438 L556 558 Z" /><glyph glyph-name="uni97F3" unicode="&#x97f3;" d="M168 332 L168 -101 L255 -101 L255 -55 L746 -55 L746 -101 L834 -101 L834 332 L168 332 ZM246 588 Q283 541 317 492 L53 492 L53 418 L948 418 L948 492 L693 492 Q725 541 758 591 L679 631 L901 631 L901 706 L570 706 Q543 762 514 817 L430 787 Q451 746 472 706 L100 706 L100 631 L314 631 L246 588 ZM255 101 L746 101 L746 18 L255 18 L255 101 ZM255 257 L746 257 L746 174 L255 174 L255 257 ZM402 523 Q362 577 321 631 L676 631 Q637 558 589 492 L352 492 L402 523 Z" /><glyph glyph-name="uni9879" unicode="&#x9879;" d="M404 548 L404 124 L485 124 L485 475 L807 475 L807 123 L887 123 L887 548 L671 548 Q686 606 697 665 L947 665 L947 742 L390 742 L390 665 L607 665 Q595 605 580 548 L404 548 ZM378 112 L372 154 L366 197 Q308 182 251 169 L251 639 L364 639 L364 719 L56 719 L56 639 L167 639 L167 149 Q101 132 36 120 L52 35 Q214 76 378 112 ZM300 -25 L348 -99 Q443 -63 531 -9 Q567 13 598 43 Q624 68 644 100 Q772 5 897 -93 L947 -23 Q811 76 674 172 Q685 223 685 277 L685 431 L604 431 L604 293 Q605 238 592 185 Q578 137 543 101 Q509 70 468 47 Q386 5 300 -25 Z" /><glyph glyph-name="uni9891" unicode="&#x9891;" d="M42 -38 L94 -111 Q170 -76 240 -32 Q301 8 353 61 Q390 101 420 146 Q461 212 490 286 L420 321 Q388 233 333 159 L333 387 L484 387 L484 463 L350 463 L350 594 L466 594 L466 669 L350 669 L350 794 L278 794 L278 463 L190 463 L190 715 L117 715 L117 463 L44 463 L44 387 L259 387 L259 143 L319 143 Q273 91 215 53 Q132 0 42 -38 ZM508 565 L508 109 L583 109 L583 490 L821 490 L821 109 L896 109 L896 565 L715 565 Q729 616 742 668 L941 668 L941 744 L478 744 L478 668 L662 668 Q650 616 636 565 L508 565 ZM407 -39 L450 -112 Q528 -78 598 -29 Q658 13 697 77 Q805 -9 908 -102 L960 -33 Q844 59 727 149 Q739 199 739 251 L739 443 L665 443 L665 254 Q665 209 653 167 Q638 123 609 89 Q568 45 516 15 Q463 -14 407 -39 ZM35 120 L101 81 Q138 140 170 204 Q195 251 214 301 L145 334 Q101 221 35 120 Z" /><glyph glyph-name="uni989C" unicode="&#x989c;" d="M25 -66 L101 -100 Q136 -17 153 71 Q162 122 165 174 Q169 238 169 302 L169 429 L411 429 Q303 356 178 319 L209 250 Q280 275 348 311 Q402 339 452 375 L417 429 L500 429 L500 502 L382 502 Q414 559 443 619 L398 637 L502 637 L502 711 L300 711 L340 720 Q322 770 301 819 L226 795 Q244 753 258 711 L70 711 L70 637 L176 637 L133 619 Q164 560 197 502 L96 502 L96 330 Q96 258 92 187 Q89 146 83 106 Q68 15 25 -66 ZM534 570 L534 135 L606 135 L606 498 L836 498 L836 135 L909 135 L909 570 L731 570 L756 674 L950 674 L950 749 L521 749 L521 674 L680 674 Q668 621 656 570 L534 570 ZM442 -42 L492 -105 Q570 -62 639 -6 Q683 29 714 78 Q816 -8 915 -99 L970 -37 Q857 57 744 151 Q759 218 758 288 L758 448 L686 448 L686 305 Q686 246 675 189 Q664 139 634 98 Q607 65 574 39 Q511 -6 442 -42 ZM147 -11 L180 -86 Q359 -18 511 98 L467 156 Q320 46 147 -11 ZM173 160 L204 91 Q349 148 474 244 L431 297 Q312 209 173 160 ZM266 520 L203 637 L375 637 Q344 568 308 502 L225 502 L266 520 Z" /><glyph glyph-name="uni9A7E" unicode="&#x9a7e;" d="M142 411 L142 346 L671 346 L656 243 L300 243 L317 329 L235 333 L209 173 L801 173 Q794 112 787 53 Q784 35 778 18 Q772 6 761 -1 Q751 -7 740 -10 Q720 -14 700 -14 L561 -14 L576 -86 L723 -86 Q756 -86 788 -79 Q812 -73 831 -56 Q843 -43 851 -26 Q862 3 865 35 Q875 138 883 243 L736 243 L758 411 L142 411 ZM554 738 L554 476 L882 476 L882 738 L554 738 ZM60 714 L60 647 L188 647 Q180 595 149 553 Q128 528 103 508 Q70 482 35 461 L89 402 Q128 428 162 460 Q192 488 216 521 Q254 578 265 647 L404 647 Q401 612 398 578 Q396 564 391 552 Q387 543 379 538 Q372 533 363 532 Q348 529 332 530 L252 530 L265 463 L362 463 Q388 462 414 468 Q428 471 441 479 Q455 490 462 507 Q469 529 471 552 Q478 632 482 714 L271 714 Q272 753 273 794 L195 794 Q194 753 193 714 L60 714 ZM67 101 L67 34 L719 34 L719 101 L67 101 ZM629 668 L807 668 L807 546 L629 546 L629 668 Z" /><glyph glyph-name="uni9AD8" unicode="&#x9ad8;" d="M116 329 L116 -93 L198 -93 L198 266 L805 266 L805 44 Q805 28 802 13 Q799 2 790 -4 Q782 -9 773 -12 Q756 -15 738 -15 L644 -15 L660 -86 L769 -86 Q799 -86 829 -80 Q845 -75 859 -66 Q875 -52 881 -32 Q888 -5 888 23 L888 329 L116 329 ZM198 582 L198 393 L805 393 L805 582 L198 582 ZM303 203 L303 6 L700 6 L700 203 L303 203 ZM430 785 Q449 747 467 710 L56 710 L56 644 L947 644 L947 710 L566 710 Q542 761 517 812 L430 785 ZM281 522 L721 522 L721 452 L281 452 L281 522 ZM383 141 L620 141 L620 69 L383 69 L383 141 Z" /><glyph glyph-name="uni9ED8" unicode="&#x9ed8;" d="M543 140 L543 168 L542 207 L336 199 L336 268 L517 268 L517 337 L336 337 L336 405 L518 405 L518 747 L88 747 L88 405 L271 405 L271 337 L78 337 L78 268 L271 268 L271 197 Q161 192 51 190 L54 121 Q298 131 543 140 ZM437 105 Q460 43 479 -19 L524 -3 Q502 -33 477 -60 L535 -112 Q674 46 719 253 Q738 157 783 70 Q835 -26 912 -105 L969 -41 Q866 53 810 180 Q761 303 756 436 L945 436 L945 516 L743 516 L743 798 L671 798 L671 516 L541 516 L541 436 L668 436 Q662 310 624 190 Q593 95 536 13 Q518 70 496 126 L437 105 ZM454 681 L454 472 L336 472 L336 681 L454 681 ZM153 681 L271 681 L271 472 L153 472 L153 681 ZM777 725 Q824 643 868 559 L936 593 Q891 677 841 760 L777 725 ZM37 -77 L108 -99 Q141 -7 162 88 L95 103 Q72 11 37 -77 ZM204 87 Q215 5 223 -76 L293 -70 Q282 13 268 96 L204 87 ZM320 99 Q342 20 359 -59 L424 -45 Q405 33 383 111 L320 99 ZM155 626 Q185 565 214 503 L267 529 Q238 590 206 650 L155 626 ZM339 528 L389 499 Q422 560 454 624 L405 649 Q373 587 339 528 Z" /><glyph glyph-name="uniFF08" unicode="&#xff08;" d="M568 355 Q571 218 606 86 Q624 19 651 -45 Q668 -86 693 -125 L783 -125 Q759 -86 741 -44 Q715 18 697 84 Q660 217 658 355 Q660 471 689 585 Q706 651 730 715 Q751 772 782 824 L693 824 Q669 788 653 748 Q626 685 608 620 Q590 551 578 481 Q568 418 568 355 Z" /><glyph glyph-name="uniFF09" unicode="&#xff09;" d="M219 -125 L313 -125 Q336 -86 354 -45 Q379 19 395 86 Q426 218 429 355 Q426 489 393 620 Q377 685 352 748 Q336 787 314 824 L220 824 Q250 771 271 715 Q295 651 312 585 Q341 471 344 355 Q341 217 304 84 Q286 18 260 -44 Q242 -86 219 -125 Z" /><glyph glyph-name="uniFF0C" unicode="&#xff0c;" d="M197 -147 L197 -195 Q248 -177 283 -136 Q318 -91 319 -34 L319 112 L200 112 L200 -38 L260 -38 Q259 -73 242 -104 Q225 -132 197 -147 Z" /><glyph glyph-name="uniFF1A" unicode="&#xff1a;" d="M200 486 L200 335 L319 335 L319 486 L200 486 ZM200 112 L200 -38 L319 -38 L319 112 L200 112 Z" /></font>
</defs>
</svg>
